# https://github.com/mikedh/trimesh
v 0.15222480010986328 0.02025347476012695 -0.00499999904632568
v 0.12450000000000000 0.00870590453155029 -0.00482962810993195
v 0.12450000000000000 0.00820000033385742 -0.00462007582187653
v 0.12150000000000000 0.00820000033385742 -0.00499999904632568
v 0.15767536163330079 0.02969411807067382 -0.00499999904632568
v 0.15222480010986328 0.02025347476012695 0.00500000095367432
v 0.12450000000000000 0.00820000033385742 0.00462007713317871
v 0.12450000000000000 0.00870590453155029 0.00482962989807129
v 0.12150000000000000 0.00820000033385742 0.00500000095367432
v 0.15767536163330079 0.02969411807067382 0.00500000095367432
v 0.02550000000000000 0.00820000033385742 -0.00499999904632568
v 0.02141024780273438 0.01708364825255859 -0.00499999904632568
v 0.02028953552246094 0.01773069529540527 -0.00482962810993195
v 0.01985140991210938 0.01798364787108886 -0.00462007582187653
v 0.02135140991210938 0.02058172183043945 -0.00499999904632568
v 0.02135140991210938 0.02058172373778808 -0.00483952844142914
v 0.02285140991210938 0.02317979960448730 -0.00499999904632568
v 0.01985140991210938 0.01798364405639160 -0.00112335968017578
v 0.02285140991210938 0.02317980151183593 -0.00106065940856934
v 0.03110140991210938 0.03746922259337890 -0.00499999904632568
v 0.01985140991210938 0.01798364405639160 0.00112336158752441
v 0.02285140991210938 0.02317980151183593 0.00106066131591797
v 0.02550000000000000 0.00820000033385742 0.00500000095367432
v 0.01985140991210938 0.01798364787108886 0.00462007713317871
v 0.02028953552246094 0.01773069529540527 0.00482962989807129
v 0.02141024780273438 0.01708364825255859 0.00500000095367432
v 0.02135140991210938 0.02058172373778808 0.00483952999114990
v 0.02135140991210938 0.02058172183043945 0.00500000095367432
v 0.02285140991210938 0.02317979960448730 0.00500000095367432
v 0.03110140991210938 0.03746922259337890 0.00500000095367432
v 0.20364859008789063 0.10932208209044920 -0.00499999904632568
v 0.20358974647521977 0.11282015948302733 -0.00499999904632568
v 0.20471046447753910 0.11217311816222654 -0.00482962810993195
v 0.20514859199523930 0.11192016558654296 -0.00462007570266724
v 0.19950000000000004 0.12170381121642576 -0.00499999904632568
v 0.20514859008789066 0.11192015795714842 -0.00339190721511841
v 0.20514859008789066 0.11192015795714842 0.00339190864562988
v 0.20364859008789063 0.10932208209044920 0.00500000095367432
v 0.20514859199523930 0.11192016558654296 0.00462007713317871
v 0.20471046447753910 0.11217311816222654 0.00482962989807129
v 0.20358974647521977 0.11282015948302733 0.00500000095367432
v 0.19950000000000004 0.12170381121642576 0.00500000095367432
v 0.10350000000000002 0.12170381121642576 -0.00499999904632568
v 0.10050000000000002 0.12119790606505858 -0.00482962810993195
v 0.10050000000000002 0.12170381121642576 -0.00462007617950439
v 0.07277519226074221 0.10965032916076170 -0.00499999904632568
v 0.10350000000000002 0.12170381121642576 0.00500000095367432
v 0.10050000000000002 0.12170381121642576 0.00462007808685303
v 0.10050000000000002 0.12119790606505858 0.00482962989807129
v 0.07277519226074221 0.10965032916076170 0.00500000095367432
f 44 46 45
f 2 4 1
f 3 4 2
f 2 1 3
f 44 45 43
f 43 46 44
f 50 47 49
f 49 47 48
f 49 48 50
f 23 24 21
f 13 12 11
f 13 11 14
f 15 12 13
f 14 15 13
f 19 20 14
f 31 32 33
f 33 34 31
f 35 34 33
f 33 32 35
f 6 9 8
f 9 7 8
f 8 7 6
f 14 11 18
f 20 17 16
f 14 20 16
f 16 17 15
f 16 15 14
f 22 24 30
f 40 41 38
f 38 39 40
f 40 39 42
f 42 41 40
f 36 5 31
f 31 34 36
f 27 29 30
f 30 24 27
f 28 29 27
f 24 28 27
f 23 26 25
f 25 24 23
f 25 26 28
f 25 28 24
f 38 10 37
f 37 39 38
f 45 46 50
f 50 48 45
f 43 45 48
f 43 42 35
f 43 47 42
f 48 47 43
f 20 30 50
f 50 46 20
f 35 42 39
f 39 34 35
f 11 4 7
f 7 9 23
f 7 4 3
f 7 23 11
f 3 1 7
f 7 1 6
f 17 43 35
f 17 4 11
f 17 5 1
f 46 43 17
f 1 4 17
f 17 20 46
f 11 12 17
f 17 12 15
f 35 32 17
f 31 5 17
f 17 32 31
f 1 5 10
f 6 1 10
f 26 41 42
f 26 47 50
f 50 30 26
f 26 9 6
f 6 10 26
f 42 47 26
f 23 9 26
f 30 29 26
f 38 41 26
f 26 10 38
f 26 29 28
f 11 23 18
f 23 21 18
f 18 24 14
f 18 21 24
f 30 20 22
f 20 19 22
f 14 24 22
f 22 19 14
f 37 10 5
f 5 36 37
f 34 39 37
f 37 36 34

