# https://github.com/mikedh/trimesh
v -0.07722480010986327 0.10965033580753887 -0.00499999904632568
v -0.04949999999999999 0.12119790603611552 -0.00482962810993195
v -0.04949999999999999 0.12170381023380838 -0.00462007582187653
v -0.04649999999999999 0.12170381023380838 -0.00499999904632568
v -0.08267536163330078 0.10020969249699199 -0.00499999904632568
v -0.07722480010986327 0.10965033580753887 0.00500000095367432
v -0.04949999999999999 0.12170381023380838 0.00462007713317871
v -0.04949999999999999 0.12119790603611552 0.00482962989807129
v -0.04649999999999999 0.12170381023380838 0.00500000095367432
v -0.08267536163330078 0.10020969249699199 0.00500000095367432
v 0.04950000000000002 0.12170381023380838 -0.00499999904632568
v 0.05358975219726564 0.11282016231510722 -0.00499999904632568
v 0.05471046447753908 0.11217311527226054 -0.00482962810993195
v 0.05514859008789064 0.11192016269657694 -0.00462007582187653
v 0.05364859008789064 0.10932208873722635 -0.00499999904632568
v 0.05364859008789064 0.10932208682987772 -0.00483952844142914
v 0.05214859008789064 0.10672401096317850 -0.00499999904632568
v 0.05514859008789064 0.11192016651127421 -0.00112335968017578
v 0.05214859008789064 0.10672400905582986 -0.00106065940856934
v 0.04389859008789063 0.09243458797428690 -0.00499999904632568
v 0.05514859008789064 0.11192016651127421 0.00112336158752441
v 0.05214859008789064 0.10672400905582986 0.00106066131591797
v 0.04950000000000002 0.12170381023380838 0.00500000095367432
v 0.05514859008789064 0.11192016269657694 0.00462007713317871
v 0.05471046447753908 0.11217311527226054 0.00482962989807129
v 0.05358975219726564 0.11282016231510722 0.00500000095367432
v 0.05364859008789064 0.10932208682987772 0.00483952999114990
v 0.05364859008789064 0.10932208873722635 0.00500000095367432
v 0.05214859008789064 0.10672401096317850 0.00500000095367432
v 0.04389859008789063 0.09243458797428690 0.00500000095367432
v -0.12864859008789062 0.02058172847721660 -0.00499999904632568
v -0.12858974647521973 0.01708365108463848 -0.00499999904632568
v -0.12971046447753906 0.01773069240543926 -0.00482962810993195
v -0.13014859199523926 0.01798364498112285 -0.00462007570266724
v -0.12450000000000000 0.00819999935124004 -0.00499999904632568
v -0.13014859008789062 0.01798365261051738 -0.00339190721511841
v -0.13014859008789062 0.01798365261051738 0.00339190864562988
v -0.12864859008789062 0.02058172847721660 0.00500000095367432
v -0.13014859199523926 0.01798364498112285 0.00462007713317871
v -0.12971046447753906 0.01773069240543926 0.00482962989807129
v -0.12858974647521973 0.01708365108463848 0.00500000095367432
v -0.12450000000000000 0.00819999935124004 0.00500000095367432
v -0.02850000000000000 0.00819999935124003 -0.00499999904632568
v -0.02550000000000000 0.00870590450260721 -0.00482962810993195
v -0.02550000000000000 0.00819999935124003 -0.00462007617950439
v 0.00222480773925781 0.02025348140690409 -0.00499999904632568
v -0.02850000000000000 0.00819999935124003 0.00500000095367432
v -0.02550000000000000 0.00819999935124003 0.00462007808685303
v -0.02550000000000000 0.00870590450260721 0.00482962989807129
v 0.00222480773925781 0.02025348140690409 0.00500000095367432
f 44 46 45
f 2 4 1
f 3 4 2
f 2 1 3
f 44 45 43
f 43 46 44
f 50 47 49
f 49 47 48
f 49 48 50
f 23 24 21
f 13 12 11
f 13 11 14
f 15 12 13
f 14 15 13
f 19 20 14
f 31 32 33
f 33 34 31
f 35 34 33
f 33 32 35
f 6 9 8
f 9 7 8
f 8 7 6
f 14 11 18
f 20 17 16
f 14 20 16
f 16 17 15
f 16 15 14
f 22 24 30
f 40 41 38
f 38 39 40
f 40 39 42
f 42 41 40
f 36 5 31
f 31 34 36
f 27 29 30
f 30 24 27
f 28 29 27
f 24 28 27
f 23 26 25
f 25 24 23
f 25 26 28
f 25 28 24
f 38 10 37
f 37 39 38
f 45 46 50
f 50 48 45
f 43 45 48
f 43 42 35
f 43 47 42
f 48 47 43
f 20 30 50
f 50 46 20
f 35 42 39
f 39 34 35
f 11 4 7
f 7 9 23
f 7 4 3
f 7 23 11
f 3 1 7
f 7 1 6
f 17 43 35
f 17 4 11
f 17 5 1
f 46 43 17
f 1 4 17
f 17 20 46
f 11 12 17
f 17 12 15
f 35 32 17
f 31 5 17
f 17 32 31
f 1 5 10
f 6 1 10
f 26 41 42
f 26 47 50
f 50 30 26
f 26 9 6
f 6 10 26
f 42 47 26
f 23 9 26
f 30 29 26
f 38 41 26
f 26 10 38
f 26 29 28
f 11 23 18
f 23 21 18
f 18 24 14
f 18 21 24
f 30 20 22
f 20 19 22
f 14 24 22
f 22 19 14
f 37 10 5
f 5 36 37
f 34 39 37
f 37 36 34

