# https://github.com/mikedh/trimesh
v -0.01400000000000000 -0.00249999995451328 -0.00433012707284964
v -0.01400000000000000 -0.00353553385954257 -0.00353553397707022
v -0.01400000000000000 -0.00482962913732883 -0.00129409511140860
v -0.01400000000000000 -0.00433012707453128 -0.00250000007204092
v -0.01450000000000000 -0.00259807629804965 -0.00150000007204092
v -0.01450000000000000 -0.00289777751188632 -0.00077645738176382
v -0.01550000000000000 -0.00259807629804965 -0.00150000007204092
v -0.01550000000000000 -0.00289777751188632 -0.00077645738176382
v -0.01400000000000000 -0.00129409547071811 -0.00482962913564718
v -0.01450000000000000 -0.00149999995451328 -0.00259807617715872
v -0.01550000000000000 -0.00149999995451328 -0.00259807617715872
v -0.01400000000000000 -0.00083722253065464 -0.00420900256685293
v -0.01400000000000000 0.00000000004548672 -0.00500000007204092
v -0.01450000000000000 -0.00077645726423618 -0.00289777739099539
v -0.01400000000000000 -0.00034289307813999 -0.00348145134500540
v -0.01450000000000000 0.00000000004548672 -0.00300000007204092
v -0.01550000000000000 -0.00077645726423618 -0.00289777739099539
v -0.01550000000000000 0.00000000004548672 -0.00300000007204092
v -0.01450000000000000 -0.00212132044058200 -0.00212132031969107
v -0.01400000000000000 -0.00129903836470005 -0.00075000007204092
v -0.01400000000000000 -0.00144888873319980 -0.00038822848848379
v -0.01450000000000000 -0.00129903836470005 -0.00075000007204092
v -0.01450000000000000 -0.00144888873319980 -0.00038822848848379
v -0.01550000000000000 -0.00212132044058200 -0.00212132031969107
v -0.01400000000000000 -0.00074999995451328 -0.00129903800539053
v -0.01450000000000000 -0.00074999995451328 -0.00129903800539053
v -0.01400000000000000 -0.00038822884779331 -0.00144888885072745
v -0.01400000000000000 0.00000000004548672 -0.00150000007204092
v -0.01450000000000000 -0.00038822884779331 -0.00144888885072745
v -0.01450000000000000 0.00000000004548672 -0.00150000007204092
v -0.01400000000000000 -0.00106066031675693 -0.00106066043428457
v -0.01450000000000000 -0.00106066031675693 -0.00106066043428457
v -0.01400000000000000 -0.00500000007372257 -0.00000000007204092
v -0.01400000000000000 -0.00482962913732883 0.00129409496732675
v -0.01450000000000000 -0.00299999995451328 -0.00000000007204092
v -0.01450000000000000 -0.00289777751188632 0.00077645723768198
v -0.01450000000000000 -0.00259807629804965 0.00149999992795908
v -0.01550000000000000 -0.00299999995451328 -0.00000000007204092
v -0.01550000000000000 -0.00289777751188632 0.00077645723768198
v -0.01550000000000000 -0.00259807629804965 0.00149999992795908
v -0.01400000000000000 -0.00433012707453128 0.00249999992795908
v -0.01400000000000000 -0.00353553385954257 0.00353553383298838
v -0.01400000000000000 -0.00249999995451328 0.00433012669034922
v -0.01400000000000000 -0.00149999995451328 -0.00000000007204092
v -0.01400000000000000 -0.00144888873319980 0.00038822834440195
v -0.01400000000000000 -0.00129903836470005 0.00074999992795908
v -0.01450000000000000 -0.00149999995451328 -0.00000000007204092
v -0.01450000000000000 -0.00144888873319980 0.00038822834440195
v -0.01450000000000000 -0.00129903836470005 0.00074999992795908
v -0.01450000000000000 -0.00212132044058200 0.00212132065244638
v -0.01550000000000000 -0.00212132044058200 0.00212132065244638
v -0.01400000000000000 -0.00106066031675693 0.00106066029020273
v -0.01450000000000000 -0.00106066031675693 0.00106066029020273
v -0.01400000000000000 -0.00074999995451328 0.00129903786130869
v -0.01450000000000000 -0.00074999995451328 0.00129903786130869
v -0.01400000000000000 -0.00038822884779331 0.00144888870664560
v -0.01400000000000000 0.00000000004548672 0.00149999992795908
v -0.01450000000000000 -0.00038822884779331 0.00144888870664560
v -0.01450000000000000 0.00000000004548672 0.00149999992795908
v -0.01450000000000000 -0.00149999995451328 0.00259807579465830
v -0.01400000000000000 -0.00129409547071811 0.00482962887235605
v -0.01550000000000000 -0.00149999995451328 0.00259807579465830
v -0.01450000000000000 -0.00077645726423618 0.00289777748533213
v -0.01450000000000000 0.00000000004548672 0.00299999992795908
v -0.01400000000000000 0.00000000004548672 0.00499999992795908
v -0.01550000000000000 -0.00077645726423618 0.00289777748533213
v -0.01550000000000000 0.00000000004548672 0.00299999992795908
v -0.01850000000000000 -0.00383022232275363 -0.00321393806985892
v -0.01750000000000000 -0.00249999995451328 -0.00433012707284964
v -0.01750000000000000 -0.00353553385954257 -0.00353553397707022
v -0.01850000000000000 -0.00321393819074985 -0.00383022220186270
v -0.01850000000000000 -0.00249999995451328 -0.00433012707284964
v -0.01750000000000000 -0.00482962913732883 -0.00129409511140860
v -0.01750000000000000 -0.00433012707453128 -0.00250000007204092
v -0.01850000000000000 -0.00469846315603610 -0.00171010072282828
v -0.01850000000000000 -0.00433012707453128 -0.00250000007204092
v -0.01850000000000000 -0.00492403884153720 -0.00086824090532339
v -0.02050000000000000 -0.00453289659242984 -0.00157887609056509
v -0.02050000000000000 -0.00425331194620487 -0.00222471077493704
v -0.02050000000000000 -0.00471504159193393 -0.00089910180620230
v -0.02050000000000000 -0.00479583151560184 -0.00019999988130606
v -0.01750000000000000 -0.00129409547071811 -0.00482962913564718
v -0.01850000000000000 -0.00171010060530063 -0.00469846315435446
v -0.01750000000000000 0.00000000004548672 -0.00500000007204092
v -0.01850000000000000 -0.00086824078779575 -0.00492403883985556
v -0.01850000000000000 0.00000000004548672 -0.00500000007204092
v -0.01850000000000000 -0.00064320225935337 -0.00037135274461783
v -0.01850000000000000 -0.00059956736784336 -0.00033846576265371
v -0.01850000000000000 -0.00068847365599033 -0.00000666339448965
v -0.01850000000000000 -0.00063832946043369 -0.00002621276430166
v -0.01850000000000000 -0.00059559817533847 -0.00005735070756949
v -0.01850000000000000 -0.00037135310392734 -0.00064320237688101
v -0.01850000000000000 0.00000000004548672 -0.00074270589403189
v -0.01850000000000000 -0.00000666375379917 -0.00068847329668081
v -0.01850000000000000 -0.00002621264677402 -0.00063832910112417
v -0.01850000000000000 -0.00033846612196323 -0.00059956748537100
v -0.01850000000000000 -0.00029646392088291 -0.00056591565660513
v -0.01850000000000000 -0.00056591553907749 -0.00029646403841055
v -0.01850000000000000 -0.00054447884779331 -0.00024813182405508
v -0.01850000000000000 -0.00053667731504795 -0.00019667489580191
v -0.01850000000000000 -0.00054302973966953 -0.00014550454668081
v -0.01850000000000000 -0.00056311364393589 -0.00009801347307242
v -0.01850000000000000 -0.00024813218336460 -0.00054447848848379
v -0.01850000000000000 -0.00019667477827426 -0.00053667743257559
v -0.01850000000000000 -0.00014550442915317 -0.00054302985719717
v -0.01850000000000000 -0.00009801335554477 -0.00056311376146353
v -0.01850000000000000 -0.00005735059004184 -0.00059559829286612
v -0.02050000000000000 -0.00222471065740940 -0.00425331194452322
v -0.02050000000000000 -0.00157887597303745 -0.00453289647153891
v -0.02050000000000000 -0.00089910168867465 -0.00471504147104300
v -0.02050000000000000 -0.00020000024061557 -0.00479583151392019
v -0.02050000000000000 -0.00138961215238925 -0.00057135303072012
v -0.02050000000000000 -0.00134597726087924 -0.00053846604875601
v -0.02050000000000000 -0.00131232590895053 -0.00049646384767569
v -0.02050000000000000 -0.00129088874082920 -0.00044813211015738
v -0.02050000000000000 -0.00128308768492099 -0.00039667470506704
v -0.02050000000000000 -0.00128943963270542 -0.00034550435594595
v -0.02050000000000000 -0.00148911614637729 -0.00019999988130606
v -0.02050000000000000 -0.00143488354902622 -0.00020666368059195
v -0.02050000000000000 -0.00138473935346958 -0.00022621257356680
v -0.02050000000000000 -0.00134200854521152 -0.00025735051683462
v -0.02050000000000000 -0.00130952401380893 -0.00029801328233755
v -0.02050000000000000 -0.00057135291319248 -0.00138961226991690
v -0.02050000000000000 -0.00053846593122837 -0.00134597737840689
v -0.02050000000000000 -0.00049646373014804 -0.00131232602647818
v -0.02050000000000000 -0.00044813199262973 -0.00129088885835684
v -0.02050000000000000 -0.00039667506437656 -0.00128308780244864
v -0.02050000000000000 -0.00034550423841831 -0.00128943975023306
v -0.02050000000000000 -0.00029801316480991 -0.00130952413133658
v -0.02050000000000000 -0.00020000024061557 -0.00148911626390494
v -0.02050000000000000 -0.00020666356306430 -0.00143488366655386
v -0.02050000000000000 -0.00022621245603916 -0.00138473947099722
v -0.02050000000000000 -0.00025735087614414 -0.00134200866273916
v -0.01750000000000000 -0.00500000007372257 -0.00000000007204092
v -0.01750000000000000 -0.00482962913732883 0.00129409496732675
v -0.01850000000000000 -0.00500000007372257 -0.00000000007204092
v -0.01850000000000000 -0.00492403884153720 0.00086824076124155
v -0.01850000000000000 -0.00469846315603610 0.00171010057874643
v -0.01750000000000000 -0.00433012707453128 0.00249999992795908
v -0.01850000000000000 -0.00433012707453128 0.00249999992795908
v -0.01850000000000000 -0.00383022232275363 0.00321393768735849
v -0.01750000000000000 -0.00353553385954257 0.00353553383298838
v -0.01750000000000000 -0.00249999995451328 0.00433012669034922
v -0.01850000000000000 -0.00321393819074985 0.00383022205778086
v -0.01850000000000000 -0.00249999995451328 0.00433012669034922
v -0.02050000000000000 -0.00405331201773044 0.00257112114377939
v -0.02050000000000000 -0.00363379497747776 0.00313616554685556
v -0.02050000000000000 -0.00313616557340976 0.00363379471250498
v -0.02050000000000000 -0.00257112093191501 0.00405331222959482
v -0.01850000000000000 -0.00074270577650424 -0.00000000007204092
v -0.01850000000000000 -0.00064320225935337 0.00037135307737314
v -0.01850000000000000 -0.00059290356855747 0.00035000746198618
v -0.01850000000000000 -0.00053970332365390 0.00034186546750986
v -0.01850000000000000 -0.00048712773542758 0.00034746639677011
v -0.01850000000000000 -0.00043866439085361 0.00036643879362070
v -0.01850000000000000 -0.00039752526502964 0.00039752523847544
v -0.01850000000000000 -0.00036643882017490 0.00043866436429941
v -0.01850000000000000 -0.00034746642332431 0.00048712770887338
v -0.01850000000000000 -0.00035000748854038 0.00059290354200327
v -0.01850000000000000 -0.00034186549406406 0.00053970282026255
v -0.01850000000000000 -0.00037135310392734 0.00064320223279917
v -0.01850000000000000 0.00000666336793545 0.00068847315259897
v -0.01850000000000000 0.00002621226091031 0.00063832943387949
v -0.01850000000000000 0.00000000004548672 0.00074270574995005
v -0.01750000000000000 -0.00129409547071811 0.00482962887235605
v -0.01850000000000000 -0.00171010060530063 0.00469846336790048
v -0.01750000000000000 0.00000000004548672 0.00499999992795908
v -0.01850000000000000 -0.00086824078779575 0.00492403881498300
v -0.01850000000000000 0.00000000004548672 0.00499999992795908
v -0.02050000000000000 -0.00118961234312412 0.00091776316114389
v -0.02050000000000000 -0.00113931365232822 0.00089641754575693
v -0.02050000000000000 -0.00108611340742465 0.00088827555128061
v -0.02050000000000000 -0.00103353829603549 0.00089387648054087
v -0.02050000000000000 -0.00098507447462436 0.00091284887739145
v -0.02050000000000000 -0.00094393534880039 0.00094393532224619
v -0.02050000000000000 -0.00091284890394565 0.00098507444807016
v -0.02050000000000000 -0.00091776318769809 0.00118961231656992
v -0.02050000000000000 -0.00089387650709507 0.00103353826948130
v -0.02050000000000000 -0.00088827557783481 0.00108611338087046
v -0.02050000000000000 -0.00089641757231113 0.00113931362577402
v -0.01400000000000000 0.00100296454209927 -0.00500000007204092
v -0.01450000000000000 0.00077645687837246 -0.00289777739099539
v -0.01550000000000000 0.00077645687837246 -0.00289777739099539
v -0.01400000000000000 0.00148045162934903 -0.00488039572290457
v -0.01400000000000000 0.00195168547410611 -0.00471178562692679
v -0.01400000000000000 0.00240412382859829 -0.00449779839567221
v -0.01450000000000000 0.00150000004548672 -0.00259807617715872
v -0.01550000000000000 0.00150000004548672 -0.00259807617715872
v -0.01400000000000000 0.00038822846192959 -0.00144888885072745
v -0.01450000000000000 0.00038822846192959 -0.00144888885072745
v -0.01400000000000000 0.00075000004548672 -0.00129903800539053
v -0.01450000000000000 0.00075000004548672 -0.00129903800539053
v -0.01400000000000000 0.00106065993089322 -0.00106066043428457
v -0.01400000000000000 0.00129903797883633 -0.00075000007204092
v -0.01450000000000000 0.00106065993089322 -0.00106066043428457
v -0.01450000000000000 0.00129903797883633 -0.00075000007204092
v -0.01450000000000000 0.00212132029313687 -0.00212132031969107
v -0.01400000000000000 0.00144888882417325 -0.00038822848848379
v -0.01450000000000000 0.00144888882417325 -0.00038822848848379
v -0.01550000000000000 0.00212132029313687 -0.00212132031969107
v -0.01400000000000000 0.00283340792436245 -0.00424049503854788
v -0.01400000000000000 0.00323540549058560 -0.00394235332063711
v -0.01400000000000000 0.00360624460954312 -0.00360624463609732
v -0.01400000000000000 0.00394235377092007 -0.00323540575555838
v -0.01400000000000000 0.00424049525041226 -0.00283340818933523
v -0.01450000000000000 0.00259807638902310 -0.00150000007204092
v -0.01450000000000000 0.00289777712602261 -0.00077645738176382
v -0.01550000000000000 0.00259807638902310 -0.00150000007204092
v -0.01550000000000000 0.00289777712602261 -0.00077645738176382
v -0.01400000000000000 0.00449779848832730 -0.00240412337831534
v -0.01400000000000000 0.00471178583879116 -0.00195168550066031
v -0.01400000000000000 0.00488039545793179 -0.00148045165590323
v -0.01400000000000000 0.00500200514573697 -0.00099496085695303
v -0.01400000000000000 0.00507544188279751 -0.00049988753847159
v -0.01400000000000000 0.00129903797883633 0.00074999992795908
v -0.01400000000000000 0.00106065993089322 0.00106066029020273
v -0.01450000000000000 0.00129903797883633 0.00074999992795908
v -0.01450000000000000 0.00106065993089322 0.00106066029020273
v -0.01400000000000000 0.00038822846192959 0.00144888870664560
v -0.01450000000000000 0.00038822846192959 0.00144888870664560
v -0.01400000000000000 0.00075000004548672 0.00129903786130869
v -0.01450000000000000 0.00075000004548672 0.00129903786130869
v -0.01400000000000000 0.00150000004548672 -0.00000000007204092
v -0.01400000000000000 0.00144888882417325 0.00038822834440195
v -0.01450000000000000 0.00150000004548672 -0.00000000007204092
v -0.01450000000000000 0.00144888882417325 0.00038822834440195
v -0.01450000000000000 0.00212132029313687 0.00212132065244638
v -0.01550000000000000 0.00212132029313687 0.00212132065244638
v -0.01450000000000000 0.00077645687837246 0.00289777748533213
v -0.01400000000000000 0.00100296358842495 0.00499999992795908
v -0.01550000000000000 0.00077645687837246 0.00289777748533213
v -0.01450000000000000 0.00150000004548672 0.00259807579465830
v -0.01400000000000000 0.00148045162934903 0.00488039581724131
v -0.01400000000000000 0.00195168547410611 0.00471178524442636
v -0.01400000000000000 0.00240412382859829 0.00449779884763681
v -0.01550000000000000 0.00150000004548672 0.00259807579465830
v -0.01450000000000000 0.00299999956864956 -0.00000000007204092
v -0.01450000000000000 0.00289777712602261 0.00077645723768198
v -0.01450000000000000 0.00259807638902310 0.00149999992795908
v -0.01550000000000000 0.00299999956864956 -0.00000000007204092
v -0.01550000000000000 0.00289777712602261 0.00077645723768198
v -0.01550000000000000 0.00259807638902310 0.00149999992795908
v -0.01400000000000000 0.00509999995011929 -0.00000000007204092
v -0.01400000000000000 0.00507544188279751 0.00049988739438974
v -0.01400000000000000 0.00500200514573697 0.00099496071287119
v -0.01400000000000000 0.00488039545793179 0.00148045198865854
v -0.01400000000000000 0.00471178583879116 0.00195168535657846
v -0.01400000000000000 0.00449779848832730 0.00240412323423349
v -0.01400000000000000 0.00360624460954312 0.00360624496885263
v -0.01400000000000000 0.00283340792436245 0.00424049465604746
v -0.01400000000000000 0.00323540549058560 0.00394235317655527
v -0.01400000000000000 0.00424049525041226 0.00283340828367197
v -0.01400000000000000 0.00394235377092007 0.00323540584989511
v -0.01750000000000000 0.00129409508485440 -0.00482962913564718
v -0.01850000000000000 0.00086824087876919 -0.00492403883985556
v -0.01750000000000000 0.00249999956864956 -0.00433012707284964
v -0.01850000000000000 0.00171010069627408 -0.00469846315435446
v -0.01850000000000000 0.00249999956864956 -0.00433012707284964
v -0.01850000000000000 0.00037135271806363 -0.00064320237688101
v -0.01850000000000000 0.00035000757951382 -0.00059290368608511
v -0.01850000000000000 0.00034186510820034 -0.00053970296434439
v -0.01850000000000000 0.00034746603746060 -0.00048712785295523
v -0.01850000000000000 0.00036643891114834 -0.00043866403154410
v -0.01850000000000000 0.00039752535600308 -0.00039752538255728
v -0.01850000000000000 0.00043866400498990 -0.00036643893770254
v -0.01850000000000000 0.00048712782640103 -0.00034746606401480
v -0.01850000000000000 0.00053970293779019 -0.00034186561159170
v -0.01850000000000000 0.00059290365953091 -0.00035000760606802
v -0.01850000000000000 0.00064320187348965 -0.00037135274461783
v -0.02050000000000000 0.00257112078446988 -0.00405331201604879
v -0.02050000000000000 0.00091776327867154 -0.00118961246065176
v -0.02050000000000000 0.00089641766328457 -0.00113931376985586
v -0.02050000000000000 0.00088827566880826 -0.00108611304811514
v -0.02050000000000000 0.00089387659806851 -0.00103353793672598
v -0.02050000000000000 0.00091284899491909 -0.00098507459215201
v -0.02050000000000000 0.00094393543977383 -0.00094393546632803
v -0.02050000000000000 0.00098507408876065 -0.00091284902147329
v -0.02050000000000000 0.00103353791017178 -0.00089387662462271
v -0.02050000000000000 0.00108611302156094 -0.00088827569536245
v -0.02050000000000000 0.00113931374330166 -0.00089641768983877
v -0.02050000000000000 0.00118961243409756 -0.00091776330522574
v -0.01750000000000000 0.00353553347367886 -0.00353553397707022
v -0.01850000000000000 0.00321393828172329 -0.00383022220186270
v -0.01850000000000000 0.00383022169847134 -0.00321393806985892
v -0.01750000000000000 0.00433012728471402 -0.00250000007204092
v -0.01750000000000000 0.00482962946672085 -0.00129409511140860
v -0.01850000000000000 0.00433012728471402 -0.00250000007204092
v -0.01850000000000000 0.00469846300859097 -0.00171010072282828
v -0.01850000000000000 0.00492403845567349 -0.00086824090532339
v -0.02050000000000000 0.00313616518754605 -0.00363379485658682
v -0.02050000000000000 0.00363379530686978 -0.00313616569093741
v -0.02050000000000000 0.00405331187028531 -0.00257112081102408
v -0.01850000000000000 0.00005735068101529 0.00059559814878427
v -0.01850000000000000 0.00009801344651822 0.00056311361738169
v -0.01850000000000000 0.00014550452012661 0.00054302971311533
v -0.01850000000000000 0.00019667486924771 0.00053667728849375
v -0.01850000000000000 0.00024813179750088 0.00054447834440195
v -0.01850000000000000 0.00029646401185635 0.00056591551252329
v -0.01850000000000000 0.00033846573609951 0.00059956734128916
v -0.01850000000000000 0.00059559826631192 0.00005735056348764
v -0.01850000000000000 0.00054302935380581 0.00014550440259897
v -0.01850000000000000 0.00056311373490933 0.00009801332899057
v -0.01850000000000000 0.00063832907456997 0.00002621262021982
v -0.01850000000000000 0.00053667740602139 0.00019667475172006
v -0.01850000000000000 0.00054447846192959 0.00024813215681040
v -0.01850000000000000 0.00056591563005093 0.00029646389432871
v -0.01850000000000000 0.00059956698197964 0.00033846561857187
v -0.01850000000000000 0.00064320187348965 0.00037135307737314
v -0.01850000000000000 0.00037135271806363 0.00064320223279917
v -0.01850000000000000 0.00068847327012661 0.00000666372724497
v -0.01850000000000000 0.00074270586747769 -0.00000000007204092
v -0.01750000000000000 0.00129409508485440 0.00482962887235605
v -0.01850000000000000 0.00086824087876919 0.00492403881498300
v -0.01750000000000000 0.00249999956864956 0.00433012669034922
v -0.01850000000000000 0.00171010069627408 0.00469846336790048
v -0.01850000000000000 0.00249999956864956 0.00433012669034922
v -0.02050000000000000 0.00130952410478238 0.00029801313825571
v -0.02050000000000000 0.00128943972367886 0.00034550421186411
v -0.02050000000000000 0.00128308777589444 0.00039667503782236
v -0.02050000000000000 0.00129088883180264 0.00044813196607553
v -0.02050000000000000 0.00131232552308682 0.00049646370359384
v -0.02050000000000000 0.00020666365403775 0.00143488352247202
v -0.02050000000000000 0.00019999985475186 0.00148911611982309
v -0.02050000000000000 0.00022621254701260 0.00138473932691538
v -0.02050000000000000 0.00025735049028042 0.00134200851865732
v -0.02050000000000000 0.00029801325578335 0.00130952398725473
v -0.02050000000000000 0.00034550432939175 0.00128943960615122
v -0.02050000000000000 0.00039667467851284 0.00128308765836679
v -0.02050000000000000 0.00044813208360318 0.00129088871427500
v -0.02050000000000000 0.00049646382112149 0.00131232588239633
v -0.02050000000000000 0.00053846602220181 0.00134597723432505
v -0.02050000000000000 0.00057135300416592 0.00138961212583505
v -0.02050000000000000 0.00138473944444302 0.00022621242948496
v -0.02050000000000000 0.00134200815934781 0.00025735084958994
v -0.02050000000000000 0.00143488363999966 0.00020666353651010
v -0.02050000000000000 0.00148911576051358 0.00019999973722422
v -0.02050000000000000 0.00134597735185269 0.00053846590467417
v -0.02050000000000000 0.00138961224336270 0.00057135288663828
v -0.02050000000000000 0.00019999985475186 0.00479583160825693
v -0.02050000000000000 0.00089910130281094 0.00471504108854257
v -0.02050000000000000 0.00157887606401089 0.00453289692350351
v -0.02050000000000000 0.00222471098680142 0.00425331203885996
v -0.01750000000000000 0.00499999956864956 -0.00000000007204092
v -0.01750000000000000 0.00482962946672085 0.00129409496732675
v -0.01850000000000000 0.00499999956864956 -0.00000000007204092
v -0.01850000000000000 0.00492403845567349 0.00086824076124155
v -0.01850000000000000 0.00469846300859097 0.00171010057874643
v -0.01750000000000000 0.00353553347367886 0.00353553383298838
v -0.01850000000000000 0.00383022169847134 0.00321393768735849
v -0.01850000000000000 0.00321393828172329 0.00383022205778086
v -0.01750000000000000 0.00433012728471402 0.00249999992795908
v -0.01850000000000000 0.00433012728471402 0.00249999992795908
v -0.02050000000000000 0.00479583124894741 0.00019999973722422
v -0.02050000000000000 0.00471504168290738 0.00089910166212046
v -0.02050000000000000 0.00425331167955044 0.00222471039243662
v -0.02050000000000000 0.00453289656419400 0.00157887594648325
f 3 33 21
f 4 3 20
f 2 4 25
f 3 21 20
f 21 33 44
f 5 8 7
f 5 6 8
f 6 35 38
f 6 38 8
f 70 24 74
f 69 11 70
f 74 7 73
f 73 8 134
f 74 24 7
f 73 7 8
f 8 38 134
f 1 2 27
f 9 1 27
f 14 10 11
f 9 28 12
f 28 13 15
f 28 15 12
f 9 27 28
f 14 11 17
f 14 17 16
f 17 18 16
f 4 20 31
f 4 31 25
f 19 22 5
f 2 25 27
f 10 32 19
f 19 32 22
f 5 23 6
f 6 47 35
f 6 23 47
f 31 20 22
f 20 23 22
f 20 21 23
f 21 44 47
f 21 47 23
f 5 22 23
f 19 7 24
f 10 19 24
f 19 5 7
f 10 24 11
f 25 26 27
f 14 26 10
f 14 29 26
f 10 26 32
f 26 29 27
f 28 27 29
f 28 29 30
f 14 30 29
f 14 16 30
f 25 31 32
f 31 22 32
f 25 32 26
f 70 11 24
f 69 17 11
f 82 17 69
f 82 18 17
f 82 84 18
f 33 34 45
f 33 45 44
f 45 34 46
f 46 34 41
f 54 41 42
f 35 36 39
f 35 39 38
f 36 40 39
f 36 37 40
f 38 135 134
f 39 139 135
f 38 39 135
f 39 40 139
f 40 51 142
f 40 142 139
f 51 143 142
f 35 47 36
f 47 48 36
f 48 37 36
f 44 45 48
f 44 48 47
f 45 49 48
f 45 46 49
f 46 53 49
f 48 49 37
f 46 41 52
f 52 41 54
f 49 50 37
f 54 42 56
f 49 53 50
f 53 60 50
f 37 51 40
f 37 50 51
f 50 62 51
f 50 60 62
f 46 52 53
f 52 55 53
f 52 54 55
f 54 58 55
f 53 55 60
f 55 63 60
f 55 58 63
f 54 56 58
f 56 57 59
f 56 59 58
f 58 64 63
f 58 59 64
f 56 42 43
f 56 43 61
f 60 66 62
f 56 61 57
f 60 63 66
f 63 67 66
f 63 64 67
f 51 62 143
f 62 165 143
f 62 66 165
f 66 67 167
f 66 167 165
f 70 74 68
f 68 74 76
f 69 70 71
f 69 71 72
f 71 70 68
f 74 73 75
f 73 134 77
f 74 75 76
f 75 73 77
f 77 134 136
f 68 76 87
f 76 75 79
f 75 77 78
f 77 136 81
f 79 75 78
f 78 77 80
f 77 81 80
f 81 136 118
f 76 79 112
f 79 78 112
f 78 80 112
f 80 81 118
f 80 118 112
f 82 69 83
f 83 69 72
f 85 82 83
f 71 68 92
f 72 71 92
f 85 84 82
f 85 86 84
f 68 87 92
f 92 87 96
f 87 88 96
f 97 88 98
f 103 98 99
f 104 99 100
f 96 88 97
f 97 98 103
f 103 99 104
f 105 104 100
f 105 100 101
f 106 105 263
f 105 101 264
f 83 72 108
f 83 108 109
f 83 109 110
f 72 123 108
f 109 108 123
f 85 83 110
f 85 111 86
f 85 110 111
f 86 111 130
f 110 109 130
f 110 130 111
f 76 112 87
f 118 136 150
f 118 150 119
f 112 118 113
f 113 118 114
f 114 118 115
f 115 118 116
f 116 118 117
f 122 118 121
f 118 119 120
f 121 118 120
f 117 118 122
f 72 92 123
f 86 130 93
f 90 120 89
f 89 119 150
f 87 113 88
f 114 98 88
f 115 99 98
f 116 100 99
f 117 102 101
f 117 101 100
f 90 91 121
f 122 91 102
f 124 92 96
f 125 96 97
f 126 97 103
f 127 103 104
f 131 94 93
f 128 104 105
f 128 105 106
f 129 106 107
f 133 107 95
f 132 95 94
f 109 123 130
f 123 124 125
f 123 125 126
f 123 126 127
f 123 127 128
f 130 123 131
f 123 128 129
f 123 133 132
f 123 129 133
f 131 123 132
f 87 112 113
f 113 114 88
f 114 115 98
f 115 116 99
f 116 117 100
f 90 121 120
f 122 121 91
f 89 120 119
f 117 122 102
f 123 92 124
f 124 96 125
f 125 97 126
f 126 103 127
f 128 127 104
f 130 131 93
f 132 133 95
f 131 132 94
f 129 128 106
f 133 129 107
f 134 135 137
f 135 139 138
f 134 137 136
f 137 135 138
f 138 139 140
f 136 137 150
f 151 137 138
f 151 138 140
f 139 142 141
f 139 141 140
f 142 143 144
f 141 142 144
f 144 143 145
f 170 140 146
f 170 146 147
f 140 141 146
f 146 141 147
f 141 144 147
f 144 145 149
f 147 144 148
f 170 147 148
f 148 144 149
f 150 137 151
f 89 150 152
f 90 89 153
f 90 153 91
f 89 152 153
f 150 151 152
f 102 91 154
f 101 102 155
f 91 153 154
f 102 154 155
f 101 155 156
f 101 156 301
f 156 157 295
f 157 158 294
f 158 160 293
f 160 159 163
f 157 294 295
f 160 163 293
f 158 293 294
f 159 161 162
f 161 164 162
f 159 162 163
f 161 166 164
f 143 165 166
f 161 145 166
f 143 166 145
f 165 168 166
f 165 167 168
f 164 166 168
f 164 168 169
f 168 167 169
f 151 140 170
f 177 145 161
f 170 148 177
f 151 171 152
f 152 172 153
f 153 173 154
f 154 174 155
f 155 175 156
f 156 175 157
f 157 176 158
f 158 178 160
f 160 179 159
f 159 180 161
f 151 170 171
f 152 171 172
f 153 172 173
f 154 173 174
f 155 174 175
f 157 175 176
f 158 176 178
f 160 178 179
f 159 179 180
f 180 177 161
f 170 177 171
f 172 171 177
f 172 177 173
f 173 177 174
f 174 177 175
f 175 177 176
f 176 177 178
f 178 177 179
f 179 177 180
f 177 149 145
f 177 148 149
f 13 191 181
f 13 28 189
f 13 189 191
f 191 184 181
f 16 18 182
f 18 183 182
f 182 183 187
f 183 188 187
f 191 185 184
f 191 186 185
f 191 201 186
f 191 202 201
f 191 203 202
f 28 30 189
f 30 190 189
f 189 190 191
f 190 192 191
f 16 190 30
f 16 182 190
f 182 192 190
f 182 187 192
f 187 195 192
f 191 192 193
f 192 195 193
f 193 195 194
f 195 196 194
f 191 193 204
f 187 197 195
f 197 196 195
f 193 194 205
f 194 198 205
f 197 206 196
f 194 196 198
f 198 199 223
f 196 199 198
f 199 225 223
f 206 199 196
f 198 223 210
f 206 207 199
f 207 225 199
f 207 237 225
f 187 188 197
f 188 200 197
f 197 200 206
f 200 208 206
f 84 183 18
f 254 188 183
f 84 254 183
f 256 200 188
f 254 256 188
f 191 204 203
f 193 205 204
f 198 210 205
f 223 211 210
f 223 212 211
f 223 213 212
f 206 208 207
f 208 209 207
f 207 209 237
f 209 240 237
f 223 214 213
f 223 243 214
f 256 282 200
f 282 285 208
f 282 208 200
f 208 285 209
f 286 240 209
f 285 286 209
f 286 343 240
f 216 218 221
f 218 222 221
f 215 217 216
f 217 218 216
f 219 220 57
f 220 59 57
f 221 222 219
f 222 220 219
f 220 64 59
f 222 229 220
f 220 229 64
f 218 232 222
f 222 232 229
f 223 225 224
f 224 226 215
f 225 226 224
f 226 217 215
f 226 239 217
f 223 224 247
f 224 215 248
f 225 238 226
f 225 237 238
f 226 238 239
f 217 227 218
f 218 227 232
f 216 221 252
f 215 216 248
f 217 239 227
f 227 228 232
f 228 236 232
f 239 242 227
f 242 228 227
f 219 57 65
f 221 219 65
f 221 230 233
f 221 65 230
f 231 67 64
f 229 231 64
f 232 236 229
f 236 231 229
f 221 233 234
f 221 234 235
f 221 251 249
f 221 235 250
f 221 250 251
f 231 312 67
f 67 312 167
f 236 314 231
f 228 348 236
f 236 348 314
f 231 314 312
f 223 246 245
f 223 247 246
f 221 253 252
f 224 248 247
f 216 252 248
f 237 240 238
f 240 241 238
f 238 241 239
f 241 242 239
f 223 244 243
f 223 245 244
f 221 249 253
f 240 343 241
f 241 344 242
f 242 351 228
f 241 343 344
f 242 344 351
f 228 351 348
f 84 255 254
f 84 86 255
f 255 257 254
f 86 93 255
f 255 93 257
f 254 257 256
f 257 258 256
f 257 259 258
f 257 93 259
f 93 94 259
f 94 95 260
f 94 260 259
f 95 107 261
f 106 262 107
f 106 263 262
f 105 264 263
f 95 261 260
f 107 262 261
f 264 101 301
f 264 301 265
f 265 302 266
f 265 301 302
f 266 300 267
f 269 268 311
f 267 310 268
f 267 300 303
f 266 302 300
f 267 303 310
f 268 310 311
f 269 311 289
f 258 271 270
f 270 271 290
f 258 259 271
f 259 260 272
f 273 260 261
f 274 261 262
f 275 262 263
f 276 263 264
f 276 264 265
f 277 265 266
f 278 266 267
f 279 267 268
f 280 268 269
f 272 260 273
f 259 272 271
f 273 261 274
f 274 262 275
f 275 263 276
f 276 265 277
f 277 266 278
f 278 267 279
f 280 279 268
f 281 280 269
f 271 272 273
f 271 273 274
f 271 274 275
f 271 275 276
f 271 276 277
f 271 277 278
f 271 278 279
f 271 279 280
f 271 280 281
f 287 281 269
f 290 271 281
f 256 283 282
f 256 258 283
f 283 284 282
f 282 284 285
f 284 287 285
f 287 269 288
f 288 269 289
f 289 311 345
f 285 288 286
f 286 289 343
f 285 287 288
f 288 289 286
f 289 345 343
f 258 270 283
f 283 291 284
f 283 270 290
f 290 281 291
f 283 290 291
f 284 292 287
f 291 292 284
f 292 281 287
f 291 281 292
f 301 156 295
f 304 295 296
f 305 296 297
f 301 295 304
f 304 296 305
f 305 297 306
f 306 298 307
f 306 297 298
f 307 298 299
f 308 299 309
f 307 299 308
f 308 309 349
f 312 313 167
f 167 313 169
f 312 315 313
f 314 315 312
f 309 316 350
f 309 350 349
f 314 316 315
f 293 163 325
f 163 162 324
f 294 293 326
f 295 294 327
f 295 327 296
f 296 328 297
f 297 329 298
f 162 164 322
f 298 330 299
f 299 331 309
f 300 302 317
f 302 301 318
f 301 304 318
f 304 305 319
f 303 300 334
f 310 303 333
f 310 335 311
f 305 306 320
f 306 307 321
f 307 308 337
f 164 169 323
f 309 332 316
f 293 325 326
f 162 322 324
f 163 324 325
f 164 323 322
f 294 326 327
f 296 327 328
f 297 328 329
f 298 329 330
f 299 330 331
f 309 331 332
f 302 318 317
f 300 317 334
f 303 334 333
f 310 333 335
f 311 335 336
f 304 319 318
f 305 320 319
f 306 321 320
f 307 337 321
f 308 338 337
f 324 322 332
f 325 324 332
f 332 322 323
f 328 327 332
f 326 325 332
f 327 326 332
f 328 332 329
f 329 332 330
f 330 332 331
f 332 323 341
f 311 336 345
f 308 352 338
f 336 334 317
f 336 317 318
f 336 333 334
f 336 335 333
f 336 318 319
f 336 319 320
f 336 320 321
f 336 321 337
f 336 337 338
f 336 338 354
f 169 313 339
f 313 315 340
f 323 339 340
f 323 340 341
f 323 169 339
f 313 340 339
f 316 342 315
f 332 342 316
f 332 341 342
f 315 341 340
f 342 341 315
f 308 349 352
f 343 346 344
f 344 347 351
f 343 345 346
f 347 352 351
f 346 347 344
f 348 350 314
f 348 349 350
f 350 316 314
f 348 351 349
f 351 352 349
f 336 353 345
f 336 354 353
f 338 356 354
f 338 352 355
f 338 355 356
f 345 353 346
f 347 355 352
f 346 356 347
f 346 354 356
f 353 354 346
f 347 356 355
f 15 4 2
f 15 3 4
f 15 33 3
f 15 34 33
f 15 2 1
f 15 1 9
f 15 9 12
f 15 41 34
f 15 42 41
f 15 43 42
f 15 57 43
f 61 43 57
f 13 181 15
f 15 181 184
f 15 184 185
f 15 185 186
f 15 186 201
f 15 201 202
f 15 202 203
f 15 203 204
f 15 204 205
f 15 205 210
f 15 210 211
f 15 211 212
f 15 212 213
f 15 213 214
f 15 214 243
f 15 245 246
f 15 246 247
f 15 243 244
f 15 244 245
f 15 230 57
f 15 233 230
f 15 234 233
f 15 253 249
f 15 250 235
f 15 251 250
f 15 235 234
f 15 249 251
f 65 57 230
f 15 248 252
f 15 247 248
f 15 252 253

