# https://github.com/mikedh/trimesh
v 0.01077702434126877 0.00994369332938668 -0.00263592703323989
v 0.01077702434126877 0.00994369332938668 -0.00263592703323989
v 0.01082499797408127 0.00991599099784371 -0.00255000002365737
v 0.01082499797408127 0.00991599099784371 -0.00254999978523880
v 0.01082499797408127 0.00991599099784371 -0.00255000002365737
v 0.01059011943404221 0.01005159585624215 -0.00297063620072036
v 0.01059011943404221 0.01005159967093942 -0.00297063596230178
v 0.01058262736861252 0.01005592553763864 -0.00298153955917984
v 0.01067572124068284 0.01000218408256051 -0.00281735117417007
v 0.01001924235884690 0.01038119714408395 -0.00372230679970413
v 0.00968873698775315 0.01057201211600777 -0.00404610199909835
v 0.00950319011275315 0.01067914025931832 -0.00419438607674270
v 0.00952734477583909 0.01066519754081246 -0.00255929191094070
v 0.00855578715865159 0.01122611825614449 -0.00477312023621231
v 0.00855578715865159 0.01122612207084176 -0.00477312011700302
v 0.00855578715865159 0.01122611825614449 -0.00477312023621231
v 0.00884660441939377 0.01105821817069528 -0.00462754626255661
v 0.00854904277388596 0.01180736749320504 -0.00259807617645889
v 0.01094505412642502 0.00984667794852731 -0.00228011543732315
v 0.01086926372115159 0.00989044015555856 -0.00245050723534256
v 0.01086926372115159 0.00989044015555856 -0.00245050723534256
v 0.01102304179732346 0.00980165307670113 -0.00210480577927261
v 0.01102304179732346 0.00980165307670113 -0.00210480577927261
v 0.01118232829634690 0.00970968454032418 -0.00163934142571121
v 0.01118232829634690 0.00970968835502145 -0.00163934094887405
v 0.01130134685103440 0.00964097039847848 -0.00115808875542312
v 0.01130134685103440 0.00964097421317574 -0.00115808827858596
v 0.01137893779341721 0.00959617059379098 -0.00066568381767898
v 0.01137893779341721 0.00959617440848824 -0.00066568334084182
v 0.01141436870162034 0.00957572000174996 -0.00016686732750564
v 0.01141436870162034 0.00957572000174996 -0.00016686732750564
v 0.00920271403853440 0.01085262124686715 -0.00115243251305252
v 0.00920271403853440 0.01085262124686715 -0.00115243251305252
v 0.00920271403853440 0.01085262124686715 -0.00115243251305252
v 0.01025955302779221 0.01197450463920114 -0.00077645738106399
v 0.00950000102583909 0.01125832955985543 -0.00150000007134109
v 0.00908711345259690 0.01149670999198434 -0.00212132031899124
v 0.00884228618208908 0.01106071298270699 -0.00126008136253982
v 0.01000000102583909 0.01212435739188668 -0.00150000007134109
v 0.00975955302779221 0.01110848062186715 -0.00077645738106399
v 0.00885882670943284 0.01105116479545113 -0.00123921353798538
v 0.00885882670943284 0.01105116479545113 -0.00123921353798538
v 0.01181186015669846 0.01338767831473824 -0.00353553397637039
v 0.01203335673872971 0.01441449945121285 -0.00383022220116287
v 0.01256706340376877 0.01410635965018746 -0.00321393806915908
v 0.01293258769576096 0.01274062936454293 -0.00129409511070877
v 0.01250000102583908 0.01299038140922067 -0.00250000007134109
v 0.01300000102583908 0.01385640542655465 -0.00250000007134109
v 0.01331898601119065 0.01367223947196481 -0.00171010072212844
v 0.01351434428755783 0.01355945031791207 -0.00086824090462356
v 0.00904904277388596 0.01267339532523629 -0.00259807617645889
v 0.01091507060591721 0.01390544335990426 -0.00433012707214981
v 0.01141507060591721 0.01477147119193551 -0.00433012707214981
v 0.00987071330611252 0.01450839822440621 -0.00482962913494735
v 0.00958711345259690 0.01236273400931832 -0.00212132031899124
v 0.01140727336470627 0.00957981698661324 0.00033355610389084
v 0.01140727336470627 0.00957981698661324 0.00033355610389084
v 0.01140727336470627 0.00957981698661324 0.00033355610389084
v 0.01139230449263596 0.00958845727591988 0.00048378651160569
v 0.01126623637740158 0.00966124551444528 0.00131997721213669
v 0.01126623637740158 0.00966124551444528 0.00131997721213669
v 0.01113363750044846 0.00973779504447457 0.00179647533912034
v 0.01113363750044846 0.00973779885917184 0.00179647581595749
v 0.01096124370162034 0.00983733194022652 0.00225567238349289
v 0.01096124370162034 0.00983733194022652 0.00225567238349289
v 0.01094818217818284 0.00984487359672067 0.00228281013984055
v 0.00968110759322190 0.01057641809134957 0.00051113216895432
v 0.00968110759322190 0.01057641809134957 0.00051113216895432
v 0.00992302043501877 0.01043675439506051 0.00170411961097092
v 0.00946728618208909 0.01069986932425973 0.00140496151465744
v 0.01034808452193283 0.01192339532523629 -0.00000000007134109
v 0.01025955302779221 0.01197450463920114 0.00077645723838181
v 0.00984808452193284 0.01105736749320504 -0.00000000007134109
v 0.00975955302779221 0.01110848062186715 0.00077645723838181
v 0.00854904277388596 0.01180736749320504 -0.00000000007134109
v 0.00950000102583909 0.01125832955985543 0.00149999992865891
v 0.00908711345259690 0.01149670999198434 0.00212132065314621
v 0.01000000102583909 0.01212435739188668 0.00149999992865891
v 0.01050402934615158 0.01010130517631051 0.00310468285102219
v 0.01050402934615158 0.01010130517631051 0.00310468285102219
v 0.01033038432662033 0.01020156304984567 0.00283684341925950
v 0.01028900249068283 0.01022545068412301 0.00339732830542893
v 0.01018295390669846 0.01028667657523629 0.00250339691657395
v 0.00996765239302659 0.01041098230033395 0.00320949738044114
v 0.00991215617720627 0.01044302194266793 0.00383438293952317
v 0.00957264812056565 0.01063903634696481 0.00414551823157639
v 0.00957264812056565 0.01063903634696481 0.00414551823157639
v 0.00920835979048752 0.01084935586600778 0.00441672985572190
v 0.00920835979048752 0.01084935968070504 0.00441672985572190
v 0.00854904277388596 0.01180736749320504 0.00259807579535813
v 0.00882281596724534 0.01107195108085153 0.00464540569800705
v 0.00882281596724534 0.01107195489554879 0.00464540569800705
v 0.01308012492720627 0.01265544335990426 -0.00000000007134109
v 0.01358012492720627 0.01352147119193551 -0.00000000007134109
v 0.01293258769576096 0.01274062936454293 0.00129409496802659
v 0.01351434428755783 0.01355945031791207 0.00086824076194138
v 0.01331898601119065 0.01367223947196481 0.00171010057944626
v 0.01250000102583908 0.01299038140922067 0.00249999992865891
v 0.01181186015669846 0.01338767831473824 0.00353553383368821
v 0.01300000102583908 0.01385640542655465 0.00249999992865891
v 0.01256706340376877 0.01410635965018746 0.00321393768805832
v 0.01203335673872971 0.01441449945121285 0.00383022205848069
v 0.00958711345259690 0.01236273400931832 0.00212132065314621
v 0.00904904277388596 0.01267339532523629 0.00259807579535813
v 0.01091507060591721 0.01390544335990426 0.00433012669104905
v 0.01141507060591721 0.01477147119193551 0.00433012669104905
v 0.00987071330611252 0.01450839822440621 0.00482962887305588
v 0.00814312846724534 0.01146436517386910 -0.00492622168045669
v 0.00814312846724534 0.01146436898856637 -0.00492622156124740
v 0.00784730632369065 0.01163516824393746 -0.00500000007134109
v 0.00784730632369065 0.01163516442924020 -0.00500000007134109
v 0.00728381450240159 0.01196049707084176 -0.00500000007134109
v 0.00792242534224533 0.01216914193778512 -0.00289777739029556
v 0.00719964702193283 0.01200908868461129 -0.00289126141052871
v 0.00700000102583908 0.01212435739188668 -0.00500000007134109
v 0.00685885722701096 0.01220584695487496 -0.00497854275684982
v 0.00787172038619065 0.01162106912284371 -0.00204112465363174
v 0.00787172038619065 0.01162106912284371 -0.00204112465363174
v 0.00792384440962815 0.01159097497611520 -0.00171549708824783
v 0.00789952189986252 0.01218236749320504 -0.00129903800469070
v 0.00733824260298752 0.01192907159476754 -0.00236562426071792
v 0.00764952189986252 0.01174935739188668 -0.00129903800469070
v 0.00759297282759690 0.01178200738578317 -0.00138843114357620
v 0.00757086284224534 0.01179477136283395 -0.00133666093331008
v 0.00760505778853440 0.01177503411918160 -0.00132030827980667
v 0.00752070720259690 0.01182372872977731 -0.00136065013390213
v 0.00734983928267502 0.01192237298636910 -0.00150762708168655
v 0.00738797099654221 0.01190036599784371 -0.00142413670998245
v 0.00733621318404221 0.01193024270682809 -0.00144888885002761
v 0.00720991618697190 0.01200316445975778 -0.00146808965187698
v 0.00710250957076096 0.01206517617850777 -0.00148441750984817
v 0.00809666545455002 0.01149119775443551 -0.00079264171105056
v 0.00812500102583908 0.01147483651786324 -0.00075000007134109
v 0.00817375285689377 0.01144669168143746 -0.00061409337502151
v 0.00819815166060471 0.01143260400443551 -0.00054607255440383
v 0.00825477702681565 0.01139991204886910 -0.00038822848778396
v 0.00791856486861252 0.01159402673392770 -0.00106066043358474
v 0.00837500102583908 0.01190785043387887 -0.00075000007134109
v 0.00816856486861252 0.01202703683524606 -0.00106066043358474
v 0.00850477702681565 0.01183292596488473 -0.00038822848778396
v 0.00700000102583908 0.01212435739188668 -0.00150000007134109
v 0.00725000102583909 0.01255736749320504 -0.00300000007134109
v 0.00842242534224534 0.01303516595511910 -0.00289777739029556
v 0.00775000102583908 0.01342339532523629 -0.00300000007134109
v 0.00587928874556565 0.01277140252738473 -0.00482962913494735
v 0.00595990092818284 0.01272485940604684 -0.00459012920838027
v 0.00561708171431565 0.01292278878837106 -0.00470421702843338
v 0.00642184550826096 0.01245816247611520 -0.00286320884209304
v 0.00580317790572190 0.01281534021049020 -0.00305006248932510
v 0.00591430766646409 0.01275118463187692 -0.00262964613419204
v 0.00657757670943284 0.01294559686332223 -0.00289777739029556
v 0.00595095927779221 0.01330736749320504 -0.00259807617645889
v 0.00707757670943283 0.01381162088065621 -0.00289777739029556
v 0.00645095927779221 0.01417339532523629 -0.00259807617645889
v 0.00758621318404221 0.01236325280814645 -0.00144888885002761
v 0.00725000102583909 0.01255736749320504 -0.00150000007134109
v 0.00679075725142502 0.01224516503959176 -0.00212166984062820
v 0.00678061015669846 0.01225102441459176 -0.00192428119164138
v 0.00666378886763596 0.01231847207694528 -0.00144888885002761
v 0.00644500835005783 0.01244478433280465 -0.00134424788933425
v 0.00635048015181565 0.01249935739188668 -0.00129903800469070
v 0.00691378886763596 0.01275148217826363 -0.00144888885002761
v 0.00576164348189377 0.01283932702689645 -0.00247673542481094
v 0.00619125468794846 0.01259129159598824 -0.00161750657539993
v 0.00591868693892502 0.01274865167289254 -0.00174239976387649
v 0.00572277934615158 0.01286176507621285 -0.00154217870216995
v 0.00660048015181565 0.01293236749320504 -0.00129903800469070
v 0.00565371806685471 0.01290163629203317 -0.00194501836281448
v 0.00624940593306565 0.01255771081595895 -0.00120948750954299
v 0.00614898784224533 0.01261568658500192 -0.00112051160317092
v 0.00608143718306565 0.01265468804984567 -0.00106066043358474
v 0.00605543620650315 0.01266969888358590 -0.00102153594475418
v 0.00597822673384690 0.01271428125052926 -0.00090533072930007
v 0.00590100200240158 0.01275886361747262 -0.00078912456017166
v 0.00587500102583908 0.01277387445121285 -0.00075000007134109
v 0.00584242351119065 0.01279268853812692 -0.00065916831474929
v 0.00579397685591721 0.01282065408378121 -0.00052413470726638
v 0.00574522502486252 0.01284879892020699 -0.00038822848778396
v 0.00572859294478440 0.01285840051322457 -0.00024238259773880
v 0.00571206767622971 0.01286794107108590 -0.00009747416954666
v 0.00633143718306565 0.01308769815116403 -0.00106066043358474
v 0.00612500102583908 0.01320688836722848 -0.00075000007134109
v 0.00599522502486252 0.01328181283622262 -0.00038822848778396
v 0.00591288859908127 0.01448405282645699 -0.00212132031899124
v 0.00484866435591721 0.01336643426566598 -0.00346663625221878
v 0.00416330058638596 0.01376212518363473 -0.00373503382187515
v 0.00393814189497971 0.01389212243705270 -0.00353553397637039
v 0.00385147197310471 0.01394215600638864 -0.00340511305313736
v 0.00359407146040940 0.01409076898246285 -0.00301776607018142
v 0.00333667094771409 0.01423938195853707 -0.00263041527252822
v 0.00560315043990159 0.01293083017020699 -0.00183920867424636
v 0.00554286296431565 0.01296563546805856 -0.00157588632088333
v 0.00498249919478440 0.01328915994315621 -0.00178757197838455
v 0.00455819804732346 0.01353413217216012 -0.00183499009590774
v 0.00538786418501877 0.01305512063651559 -0.00115757520180374
v 0.00514773662154221 0.01319376199393746 -0.00123484475594192
v 0.00523355205122971 0.01314420907645699 -0.00076769168358474
v 0.00504057414595627 0.01325562875419137 -0.00089848573189407
v 0.00498079021040940 0.01329014794974801 -0.00038494546394973
v 0.00541288859908127 0.01361802880912301 -0.00212132031899124
v 0.00500000102583908 0.01385640542655465 -0.00150000007134109
v 0.00550000102583909 0.01472243325858590 -0.00150000007134109
v 0.00474044902388596 0.01400625817924020 -0.00077645738106399
v 0.00325000102583908 0.01428941934257028 -0.00250000007134109
v 0.00297992045943283 0.01444534509330270 -0.00174711663704544
v 0.00281741435591721 0.01453917138724801 -0.00129409511070877
v 0.00281741435591721 0.01453917138724801 -0.00129409511070877
v 0.00281741435591721 0.01453917138724801 -0.00129409511070877
v 0.00281741435591721 0.01453917138724801 -0.00129409511070877
v 0.00381303508345627 0.01396435372977731 -0.00014431054573684
v 0.00325151164595627 0.01428854577689645 -0.00115978629570632
v 0.00325151164595627 0.01428854577689645 -0.00115978534203201
v 0.00325151164595627 0.01428854577689645 -0.00115978534203201
v 0.00276199443404221 0.01457116906791207 -0.00080794150810867
v 0.00276199443404221 0.01457116906791207 -0.00080794150810867
v 0.00270771892134690 0.01460250680594918 -0.00033196551781326
v 0.00829904277388596 0.01137435739188668 -0.00000000007134109
v 0.00826370341841721 0.01139475839286324 0.00030996172446579
v 0.00832499797408127 0.01135936944633004 0.00040995447654099
v 0.00828193767134690 0.01138422982841012 0.00040965502280564
v 0.00825477702681565 0.01139991204886910 0.00038822834510178
v 0.00824865825240158 0.01140344827323434 0.00040529959220261
v 0.00818219096724533 0.01144182031302926 0.00059058229941697
v 0.00815757854048752 0.01145602624564645 0.00065916912574143
v 0.00812500102583908 0.01147483651786324 0.00074999992865891
v 0.00809900004927658 0.01148984735160348 0.00078912489432663
v 0.00803604228560471 0.01152620141654489 0.00088387959021897
v 0.00850477702681565 0.01183292596488473 0.00038822834510178
v 0.00791856486861252 0.01159402673392770 0.00106066029090256
v 0.00837500102583908 0.01190785043387887 0.00074999992865891
v 0.00816856486861252 0.01202703683524606 0.00106066029090256
v 0.00789952189986252 0.01218236749320504 0.00129903786200852
v 0.00764952189986252 0.01174935739188668 0.00129903786200852
v 0.00747541911665940 0.01184987847953317 0.00138231079596848
v 0.00745521647994065 0.01186153619437692 0.00154848234671921
v 0.00741487224165940 0.01188482873588082 0.00141126482505173
v 0.00733621318404221 0.01193024270682809 0.00144888870734543
v 0.00729387004439377 0.01195469110160348 0.00145532553214402
v 0.00719760234419846 0.01201026742606637 0.00146995966452927
v 0.00711953837935471 0.01205534188895699 0.00148182814139695
v 0.00738705546919846 0.01190088861136910 0.00191682474631638
v 0.00727775676314377 0.01196398751883981 0.00206623833197922
v 0.00700000102583908 0.01212435739188668 -0.00000000007134109
v 0.00704234416548752 0.01209990899711129 0.00149356262702317
v 0.00700000102583908 0.01212435739188668 0.00149999992865891
v 0.00698823649947190 0.01213115136771676 0.00149821131247849
v 0.00697674663130783 0.01213778512626168 0.00156910364646286
v 0.00792242534224533 0.01216914193778512 0.00289777748603196
v 0.00721778972212815 0.01199862115531442 0.00269976990241379
v 0.00841970927779221 0.01130468576102731 0.00482934372443528
v 0.00841970927779221 0.01130468957572457 0.00482934372443528
v 0.00800293071333908 0.01154531304984567 0.00496677296180100
v 0.00800293071333908 0.01154531304984567 0.00496677296180100
v 0.00784478862349534 0.01163662164359567 0.00499999992865891
v 0.00784478862349534 0.01163661782889840 0.00499999992865891
v 0.00716247661177659 0.01203055398612496 0.00407422440070481
v 0.00757006938521409 0.01179522531180856 0.00499999992865891
v 0.00692605693404221 0.01216705148368356 0.00498875801581711
v 0.00758621318404221 0.01236325280814645 0.00144888870734543
v 0.00725000102583909 0.01255736749320504 0.00149999992865891
v 0.00570095927779221 0.01287435739188668 -0.00000000007134109
v 0.00570652873580002 0.01287113778739449 0.00004889433402390
v 0.00572309978072190 0.01286157815604684 0.00019411413688035
v 0.00582624919478440 0.01280202310233590 0.00061409275550217
v 0.00574522502486252 0.01284880273490426 0.00038822834510178
v 0.00573965556685471 0.01285201852469918 0.00033933489341111
v 0.00577780253951096 0.01282998864799020 0.00047905914801926
v 0.00621595866744065 0.01257702081351754 0.00117985003012986
v 0.00611532695357346 0.01263512628226754 0.00109068338889451
v 0.00608143718306565 0.01265468804984567 0.00106066029090256
v 0.00602960307662033 0.01268461434989449 0.00098266165274949
v 0.00587500102583908 0.01277387445121285 0.00074999992865891
v 0.00595256145064377 0.01272910134940621 0.00086670677680344
v 0.00599522502486252 0.01328181283622262 0.00038822834510178
v 0.00595095927779221 0.01330736749320504 -0.00000000007134109
v 0.00612500102583908 0.01320688836722848 0.00074999992865891
v 0.00633143718306565 0.01308769815116403 0.00106066029090256
v 0.00666378886763596 0.01231847207694528 0.00144888870734543
v 0.00635444743697190 0.01249706857352731 0.00130093424338669
v 0.00635048015181565 0.01249935739188668 0.00129903786200852
v 0.00691378886763596 0.01275148217826363 0.00144888870734543
v 0.00631659038130783 0.01251891915946481 0.00126901667136521
v 0.00621621806685471 0.01257687585502145 0.00145541374701828
v 0.00572038371626877 0.01286314218192574 0.00192560808677048
v 0.00660048015181565 0.01293236749320504 0.00129903786200852
v 0.00591288859908127 0.01448405282645699 0.00212132065314621
v 0.00725000102583909 0.01255736749320504 0.00299999992865891
v 0.00842242534224534 0.01303516595511910 0.00289777748603196
v 0.00775000102583908 0.01342339532523629 0.00299999992865891
v 0.00630917460982346 0.01252320687919137 0.00297706692237229
v 0.00630917460982346 0.01252320687919137 0.00297704308051438
v 0.00626849467818283 0.01254669397025582 0.00367330639380784
v 0.00657757670943284 0.01294559686332223 0.00289777748603196
v 0.00595095927779221 0.01330736749320504 0.00259807579535813
v 0.00671861369673752 0.01228681008964059 0.00495722477454514
v 0.00630029399458908 0.01252832620292184 0.00489363186377854
v 0.00579438884322190 0.01282042520194527 0.00478901855964035
v 0.00707757670943283 0.01381162088065621 0.00289777748603196
v 0.00645095927779221 0.01417339532523629 0.00259807579535813
v 0.00518074138228440 0.01317470758109567 0.00027656214255661
v 0.00508160502974533 0.01323194329886910 0.00030445330161423
v 0.00528830058638596 0.01311260430961129 0.00067093031424851
v 0.00507751567427658 0.01323430078177926 0.00089191191214890
v 0.00486270244185471 0.01335832803397653 0.00008079187888474
v 0.00473758037154221 0.01343056695609567 -0.00000000007134109
v 0.00550041301314377 0.01299014871268746 0.00162831203955979
v 0.00541044719283127 0.01304208581595895 0.00160965387839646
v 0.00514341838423752 0.01319625299125192 0.00176658766288132
v 0.00465191752974533 0.01405736749320504 -0.00000000007134109
v 0.00474044902388596 0.01400625817924020 0.00077645723838181
v 0.00500000102583908 0.01385640542655465 0.00149999992865891
v 0.00541288859908127 0.01361802880912301 0.00212132065314621
v 0.00550000102583909 0.01472243325858590 0.00149999992865891
v 0.00266987712447190 0.01462435357718942 -0.00000000007134109
v 0.00266987712447190 0.01462435739188668 -0.00000000007134109
v 0.00268846232955002 0.01461362664847848 0.00016298048514695
v 0.00340010173384690 0.01420275705008981 0.00119040672797532
v 0.00274363811080002 0.01458176248221871 0.00064704697150559
v 0.00411856181685471 0.01378795068412301 0.00150753109473557
v 0.00292602641646408 0.01447646157889840 0.00159686558265061
v 0.00308749492232346 0.01438324182181832 0.00204697792548508
v 0.00315388591353440 0.01434490792899606 0.00223208134192795
v 0.00502203471724534 0.01326633279471871 0.00367288963813157
v 0.00471092326705002 0.01344595925956246 0.00344469063300461
v 0.00490986735884690 0.01333109109549996 0.00421206848639817
v 0.00548693950240159 0.01299791543632028 0.00464197723883957
v 0.00509713847701096 0.01322297113090035 0.00445553772467942
v 0.00446574504439377 0.01358750741630074 0.00313161747474045
v 0.00443374736372971 0.01360598580985543 0.00315611832160325
v 0.00436320598189377 0.01364670770316598 0.00314145081061692
v 0.00436320598189377 0.01364670770316598 0.00314145081061692
v 0.00362268168990159 0.01407425134330270 0.00306082623023362
v 0.00399221904341721 0.01386090295463082 0.00358344738501877
v 0.00393814189497971 0.01389212243705270 0.00353553383368821
v 0.00393814189497971 0.01389212243705270 0.00353553383368821
v 0.00376536662642502 0.01399187295585153 0.00327553455848069
v 0.01376027019087815 0.01572686593680856 -0.00257112081032424
v 0.01339695842330002 0.01593662469535348 -0.00313616569023757
v 0.01296600444380784 0.01618543832450387 -0.00363379485588699
v 0.01247665507857346 0.01646796243339059 -0.00405331201534896
v 0.01073098857466721 0.01516641824393746 -0.00469846315365463
v 0.00875000102583908 0.01515544335990426 -0.00500000007134109
v 0.01000192363326096 0.01558735101371285 -0.00492403883915573
v 0.00925000102583909 0.01602147119193551 -0.00500000007134109
v 0.00957159526412034 0.01583579461722848 -0.00064320237618118
v 0.00980702312056565 0.01569986932425973 -0.00037135274391799
v 0.00976347453658127 0.01572501962333199 -0.00035000760536819
v 0.00971739299361252 0.01575161950736520 -0.00034186561089187
v 0.00967186076705002 0.01577790658622262 -0.00034746606331497
v 0.00955311687056565 0.01584646814017770 -0.00059290368538528
v 0.00954606731001877 0.01585053842216012 -0.00053970296364456
v 0.00955091960494065 0.01584773843436715 -0.00048712785225540
v 0.00959426982466721 0.01582270639091012 -0.00039752538185745
v 0.00956735332076096 0.01583825128226754 -0.00043866403084426
v 0.00962989909712815 0.01580213754325387 -0.00036643893700271
v 0.00925000102583909 0.01602147119193551 -0.00074270589333206
v 0.00924423320357346 0.01602480142264840 -0.00068847329598098
v 0.00922729594771408 0.01603457849174019 -0.00063832910042434
v 0.00920033366744065 0.01605014627128121 -0.00059559829216629
v 0.00916511638228440 0.01607047860770699 -0.00056311376076370
v 0.00912399394576096 0.01609422128348824 -0.00054302985649734
v 0.00907968242232346 0.01611980645804879 -0.00053667743187576
v 0.00903511149947190 0.01614553659110543 -0.00054447848778396
v 0.00899325664107346 0.01616970269828317 -0.00056591565590530
v 0.01128022868697190 0.01715871637015817 -0.00091776330452590
v 0.01123668010298752 0.01718386285453316 -0.00089641768913894
v 0.01119059856001877 0.01721046273856637 -0.00088827569466262
v 0.01114506633345627 0.01723675363212105 -0.00089387662392288
v 0.01104480083052659 0.01729463784842965 -0.00118961245995193
v 0.01102632243697190 0.01730531137137887 -0.00113931376915603
v 0.01101927287642502 0.01730938165336129 -0.00108611304741531
v 0.01102412517134690 0.01730658166556832 -0.00103353793602615
v 0.01106747539107346 0.01728155343680856 -0.00094393546562820
v 0.01104055888716721 0.01729709832816598 -0.00098507459145217
v 0.01110310466353440 0.01726098458915230 -0.00091284902077346
v 0.00892840678755783 0.01620714776664254 -0.00064320237618118
v 0.00895687968794846 0.01619070260673043 -0.00059956748467117
v 0.00873075969283127 0.01632125299125192 -0.00033846576195388
v 0.00869297893111252 0.01634307305961129 -0.00037135274391799
v 0.00877847392622971 0.01629371087699410 -0.00024813182335525
v 0.00875990397994065 0.01630442636161324 -0.00029646403771072
v 0.00878521831099533 0.01628980844169137 -0.00019667489510208
v 0.00877972514693283 0.01629298608451363 -0.00014550454598098
v 0.00876233012740158 0.01630302636771676 -0.00009801347237258
v 0.00873419292037034 0.01631926934867379 -0.00005735070686965
v 0.00869719035689377 0.01634063546805856 -0.00002621276360183
v 0.00865376384322190 0.01636570565848824 -0.00000666339378982
v 0.01007679851119065 0.01785352151542183 -0.00479583151322036
v 0.00947136027876877 0.01820307366996285 -0.00471504147034317
v 0.00888266093794846 0.01854295938163278 -0.00453289647083908
v 0.01007679851119065 0.01785352151542183 -0.00148911626320510
v 0.01007103068892502 0.01785685174613473 -0.00143488366585403
v 0.01005409343306565 0.01786662881522652 -0.00138473947029739
v 0.01002713115279221 0.01788219659476754 -0.00134200866203933
v 0.00999191386763596 0.01790252893119332 -0.00130952413063674
v 0.00995079143111252 0.01792627160697457 -0.00128943974953323
v 0.00990646464888596 0.01795185678153512 -0.00128308780174881
v 0.00986190898482346 0.01797758691459176 -0.00129088885765701
v 0.00982005412642502 0.01800175302176949 -0.00131232602577835
v 0.00978367717330002 0.01802275293021676 -0.00134597737770706
v 0.00975518901412033 0.01803919809012887 -0.00138961226921707
v 0.00911349589888596 0.01840968530326363 -0.00049646384697586
v 0.00913881022994065 0.01839506356864449 -0.00039667470436721
v 0.00913206584517502 0.01839896600394723 -0.00044813210945755
v 0.00913331706587815 0.01839824121146676 -0.00034550435524612
v 0.00904655559126877 0.01844832818656441 -0.00057135303002029
v 0.00908435161177659 0.01842650811820504 -0.00053846604805618
v 0.00911592204634690 0.01840828149466988 -0.00029801328163772
v 0.00908778483931565 0.01842452447562691 -0.00025735051613479
v 0.00905078227583908 0.01844589059501168 -0.00022621257286697
v 0.00900735576216721 0.01847096460013863 -0.00020666367989212
v 0.00896038920943283 0.01849807946830270 -0.00019999988060623
v 0.01440330607955002 0.01535560434012887 0.00019999973792405
v 0.01433334453169846 0.01539600198417184 0.00089910166282029
v 0.01417559917037033 0.01548707406669137 0.00157887594718308
v 0.01393347270552659 0.01562686364799020 0.00222471039313645
v 0.01153961284224534 0.01700896279960152 0.00019999973792405
v 0.01149264628951096 0.01703607766776559 0.00020666353720994
v 0.01217665202681565 0.01664116494803902 0.00425331203955979
v 0.01161734111372971 0.01696408288627145 0.00453289692420334
v 0.00989320476119065 0.01565011804252145 -0.00000000007134109
v 0.00984623820845627 0.01567723291068551 0.00000666372794480
v 0.00980281169478440 0.01570230691581246 0.00002621262091965
v 0.00976580913130783 0.01572367303519723 0.00005735056418747
v 0.00973767192427659 0.01573991220145700 0.00009801332969040
v 0.00972027690474534 0.01574995629935739 0.00014550440329880
v 0.00974009807173752 0.01573851220756051 0.00029646389502854
v 0.00971478374068284 0.01575313012748238 0.00019667475241990
v 0.00972152812544846 0.01574923150687691 0.00024813215751023
v 0.00980702312056565 0.01569986932425973 0.00037135307807297
v 0.00976924235884690 0.01572168557792184 0.00033846561927170
v 0.00954312236372971 0.01585223596244332 0.00059956734198899
v 0.00946489055220627 0.01589740579276559 0.00054447834510178
v 0.00950674541060471 0.01587323968558785 0.00056591551322312
v 0.00942031962935471 0.01592313211112496 0.00053667728919358
v 0.00937600810591721 0.01594871728568551 0.00054302971381516
v 0.00933488566939377 0.01597246377616402 0.00056311361808152
v 0.00929966838423752 0.01599279611258981 0.00059559814948410
v 0.00957159526412034 0.01583579461722848 0.00064320223349900
v 0.00927270610396408 0.01600836389213082 0.00063832943457932
v 0.00925576884810471 0.01601813714652535 0.00068847315329880
v 0.00925000102583909 0.01602147119193551 0.00074270575064988
v 0.01144921977583909 0.01706115167289254 0.00022621243018479
v 0.01141221721236252 0.01708251779227730 0.00025735085028977
v 0.01138408000533127 0.01709876077323434 0.00029801313895554
v 0.01136668498580002 0.01710880105643746 0.00034550421256394
v 0.01136119182173752 0.01711197869925973 0.00039667503852219
v 0.01136793620650315 0.01710807626395699 0.00044813196677536
v 0.01141565043990159 0.01708053414969918 0.00053846590537400
v 0.01145344646040940 0.01705871408133981 0.00057135288733811
v 0.01138650615279221 0.01709735696464059 0.00049646370429368
v 0.01074481303755783 0.01746784417777535 0.00138961212653489
v 0.01067994792525315 0.01750528924613473 0.00131232588309617
v 0.01071632487837815 0.01748428933768746 0.00134597723502488
v 0.00890573222701096 0.01622023217826363 0.00039752523917527
v 0.00893264873091721 0.01620469110160348 0.00043866436499924
v 0.00895393474165940 0.01619240396171090 0.00053970282096238
v 0.00894908244673752 0.01619520394950387 0.00048712770957322
v 0.00894688518111252 0.01619647424369332 0.00059290354270310
v 0.00860679729048752 0.01639282434134957 -0.00000000007134109
v 0.00887010295455002 0.01624080102591988 0.00036643879432053
v 0.00882814128462815 0.01626503579764840 0.00034746639746994
v 0.00878260905806565 0.01629132287650582 0.00034186546820969
v 0.00873652751509690 0.01631792276053902 0.00035000746268601
v 0.00869297893111252 0.01634307305961129 0.00037135307807297
v 0.00892840678755783 0.01620714776664254 0.00064320223349900
v 0.01073098857466721 0.01516641824393746 0.00469846336860032
v 0.00875000102583908 0.01515544335990426 0.00499999992865891
v 0.01000192363326096 0.01558735101371285 0.00492403881568284
v 0.00925000102583909 0.01602147119193551 0.00499999992865891
v 0.01102864177290940 0.01730396859794137 0.00471504108924241
v 0.01063809306685471 0.01752945535331246 0.00129088871497483
v 0.01059353740279221 0.01755518548636910 0.00128308765906662
v 0.01054921062056565 0.01758077066092965 0.00128943960685105
v 0.01050808818404221 0.01760451333671090 0.00130952398795456
v 0.01047287089888596 0.01762484567313668 0.00134200851935715
v 0.01044590861861252 0.01764041345267769 0.00138473932761521
v 0.01042897136275315 0.01765019052176949 0.00143488352317185
v 0.01042320354048752 0.01765352075248238 0.00148911612052292
v 0.00939689738814377 0.01824605767875192 0.00091284887809128
v 0.00935493571822190 0.01827028863578316 0.00089387648124070
v 0.00930940349165940 0.01829657952933785 0.00088827555198044
v 0.00945944316451096 0.01820994393973824 0.00098507444876999
v 0.00947587688033127 0.01820046060233590 0.00103353827018113
v 0.00948072917525315 0.01819766061454293 0.00108611338157029
v 0.00947367961470627 0.01820173089652535 0.00113931362647385
v 0.00945520122115158 0.01821240441947457 0.00118961231726975
v 0.00943252666060471 0.01822548883109566 0.00094393532294602
v 0.00926332194869065 0.01832317941337105 0.00089641754645676
v 0.00921977336470627 0.01834832589774605 0.00091776316184372
v 0.01042320354048752 0.01765352075248238 0.00479583160895676
v 0.00762928874556565 0.01580249231009957 -0.00482962913494735
v 0.00849807841841721 0.01645559137015816 -0.00492403883915573
v 0.00776901347701096 0.01687652032523629 -0.00469846315365463
v 0.00708493144576096 0.01727147119193551 -0.00433012707214981
v 0.00658493144576096 0.01640544335990426 -0.00433012707214981
v 0.00568814189497971 0.01692321221976754 -0.00353553397637039
v 0.00524044902388596 0.01487228219657418 -0.00077645738106399
v 0.00500000102583909 0.01732050912528512 -0.00250000007134109
v 0.00646664531294846 0.01762843911796090 -0.00383022220116287
v 0.00593293864790940 0.01793658273368355 -0.00321393806915908
v 0.00832335002486252 0.01886587731986520 -0.00425331194382339
v 0.00656652934615159 0.01988017861991402 -0.00222471077423721
v 0.00632440288130784 0.02001996820121285 -0.00157887608986526
v 0.00616665751997971 0.02011104028373238 -0.00089910180550247
v 0.00609669597212815 0.02015143792777535 -0.00019999988060623
v 0.00456741435591721 0.01757026116996285 -0.00129409511070877
v 0.00550000102583909 0.01818653314261910 -0.00250000007134109
v 0.00518101604048752 0.01837070291190621 -0.00171010072212844
v 0.00498565776412034 0.01848348825126168 -0.00086824090462356
v 0.00762928874556565 0.01580249231009957 0.00482962887305588
v 0.00849807841841721 0.01645559137015816 0.00492403881568284
v 0.00708493144576096 0.01727147119193551 0.00433012669104905
v 0.00776901347701096 0.01687652032523629 0.00469846336860032
v 0.00568814189497971 0.01692321221976754 0.00353553383368821
v 0.00658493144576096 0.01640544335990426 0.00433012669104905
v 0.00515191752974534 0.01492339532523629 -0.00000000007134109
v 0.00524044902388596 0.01487228219657418 0.00077645723838181
v 0.00500000102583909 0.01732050912528512 0.00249999992865891
v 0.00593293864790940 0.01793658273368355 0.00321393768805832
v 0.00646664531294846 0.01762843911796090 0.00383022205848069
v 0.00753399760787034 0.01932160394340035 0.00363379471320481
v 0.00710304362837815 0.01957041757255074 0.00313616554755539
v 0.00802334697310471 0.01903907983451363 0.00405331223029465
v 0.00673973186080002 0.01978017633109566 0.00257112114447922
v 0.00441987712447190 0.01765544335990426 -0.00000000007134109
v 0.00491987712447190 0.01852147119193551 -0.00000000007134109
v 0.00498565776412034 0.01848348825126168 0.00086824076194138
v 0.00456741435591721 0.01757026116996285 0.00129409496802659
v 0.00518101604048752 0.01837070291190621 0.00171010057944626
v 0.00550000102583909 0.01818653314261910 0.00249999992865891
f 13 10 11
f 13 11 12
f 13 12 119
f 4 5 33
f 20 4 33
f 9 38 1
f 2 32 3
f 136 19 21
f 217 22 19
f 217 23 22
f 27 26 68
f 27 68 28
f 29 28 68
f 29 68 30
f 25 68 26
f 217 25 24
f 217 24 23
f 137 6 8
f 137 7 6
f 137 9 7
f 2 42 32
f 1 38 41
f 136 21 34
f 122 8 13
f 137 38 9
f 217 68 25
f 136 217 19
f 46 71 35
f 39 35 40
f 35 71 73
f 36 39 40
f 122 137 8
f 37 36 138
f 37 55 36
f 55 39 36
f 18 37 139
f 51 55 37
f 18 51 37
f 37 138 139
f 40 35 73
f 40 73 75
f 36 40 140
f 136 34 135
f 36 140 138
f 40 75 140
f 43 45 47
f 45 337 48
f 52 44 43
f 45 48 47
f 44 45 43
f 44 338 45
f 47 48 49
f 49 50 46
f 46 50 93
f 50 94 93
f 47 46 35
f 47 49 46
f 46 93 71
f 48 346 49
f 49 346 50
f 50 421 94
f 43 47 39
f 52 43 55
f 143 51 18
f 52 55 51
f 54 51 143
f 341 53 52
f 52 53 44
f 341 52 54
f 54 52 51
f 342 54 143
f 47 35 39
f 43 39 55
f 30 68 31
f 31 68 56
f 57 58 67
f 57 67 59
f 60 61 68
f 60 68 62
f 63 62 68
f 63 68 64
f 65 64 68
f 66 65 68
f 217 66 68
f 220 70 69
f 217 69 66
f 233 81 83
f 233 84 81
f 93 72 71
f 71 72 74
f 73 71 74
f 73 74 75
f 74 72 76
f 220 69 219
f 217 218 69
f 218 219 69
f 220 223 70
f 228 74 76
f 75 74 228
f 228 76 230
f 229 83 227
f 229 233 83
f 230 76 77
f 72 78 76
f 76 78 77
f 78 103 77
f 230 77 231
f 77 103 90
f 231 77 90
f 81 79 80
f 81 84 79
f 84 82 79
f 233 85 84
f 233 86 85
f 233 87 86
f 233 88 87
f 233 89 88
f 233 91 89
f 93 94 96
f 93 96 95
f 96 97 95
f 97 100 98
f 93 95 72
f 95 98 78
f 95 97 98
f 413 96 94
f 413 414 96
f 414 415 96
f 96 415 97
f 97 416 100
f 430 101 100
f 98 101 99
f 98 100 101
f 101 102 99
f 99 102 105
f 72 95 78
f 78 98 103
f 103 104 90
f 103 99 104
f 103 98 99
f 104 99 105
f 104 105 288
f 439 102 101
f 102 106 105
f 105 106 467
f 105 467 107
f 288 107 289
f 288 105 107
f 289 107 468
f 17 15 118
f 15 16 118
f 109 117 14
f 109 108 117
f 110 117 108
f 110 111 112
f 117 110 112
f 115 117 112
f 115 119 117
f 115 122 119
f 115 114 122
f 115 116 157
f 115 141 114
f 115 157 141
f 122 13 119
f 113 18 120
f 18 139 120
f 122 114 121
f 141 131 114
f 122 121 123
f 128 123 127
f 122 123 125
f 126 123 128
f 123 121 127
f 155 126 128
f 155 122 125
f 155 125 124
f 155 124 126
f 155 120 122
f 155 128 129
f 155 129 130
f 156 130 131
f 137 132 38
f 136 140 217
f 138 134 133
f 138 133 132
f 138 135 134
f 139 138 132
f 137 139 132
f 122 120 137
f 120 139 137
f 138 140 136
f 138 136 135
f 140 75 217
f 141 157 158
f 113 143 18
f 113 144 143
f 113 142 144
f 142 153 144
f 145 148 146
f 145 147 149
f 145 149 150
f 145 159 148
f 145 150 159
f 142 151 153
f 151 152 154
f 342 144 492
f 342 143 144
f 144 153 492
f 151 154 153
f 153 154 496
f 113 155 142
f 113 120 155
f 142 155 156
f 155 130 156
f 141 156 131
f 159 158 148
f 142 156 151
f 151 156 162
f 151 162 167
f 141 158 159
f 141 162 156
f 141 159 162
f 159 164 160
f 159 167 162
f 159 160 167
f 167 160 161
f 167 161 169
f 159 150 163
f 151 167 152
f 152 181 200
f 152 167 181
f 200 181 182
f 167 169 181
f 181 169 170
f 181 170 171
f 181 171 172
f 182 172 173
f 181 172 182
f 182 173 174
f 182 174 175
f 182 175 176
f 201 182 183
f 182 176 183
f 183 176 177
f 183 177 178
f 183 178 179
f 275 179 180
f 275 180 261
f 183 179 275
f 152 200 184
f 152 184 154
f 200 202 184
f 187 163 185
f 187 185 186
f 187 188 168
f 168 188 189
f 168 189 190
f 187 159 163
f 187 164 159
f 187 165 164
f 187 168 165
f 166 193 192
f 194 196 195
f 204 191 168
f 204 166 191
f 204 193 166
f 203 183 275
f 200 182 201
f 200 201 202
f 204 194 193
f 204 196 194
f 201 498 202
f 201 183 203
f 203 275 309
f 198 211 197
f 201 203 498
f 203 517 498
f 203 309 517
f 190 204 168
f 206 198 205
f 209 207 208
f 206 211 198
f 213 216 199
f 315 305 210
f 209 214 212
f 215 216 213
f 209 208 214
f 217 75 218
f 220 222 223
f 228 221 218
f 228 222 221
f 75 228 218
f 228 223 222
f 228 224 223
f 228 230 224
f 230 225 224
f 230 226 225
f 230 227 226
f 230 229 227
f 230 231 229
f 229 231 233
f 231 232 233
f 231 90 232
f 232 90 248
f 233 234 235
f 233 235 241
f 233 232 234
f 232 236 234
f 232 259 236
f 259 237 236
f 259 238 237
f 259 239 238
f 259 240 239
f 259 244 240
f 242 239 240
f 242 240 249
f 242 249 241
f 233 241 256
f 278 247 246
f 233 92 91
f 233 250 92
f 233 251 250
f 90 104 248
f 249 256 241
f 233 256 251
f 256 252 251
f 256 253 252
f 256 254 253
f 254 257 255
f 256 257 254
f 259 260 244
f 260 245 244
f 246 245 260
f 232 248 259
f 259 248 287
f 259 287 260
f 281 260 287
f 285 268 282
f 285 269 268
f 277 270 269
f 277 273 271
f 277 271 270
f 277 269 285
f 274 262 263
f 274 263 266
f 275 261 262
f 275 262 274
f 274 266 265
f 274 265 267
f 276 267 264
f 274 267 276
f 276 272 273
f 276 273 277
f 276 264 272
f 274 276 311
f 278 246 260
f 278 260 281
f 278 281 279
f 278 279 283
f 285 280 279
f 285 282 280
f 285 279 281
f 278 290 247
f 278 291 290
f 281 287 293
f 285 281 293
f 278 283 284
f 285 293 294
f 277 285 294
f 276 277 312
f 278 284 328
f 277 294 312
f 312 294 299
f 312 299 286
f 104 288 248
f 248 288 287
f 288 289 287
f 293 287 289
f 293 289 298
f 290 292 247
f 247 292 258
f 278 325 291
f 294 293 298
f 292 295 258
f 292 296 295
f 325 297 291
f 289 468 298
f 294 298 299
f 299 298 511
f 275 274 310
f 301 300 304
f 317 303 302
f 306 307 308
f 330 306 308
f 275 310 309
f 274 311 310
f 315 301 304
f 317 319 303
f 309 310 518
f 309 518 517
f 310 313 518
f 276 312 311
f 310 311 313
f 311 312 286
f 311 286 313
f 315 304 305
f 315 316 301
f 316 318 301
f 315 314 316
f 317 322 319
f 320 321 317
f 317 321 322
f 278 328 324
f 278 324 323
f 278 323 325
f 325 326 297
f 325 327 326
f 330 308 332
f 335 329 331
f 335 333 329
f 330 332 336
f 335 334 333
f 45 338 337
f 53 340 44
f 44 340 339
f 44 339 338
f 53 369 340
f 339 365 338
f 340 369 339
f 337 365 48
f 338 365 337
f 339 369 365
f 341 54 343
f 341 345 53
f 342 343 54
f 342 344 343
f 342 493 344
f 341 343 356
f 343 344 356
f 344 493 388
f 493 389 388
f 344 388 391
f 493 494 389
f 48 365 346
f 53 345 369
f 50 346 421
f 341 356 345
f 345 357 350
f 356 357 345
f 357 358 350
f 347 422 421
f 346 347 421
f 347 348 422
f 349 424 348
f 355 425 349
f 353 426 355
f 348 423 422
f 348 424 423
f 349 425 424
f 355 426 425
f 358 351 350
f 359 352 351
f 360 354 352
f 358 359 351
f 359 360 352
f 360 361 354
f 361 353 354
f 353 383 426
f 361 383 353
f 361 362 382
f 365 366 346
f 370 345 350
f 371 350 351
f 374 352 354
f 372 351 352
f 369 345 370
f 370 350 371
f 374 354 373
f 366 367 347
f 368 348 367
f 375 349 368
f 373 355 375
f 371 351 372
f 372 352 374
f 366 347 346
f 367 348 347
f 368 349 348
f 373 353 355
f 375 355 349
f 373 354 353
f 369 366 365
f 369 367 366
f 369 368 367
f 369 370 371
f 369 371 372
f 369 372 374
f 369 374 373
f 369 375 368
f 369 373 375
f 344 391 356
f 495 376 401
f 392 357 356
f 393 358 357
f 394 359 358
f 395 360 359
f 396 361 360
f 396 362 361
f 397 363 362
f 398 364 363
f 400 376 377
f 399 377 364
f 364 381 363
f 362 363 380
f 376 379 377
f 377 378 364
f 364 378 381
f 363 381 380
f 362 380 382
f 377 379 378
f 361 382 383
f 391 392 356
f 392 393 357
f 393 394 358
f 394 395 359
f 395 396 360
f 396 397 362
f 401 376 400
f 398 363 397
f 398 399 364
f 400 377 399
f 404 380 381
f 379 407 378
f 378 402 381
f 403 382 380
f 405 383 382
f 405 384 383
f 384 408 385
f 385 409 386
f 386 410 387
f 387 411 460
f 494 390 389
f 388 389 391
f 389 390 391
f 390 502 401
f 390 401 391
f 391 401 392
f 392 401 393
f 393 401 394
f 394 401 395
f 401 396 395
f 401 397 396
f 401 398 397
f 401 399 398
f 401 400 399
f 379 406 407
f 402 404 381
f 404 403 380
f 403 405 382
f 378 407 402
f 405 408 384
f 385 408 409
f 386 409 410
f 387 410 411
f 411 412 460
f 407 412 402
f 407 406 412
f 402 412 404
f 404 412 403
f 403 412 405
f 405 412 408
f 408 412 409
f 409 412 410
f 410 412 411
f 413 94 417
f 413 417 414
f 414 450 415
f 97 415 416
f 450 416 415
f 94 421 417
f 450 100 416
f 414 417 450
f 417 418 443
f 452 420 419
f 467 419 420
f 450 430 100
f 418 421 422
f 443 422 423
f 444 423 424
f 449 431 430
f 430 439 101
f 439 452 106
f 431 432 430
f 429 433 427
f 427 434 431
f 430 432 439
f 426 436 428
f 428 435 429
f 431 434 432
f 427 433 434
f 428 436 435
f 429 435 433
f 426 455 436
f 383 455 426
f 456 437 436
f 437 458 438
f 438 457 440
f 455 456 436
f 456 458 437
f 438 458 457
f 457 459 440
f 459 441 440
f 441 466 442
f 459 466 441
f 417 421 418
f 418 422 443
f 443 423 444
f 444 424 445
f 445 425 446
f 451 431 449
f 448 427 451
f 446 428 447
f 447 429 448
f 449 430 450
f 445 424 425
f 446 425 426
f 446 426 428
f 447 428 429
f 451 427 431
f 448 429 427
f 417 443 444
f 417 444 445
f 417 445 446
f 417 448 451
f 417 446 447
f 417 447 448
f 417 449 450
f 417 451 449
f 432 453 454
f 434 472 453
f 433 473 472
f 439 454 452
f 435 474 473
f 437 475 474
f 438 476 475
f 440 477 476
f 441 478 477
f 442 479 478
f 452 479 420
f 453 452 454
f 453 472 452
f 432 454 439
f 433 472 434
f 434 453 432
f 433 435 473
f 435 436 474
f 436 437 474
f 437 438 475
f 438 440 476
f 440 441 477
f 441 442 478
f 383 384 461
f 384 385 462
f 385 386 463
f 383 461 455
f 384 462 461
f 385 463 462
f 387 464 463
f 386 387 463
f 387 460 464
f 460 465 464
f 455 488 456
f 462 480 461
f 461 488 455
f 462 463 481
f 463 464 482
f 464 465 489
f 456 483 458
f 458 484 457
f 457 485 459
f 459 486 466
f 442 470 479
f 442 466 514
f 439 106 102
f 467 469 107
f 106 419 467
f 467 471 469
f 442 512 470
f 107 469 468
f 468 469 470
f 468 470 512
f 452 419 106
f 479 471 420
f 467 420 471
f 479 470 491
f 471 491 469
f 469 491 470
f 452 472 473
f 452 473 474
f 452 474 475
f 452 475 476
f 452 476 477
f 452 477 478
f 452 478 479
f 456 488 483
f 458 483 484
f 457 484 485
f 459 485 486
f 466 486 487
f 461 480 488
f 462 481 480
f 463 482 481
f 464 489 482
f 465 490 489
f 483 487 484
f 484 487 485
f 485 487 486
f 480 487 488
f 481 487 480
f 488 487 483
f 481 482 487
f 482 489 487
f 489 490 487
f 490 522 487
f 479 491 471
f 153 496 492
f 342 492 493
f 154 184 497
f 154 497 496
f 493 492 494
f 492 496 494
f 494 496 495
f 495 500 376
f 500 501 376
f 496 500 495
f 496 497 500
f 500 497 501
f 501 379 376
f 501 508 379
f 497 184 499
f 497 499 501
f 184 202 499
f 202 498 507
f 498 517 526
f 202 507 499
f 498 526 507
f 494 502 390
f 494 495 502
f 495 401 502
f 508 406 379
f 412 527 460
f 508 509 503
f 503 504 406
f 505 412 406
f 504 505 406
f 505 506 412
f 508 503 406
f 503 509 504
f 412 506 527
f 504 510 505
f 510 506 505
f 501 499 508
f 499 509 508
f 499 507 509
f 509 507 510
f 507 526 510
f 510 526 527
f 509 510 504
f 510 527 506
f 313 286 515
f 460 528 465
f 466 487 513
f 298 468 511
f 468 512 511
f 286 299 516
f 286 516 515
f 299 511 516
f 442 514 512
f 466 513 514
f 511 512 514
f 516 511 514
f 516 514 513
f 520 515 521
f 521 516 513
f 515 516 521
f 517 518 529
f 518 313 519
f 517 529 526
f 518 519 529
f 313 515 519
f 519 515 520
f 465 531 490
f 490 531 525
f 460 527 528
f 465 528 530
f 465 530 531
f 490 525 523
f 487 524 513
f 524 521 513
f 522 521 524
f 520 521 523
f 531 520 525
f 487 522 524
f 490 523 522
f 525 520 523
f 523 521 522
f 526 529 528
f 526 528 527
f 529 519 530
f 528 529 530
f 530 519 531
f 519 520 531
f 5 4 20
f 6 7 9
f 6 13 8
f 16 15 17
f 11 119 12
f 11 10 243
f 22 23 24
f 24 25 26
f 5 20 33
f 21 19 34
f 19 22 34
f 22 24 34
f 41 9 1
f 6 9 41
f 2 3 42
f 26 27 28
f 28 29 30
f 30 31 56
f 3 32 42
f 6 41 38
f 6 38 132
f 24 26 243
f 24 135 34
f 26 28 243
f 28 30 243
f 10 13 243
f 6 243 13
f 6 132 243
f 24 243 135
f 58 57 59
f 58 59 67
f 61 62 219
f 61 60 62
f 62 63 64
f 64 65 66
f 62 64 70
f 64 66 69
f 64 69 70
f 30 56 243
f 56 68 243
f 61 219 68
f 62 220 219
f 62 222 220
f 62 70 223
f 227 83 81
f 80 227 81
f 80 84 243
f 218 68 219
f 62 243 222
f 62 223 243
f 85 243 84
f 80 79 82
f 80 82 84
f 86 87 88
f 85 86 243
f 86 88 243
f 88 89 91
f 91 92 250
f 14 108 109
f 16 17 118
f 110 108 111
f 108 121 111
f 114 112 111
f 14 127 108
f 14 117 126
f 114 111 121
f 131 112 114
f 108 127 121
f 14 128 127
f 115 112 116
f 243 116 112
f 11 243 119
f 14 126 243
f 14 243 128
f 243 112 131
f 119 123 117
f 126 117 123
f 125 123 119
f 132 133 134
f 243 125 119
f 243 129 128
f 243 130 129
f 243 131 130
f 243 124 125
f 243 126 124
f 243 132 134
f 243 134 135
f 243 157 116
f 243 158 157
f 145 146 147
f 146 148 147
f 243 147 148
f 243 149 147
f 243 148 158
f 243 160 149
f 150 149 160
f 150 164 163
f 163 164 165
f 150 160 164
f 166 192 191
f 243 161 160
f 243 169 161
f 243 170 169
f 243 171 170
f 243 172 171
f 243 173 172
f 243 174 173
f 243 175 174
f 243 176 175
f 243 177 176
f 243 178 177
f 243 179 178
f 243 180 179
f 243 261 180
f 163 165 185
f 185 191 186
f 187 186 191
f 187 191 188
f 188 193 189
f 168 185 165
f 168 191 185
f 191 192 188
f 188 192 193
f 196 190 195
f 194 189 193
f 194 195 190
f 198 197 205
f 210 305 304
f 194 190 189
f 204 190 196
f 205 211 206
f 205 197 211
f 213 199 215
f 216 215 199
f 207 212 208
f 207 209 212
f 208 212 214
f 210 314 315
f 243 68 218
f 243 218 221
f 243 221 222
f 243 223 224
f 243 224 225
f 243 225 226
f 243 226 227
f 243 234 236
f 243 236 237
f 243 237 238
f 243 238 239
f 80 243 227
f 91 234 243
f 243 239 257
f 243 257 240
f 243 240 244
f 243 244 245
f 243 245 246
f 243 246 247
f 243 247 295
f 88 91 243
f 91 250 235
f 91 235 234
f 250 241 235
f 252 242 241
f 242 257 239
f 249 240 257
f 250 251 252
f 250 252 241
f 252 253 255
f 254 255 253
f 252 255 242
f 242 255 257
f 249 257 256
f 247 258 295
f 243 280 282
f 243 279 280
f 243 268 269
f 243 269 271
f 243 282 268
f 243 271 273
f 243 266 263
f 243 267 266
f 243 262 261
f 243 263 262
f 243 264 267
f 243 273 264
f 265 266 267
f 270 271 269
f 272 264 273
f 243 290 291
f 243 292 290
f 243 327 279
f 279 323 283
f 283 323 284
f 243 296 292
f 243 295 296
f 243 291 326
f 243 326 327
f 297 326 291
f 303 319 302
f 330 307 306
f 308 307 336
f 301 318 300
f 304 300 318
f 210 304 316
f 304 318 316
f 317 302 320
f 210 316 314
f 302 319 320
f 322 321 319
f 320 319 321
f 279 325 323
f 323 324 284
f 328 284 324
f 279 327 325
f 330 336 307
f 308 336 332
f 331 329 333
f 331 333 334
f 331 334 335

