# https://github.com/mikedh/trimesh
v -0.00518101089061967 -0.01837070500384167 -0.00171010072297362
v -0.00549999969066849 -0.01818653141985730 -0.00250000007218627
v -0.00498565642894974 -0.01848349034319714 -0.00086824090546874
v -0.00832334296764603 -0.01886587559710340 -0.00425331194466857
v -0.00646664779247514 -0.01762844120989636 -0.00383022220200805
v -0.00593292968334428 -0.01793657719622449 -0.00321393807000426
v -0.00632439582409135 -0.02001996647845105 -0.00157887609071044
v -0.00656652419628373 -0.01988017308245496 -0.00222471077508239
v -0.00616665427746049 -0.02011103856097058 -0.00089910180634765
v -0.00609668700756303 -0.02015143620501355 -0.00019999988145141
v -0.00456741874279252 -0.01757025944720105 -0.00129409511155395
v -0.00499999969066849 -0.01732051121722058 -0.00250000007218627
v -0.00708493583263627 -0.01727146946917371 -0.00433012707299499
v -0.00658493583263627 -0.01640544163714246 -0.00433012707299499
v -0.00568813674511185 -0.01692321049700574 -0.00353553397721557
v -0.00776900832714310 -0.01687651860247449 -0.00469846315449981
v -0.00849808089794388 -0.01645558964739636 -0.00492403884000091
v -0.00762927978100053 -0.01580249058733777 -0.00482962913579253
v -0.00491987197460404 -0.01852146946917371 -0.00000000007218627
v -0.00498565642894974 -0.01848349034319714 0.00086824076109620
v -0.00441987197460404 -0.01765544163714246 -0.00000000007218627
v -0.00518101089061967 -0.01837070500384167 0.00171010057860108
v -0.00549999969066849 -0.01818653141985730 0.00249999992781373
v -0.00673972861828080 -0.01978017460833386 0.00257112114363404
v -0.00710304038585892 -0.01957041966448621 0.00313616554671021
v -0.00753400008739701 -0.01932160222063855 0.00363379471235963
v -0.00802334373058549 -0.01903907811175183 0.00405331222944947
v -0.00593292968334428 -0.01793657719622449 0.00321393768721314
v -0.00646664779247514 -0.01762844120989636 0.00383022205763551
v -0.00456741874279252 -0.01757025944720105 0.00129409496718140
v -0.00499999969066849 -0.01732051121722058 0.00249999992781373
v -0.00568813674511185 -0.01692321049700574 0.00353553383284303
v -0.00708493583263627 -0.01727146946917371 0.00433012669020387
v -0.00658493583263627 -0.01640544163714246 0.00433012669020387
v -0.00776900832714310 -0.01687651860247449 0.00469846336775514
v -0.00849808089794388 -0.01645558964739636 0.00492403881483765
v -0.00762927978100053 -0.01580249058733777 0.00482962887221070
v -0.00888265388073197 -0.01854296147356824 -0.00453289647168426
v -0.00947135512890092 -0.01820307194720105 -0.00471504147118835
v -0.01007679526867142 -0.01785352360735730 -0.00479583151406554
v -0.00975519340099564 -0.01803920018206433 -0.00138961227006225
v -0.00978367393078080 -0.01802275120745496 -0.00134597737855224
v -0.00982004897655717 -0.01800175511370496 -0.00131232602662353
v -0.00986190574230424 -0.01797758519182996 -0.00129088885850219
v -0.00990646903576127 -0.01795185887347058 -0.00128308780259399
v -0.00995078437389603 -0.01792626988421277 -0.00128943975037841
v -0.00999191253246537 -0.01790252720843152 -0.00130952413148193
v -0.00904655997814408 -0.01844832646380261 -0.00057135303086547
v -0.00908434836925736 -0.01842650639544324 -0.00053846604890136
v -0.00911349265636674 -0.01840968358050183 -0.00049646384782104
v -0.00913205688060990 -0.01839896428118543 -0.00044813211030273
v -0.00913881270946732 -0.01839506566057996 -0.00039667470521239
v -0.00913331191601029 -0.01839823948870496 -0.00034550435609130
v -0.00896038787426224 -0.01849807774554089 -0.00019999988145141
v -0.00900735442699662 -0.01847096287737683 -0.00020666368073730
v -0.00908778541149369 -0.01842452275286511 -0.00025735051697997
v -0.00905078094066849 -0.01844589268694714 -0.00022621257371215
v -0.00911591880382767 -0.01840827977190808 -0.00029801328248290
v -0.01007679526867142 -0.01785352360735730 -0.00148911626405028
v -0.01007102363170853 -0.01785685002337293 -0.00143488366669921
v -0.01005409400524369 -0.01786662327776746 -0.00138473947114257
v -0.01002712791027299 -0.01788219487200574 -0.00134200866288451
v -0.00924999969066849 -0.01602146946917371 -0.00500000007218627
v -0.00874999969066849 -0.01515544163714246 -0.00500000007218627
v -0.01000191848339310 -0.01558734929095105 -0.00492403884000091
v -0.01073099105419388 -0.01516642033587293 -0.00469846315449981
v -0.00869296996654740 -0.01634307133684949 -0.00037135274476318
v -0.00873075835766068 -0.01632125126849011 -0.00033846576279906
v -0.00865376441539994 -0.01636570775042371 -0.00000666339463500
v -0.00869719092907181 -0.01634063755999402 -0.00002621276444701
v -0.00873419730724564 -0.01631926762591199 -0.00005735070771484
v -0.00875990264477006 -0.01630442845354870 -0.00029646403855590
v -0.00877846686901322 -0.01629370915423230 -0.00024813182420043
v -0.00878522269787064 -0.01628981053362683 -0.00019667489594726
v -0.00877972190441361 -0.01629298436175183 -0.00014550454682616
v -0.00876232879223099 -0.01630302464495496 -0.00009801347321777
v -0.01104480521740189 -0.01729463994036511 -0.00118961246079711
v -0.01102632110180131 -0.01730531346331433 -0.00113931377000121
v -0.01101926963390580 -0.01730937993059949 -0.00108611304826049
v -0.01102412002147904 -0.01730657994280652 -0.00103353793687133
v -0.01104054992260209 -0.01729709660540418 -0.00098507459229736
v -0.01106747214855424 -0.01728155552874402 -0.00094393546647338
v -0.01110309951366654 -0.01726098668108777 -0.00091284902161864
v -0.01114507072033158 -0.01723674809466199 -0.00089387662476806
v -0.01119060103954545 -0.01721046483050183 -0.00088827569550780
v -0.01123667495311967 -0.01718386113177136 -0.00089641768998412
v -0.01128023498119584 -0.01715871464739636 -0.00091776330537109
v -0.00892839782299271 -0.01620714604388074 -0.00064320237702636
v -0.00924999969066849 -0.01602146946917371 -0.00074270589417724
v -0.00922729842724076 -0.01603457676897839 -0.00063832910126952
v -0.00924422805370560 -0.01602480351458386 -0.00068847329682616
v -0.00895688026012650 -0.01619070469866589 -0.00059956748551635
v -0.00899325530590287 -0.01616970097552136 -0.00056591565675048
v -0.00903511016430131 -0.01614553868304089 -0.00054447848862914
v -0.00907967345775834 -0.01611980473528699 -0.00053667743272094
v -0.00916511695446244 -0.01607047307024792 -0.00056311376160888
v -0.00912398879589310 -0.01609422337542371 -0.00054302985734252
v -0.00920033233227006 -0.01605014836321668 -0.00059559829301147
v -0.00957160155834428 -0.01583579289446668 -0.00064320237702636
v -0.00955311553539506 -0.01584646641741590 -0.00059290368623046
v -0.00954606406749955 -0.01585054051409558 -0.00053970296448974
v -0.00955091445507279 -0.01584773289690808 -0.00048712785310058
v -0.00956734435619584 -0.01583824955950574 -0.00043866403168945
v -0.00959426658214799 -0.01582270848284558 -0.00039752538270263
v -0.00962989394726029 -0.01580213963518933 -0.00036643893784789
v -0.00967186515392533 -0.01577790867815808 -0.00034746606416015
v -0.00971739547313920 -0.01575161778460340 -0.00034186561173705
v -0.00976346938671342 -0.01572501408587293 -0.00035000760621337
v -0.00980702941478959 -0.01569986760149793 -0.00037135274476318
v -0.01247665565075150 -0.01646795689593152 -0.00405331201619414
v -0.01296599929393998 -0.01618544041643933 -0.00363379485673217
v -0.01339695899547807 -0.01593662297259168 -0.00313616569108276
v -0.01376027267040482 -0.01572686802874402 -0.00257112081116943
v -0.00921976440014115 -0.01834832798968152 0.00091776316099854
v -0.00926332442821732 -0.01832317387591199 0.00089641754561158
v -0.00930939834179154 -0.01829657780657605 0.00088827555113526
v -0.00935492866100541 -0.01827028691302136 0.00089387648039552
v -0.00939689986767045 -0.01824605595599011 0.00091284887724610
v -0.00943252723278275 -0.01822548710833386 0.00094393532210084
v -0.00945944945873490 -0.01820994603167371 0.00098507444792481
v -0.00945519416393509 -0.01821240269671277 0.00118961231642457
v -0.00947587935985795 -0.01820045506487683 0.00103353826933595
v -0.00948072974743119 -0.01819765507708386 0.00108611338072511
v -0.00947367827953568 -0.01820172917376355 0.00113931362562867
v -0.01047287147106400 -0.01762484776507214 0.00134200851851197
v -0.01044590537609330 -0.01764041172991589 0.00138473932677003
v -0.01050808684887162 -0.01760451542864636 0.00130952398710938
v -0.01054921500744095 -0.01758076512347058 0.00128943960600587
v -0.01042320411266556 -0.01765351902972058 0.00148911611967774
v -0.01042897574962845 -0.01765018498431042 0.00143488352232667
v -0.01042320411266556 -0.01765351902972058 0.00479583160811158
v -0.00860679786266557 -0.01639282261858777 -0.00000000007218627
v -0.00869296996654740 -0.01634307133684949 0.00037135307722779
v -0.00873652999462357 -0.01631792485247449 0.00035000746184083
v -0.00878260390819779 -0.01629132115374402 0.00034186546736451
v -0.01138408057750931 -0.01709875523577527 0.00029801313811036
v -0.01144921844066849 -0.01706114995013074 0.00022621242933961
v -0.01141221396984330 -0.01708251988421277 0.00025735084944459
v -0.01136668746532670 -0.01710880314837292 0.00034550421171876
v -0.01136118667186967 -0.01711197697649793 0.00039667503767701
v -0.01136794250072709 -0.01710807835589246 0.00044813196593018
v -0.01138650672497025 -0.01709735905657605 0.00049646370344849
v -0.01141565101207963 -0.01708052861224011 0.00053846590452882
v -0.01145343940319291 -0.01705871617327527 0.00057135288649293
v -0.01059353034557572 -0.01755518376360730 0.00128308765822144
v -0.01063809363903275 -0.01752945744524792 0.00129088871412965
v -0.01067995040477982 -0.01750528752337293 0.00131232588225098
v -0.01071632545055619 -0.01748428380022839 0.00134597723417970
v -0.01074480598034135 -0.01746784245501355 0.00138961212568971
v -0.00882813422741166 -0.01626503026018933 0.00034746639662476
v -0.00887010543407670 -0.01624079930315808 0.00036643879347535
v -0.00890573279918900 -0.01622023045550183 0.00039752523833009
v -0.00893265502514115 -0.01620468937884167 0.00043866436415406
v -0.00894908492626420 -0.01619520604143933 0.00048712770872804
v -0.00895393531383744 -0.01619240605364636 0.00053970282011720
v -0.00894688384594193 -0.01619647252093152 0.00059290354185792
v -0.00892839782299271 -0.01620714604388074 0.00064320223265382
v -0.00927270095409623 -0.01600836216936902 0.00063832943373414
v -0.00925577132763139 -0.01601813542376355 0.00068847315245362
v -0.00924999969066849 -0.01602146946917371 0.00074270574980470
v -0.00929966704906693 -0.01599279057513074 0.00059559814863892
v -0.00933488242687455 -0.01597246586809949 0.00056311361723634
v -0.00937601058544388 -0.01594871556292371 0.00054302971296998
v -0.00942032592357865 -0.01592313420306043 0.00053667728834840
v -0.00946488921703568 -0.01589740025530652 0.00054447834425660
v -0.00950674407543412 -0.01587323796282605 0.00056591551237794
v -0.00954311912121049 -0.01585223423968152 0.00059956734114381
v -0.00973767058910599 -0.01573991429339246 0.00009801332884522
v -0.00972027747692338 -0.01574995457659558 0.00014550440245362
v -0.00976580207409135 -0.01572367131243543 0.00005735056334229
v -0.00980280845226517 -0.01570230137835340 0.00002621262007447
v -0.00971477668346635 -0.01575312840472058 0.00019667475157472
v -0.00972153251232377 -0.01574922978411511 0.00024813215666505
v -0.00974009673656693 -0.01573851048479871 0.00029646389418336
v -0.00984623496593705 -0.01567723118792371 0.00000666372709962
v -0.00989320151867142 -0.01565011631975964 -0.00000000007218627
v -0.00976924102367631 -0.01572168766985730 0.00033846561842652
v -0.00980702941478959 -0.01569986760149793 0.00037135307722779
v -0.00957160155834428 -0.01583579289446668 0.00064320223265382
v -0.01102864425243607 -0.01730397068987683 0.00471504108839722
v -0.00924999969066849 -0.01602146946917371 0.00499999992781373
v -0.00874999969066849 -0.01515544163714246 0.00499999992781373
v -0.01000191848339310 -0.01558734929095105 0.00492403881483765
v -0.01073099105419388 -0.01516642033587293 0.00469846336775514
v -0.01149264495434037 -0.01703607975970105 0.00020666353636475
v -0.01153961150707474 -0.01700896489153699 0.00019999973707887
v -0.01440331237377396 -0.01535560643206433 0.00019999973707887
v -0.01433334701122514 -0.01539599644671277 0.00089910166197511
v -0.01417560164989701 -0.01548706852923230 0.00157887594633790
v -0.01393347518505326 -0.01562686192522840 0.00222471039229127
v -0.01161734550060502 -0.01696408116350964 0.00453289692335816
v -0.01217665641369096 -0.01664116703997449 0.00425331203871461
v -0.00333666389049760 -0.01423938023577527 -0.00263041813439635
v -0.00281741683544388 -0.01453916966448621 -0.00129409511155395
v -0.00281741683544388 -0.01453916966448621 -0.00129409558839111
v -0.00281741874279252 -0.01453916966448621 -0.00129409511155395
v -0.00324999969066849 -0.01428942143450574 -0.00250000007218627
v -0.00324999778331986 -0.01428942143450574 -0.00250000007218627
v -0.00324999969066849 -0.01428942143450574 -0.00250000007218627
v -0.00318178527416459 -0.01432880436907605 -0.00230983836716918
v -0.00279012076915970 -0.01455493199358777 -0.00105466659135131
v -0.00270835464061967 -0.01460213505755261 -0.00033751876420287
v -0.00270691649975053 -0.01460296666155652 -0.00032491357392577
v -0.00357743232311478 -0.01410037266741590 -0.00011456925935058
v -0.00549999969066849 -0.01472243535052136 -0.00150000007218627
v -0.00499999969066849 -0.01385640751849011 -0.00150000007218627
v -0.00524045150341263 -0.01487228428850965 -0.00077645738190917
v -0.00474045150341263 -0.01400625645647839 -0.00077645738190917
v -0.00418157546581498 -0.01375157200823621 -0.00053730971879272
v -0.00480875747265092 -0.01338947331438855 -0.00189622027940063
v -0.00541288154186478 -0.01361802708636121 -0.00212132031983642
v -0.00496947829784623 -0.01329667698870496 -0.00179911000794677
v -0.00428021400036088 -0.01369462620745496 -0.00103379113740234
v -0.00520428435863724 -0.01316111027727918 -0.00078041513032226
v -0.00645096175731888 -0.01417339360247449 -0.00259807617730407
v -0.00707756774486771 -0.01381162297259168 -0.00289777739114074
v -0.00595096175731888 -0.01330736577044324 -0.00259807617730407
v -0.00657756774486771 -0.01294559514056043 -0.00289777739114074
v -0.00774999969066849 -0.01342339360247449 -0.00300000007218627
v -0.00724999969066849 -0.01255736577044324 -0.00300000007218627
v -0.00842243163646928 -0.01303516423235730 -0.00289777739114074
v -0.00591288154186478 -0.01448405491839246 -0.00212132031983642
v -0.00567828338207474 -0.01288745152483777 -0.00142943055695800
v -0.00592985503734818 -0.01274220311175183 -0.00140904243058471
v -0.00619811790050736 -0.01258731877337293 -0.00129213769501952
v -0.00631195800365677 -0.01252159153948621 -0.00126490552491454
v -0.00635048072399369 -0.01249935185442761 -0.00129903800553588
v -0.00660048072399369 -0.01293236577044324 -0.00129903800553588
v -0.00691378371776810 -0.01275148045550183 -0.00144888885087279
v -0.00646817939342728 -0.01243139683733777 -0.00135533244675903
v -0.00633144156994095 -0.01308770024309949 -0.00106066043442992
v -0.00612499969066849 -0.01320688664446668 -0.00075000007218627
v -0.00599522559704056 -0.01328181492815808 -0.00038822848862914
v -0.00571240394176713 -0.01286774479876355 -0.00077893359727172
v -0.00571240394176713 -0.01286774479876355 -0.00077893359727172
v -0.00574381606640092 -0.01284960972796277 -0.00071531493729858
v -0.00587499969066849 -0.01277387272845105 -0.00075000007218627
v -0.00608144156994095 -0.01265468632708386 -0.00106066043442992
v -0.00574522559704056 -0.01284880101214246 -0.00038822848862914
v -0.00570466392101517 -0.01287221562395886 -0.00003247840470580
v -0.00724999969066849 -0.01255736577044324 -0.00150000007218627
v -0.00814313285412064 -0.01146436345110730 -0.00492622168130187
v -0.00817836158336869 -0.01144402348528699 -0.00491315169400481
v -0.00718544547619096 -0.01201728856097058 -0.00304131777352599
v -0.00738340728344193 -0.01190299260149793 -0.00268152697152404
v -0.00792243163646928 -0.01216913640032605 -0.00289777739114074
v -0.00854903762401810 -0.01180736577044324 -0.00259807617730407
v -0.00658512275280228 -0.01236388432513074 -0.00141126544541625
v -0.00666378371776810 -0.01231846653948621 -0.00144888885087279
v -0.00670612685741654 -0.01229402195940808 -0.00145532567567138
v -0.00683189170421830 -0.01222141301165418 -0.00147444446152953
v -0.00695765655102006 -0.01214879643450574 -0.00149356324738769
v -0.00699999969066849 -0.01212435185442761 -0.00150000007218627
v -0.00708441512645951 -0.01207561528216199 -0.00148716743058471
v -0.00709062354625931 -0.01207202946673230 -0.00148622376984862
v -0.00749423186840287 -0.01183900486956433 -0.00218386395043639
v -0.00750059478344193 -0.01183533513079480 -0.00214760501450805
v -0.00758621566356888 -0.01236325108538465 -0.00144888885087279
v -0.00733621566356888 -0.01193024479876355 -0.00144888885087279
v -0.00751526038707963 -0.01182686650286511 -0.00158080060548095
v -0.00757167213024369 -0.01179429661761121 -0.00133856971329955
v -0.00757459800304642 -0.01179261052141980 -0.00133487184113769
v -0.00789951865734330 -0.01218236577044324 -0.00129903800553588
v -0.00772005622448197 -0.01170862614641980 -0.00133708150452880
v -0.00764951865734330 -0.01174935185442761 -0.00129903800553588
v -0.00767187850536576 -0.01173644291888074 -0.00127922589844970
v -0.00783119742931595 -0.01164446293841199 -0.00125081641740112
v -0.00809574668468705 -0.01149172245989636 -0.00135090453690795
v -0.00816855781139603 -0.01202703892718152 -0.00106066043442992
v -0.00837499969066849 -0.01190785252581433 -0.00075000007218627
v -0.00850477378429642 -0.01183292424212293 -0.00038822848862914
v -0.00791855781139603 -0.01159402501116590 -0.00106066043442992
v -0.00812499969066849 -0.01147483860979871 -0.00075000007218627
v -0.00825477378429642 -0.01139991032610730 -0.00038822848862914
v -0.00853990714611283 -0.01123529088030652 -0.00060359437531737
v -0.00828280990185013 -0.01138372075091199 -0.00014233262604980
v -0.00829346435131303 -0.01137757145891980 -0.00004889447755126
v -0.00844397704662552 -0.01129067265520886 -0.00021951253480224
v -0.00351920096935502 -0.01413399540911511 0.00093716471129151
v -0.00281741874279252 -0.01453916966448621 0.00129409496718140
v -0.00281741874279252 -0.01453916966448621 0.00129409496718140
v -0.00292602698864213 -0.01447646367083386 0.00159686653547974
v -0.00309828918041459 -0.01437700688372449 0.00207707874708863
v -0.00515192382396927 -0.01492339360247449 -0.00000000007218627
v -0.00524045150341263 -0.01487228428850965 0.00077645723753663
v -0.00465192382396928 -0.01405736577044324 -0.00000000007218627
v -0.00474045150341263 -0.01400625645647839 0.00077645723753663
v -0.00549999969066849 -0.01472243535052136 0.00149999992781373
v -0.00499999969066849 -0.01385640751849011 0.00149999992781373
v -0.00434417312206498 -0.01365769993792371 0.00021136133604737
v -0.00455051772655717 -0.01353856694231824 0.00037236826353761
v -0.00536119048656693 -0.01307051884661511 0.00084143202238770
v -0.00543844192089310 -0.01302591740618543 0.00081698839598389
v -0.00544863288463822 -0.01302003514300183 0.00082587187224122
v -0.00502352874340287 -0.01326547276507214 0.00181302921705933
v -0.00541288154186478 -0.01361802708636121 0.00212132065230103
v -0.00550320403637162 -0.01298853337298230 0.00151572315626832
v -0.00324999969066849 -0.01428942143450574 0.00249999992781373
v -0.00324999969066849 -0.01428942143450574 0.00250000088148805
v -0.00350851218761674 -0.01414016758929090 0.00288901989393922
v -0.00591288154186478 -0.01448405491839246 0.00212132065230103
v -0.00595096175731888 -0.01330736577044324 -0.00000000007218627
v -0.00599522559704056 -0.01328181492815808 0.00038822834425660
v -0.00612499969066849 -0.01320688664446668 0.00074999992781373
v -0.00633144156994095 -0.01308770024309949 0.00106066029005738
v -0.00570096175731888 -0.01287435185442761 -0.00000000007218627
v -0.00571011321605912 -0.01286907231341199 0.00008026163511964
v -0.00574522559704056 -0.01284880101214246 0.00038822834425660
v -0.00587499969066849 -0.01277387272845105 0.00074999992781373
v -0.00608144156994095 -0.01265468632708386 0.00106066029005738
v -0.00625944869579545 -0.01255191075335339 0.00121838037901612
v -0.00581885116161576 -0.01280629002581433 0.00145619385176392
v -0.00612179534496537 -0.01263138615618543 0.00132155363493653
v -0.00631659858288041 -0.01251891362200574 0.00126901571684571
v -0.00635048072399369 -0.01249935185442761 0.00129903786116334
v -0.00660048072399369 -0.01293236577044324 0.00129903786116334
v -0.00691378371776810 -0.01275148045550183 0.00144888870650025
v -0.00642914359630814 -0.01245393406878308 0.00133666174345704
v -0.00724999969066849 -0.01255736577044324 0.00149999992781373
v -0.00645096175731888 -0.01417339360247449 0.00259807579451295
v -0.00707756774486771 -0.01381162297259168 0.00289777748518678
v -0.00595096175731888 -0.01330736577044324 0.00259807579451295
v -0.00657756774486771 -0.01294559514056043 0.00289777748518678
v -0.00774999969066849 -0.01342339360247449 0.00299999992781373
v -0.00724999969066849 -0.01255736577044324 0.00299999992781373
v -0.00842243163646928 -0.01303516423235730 0.00289777748518678
v -0.00699999969066849 -0.01212435185442761 -0.00000000007218627
v -0.00654608504833451 -0.01238642155657605 0.00139259426527711
v -0.00666378371776810 -0.01231846653948621 0.00144888870650025
v -0.00666378371776810 -0.01231846653948621 0.00144888870650025
v -0.00679009025158158 -0.01224554478655652 0.00146808950834962
v -0.00691558425487748 -0.01217308842669324 0.00148716728621217
v -0.00699999969066849 -0.01212435185442761 0.00149999992781373
v -0.00704234283031693 -0.01209990727434949 0.00149356310301514
v -0.00707519309581986 -0.01208094059954480 0.00148856918745728
v -0.00854903762401810 -0.01180736577044324 -0.00000000007218627
v -0.00850477378429642 -0.01183292424212293 0.00038822834425660
v -0.00816855781139603 -0.01202703892718152 0.00106066029005738
v -0.00837499969066849 -0.01190785252581433 0.00074999992781373
v -0.00775058906139603 -0.01169100224505261 0.00120948641234132
v -0.00778378455700150 -0.01167183720599011 0.00118007414274903
v -0.00829903762401810 -0.01137435185442761 -0.00000000007218627
v -0.00828792541088334 -0.01138076817522840 0.00009747402601930
v -0.00827669112743607 -0.01138725316057996 0.00019600431853028
v -0.00846125953258744 -0.01128069340716199 0.00027857725554200
v -0.00825477378429642 -0.01139991032610730 0.00038822834425660
v -0.00839022224010697 -0.01132170903216199 0.00043013660841676
v -0.00812499969066849 -0.01147483860979871 0.00074999992781373
v -0.00791855781139603 -0.01159402501116590 0.00106066029005738
v -0.00758621566356888 -0.01236325108538465 0.00144888870650025
v -0.00733621566356888 -0.01193024479876355 0.00144888870650025
v -0.00758635299267045 -0.01178582036028699 0.00132924930983277
v -0.00757120101513138 -0.01179457127581433 0.00145569364958497
v -0.00748848884166947 -0.01184232365618543 0.00166166250639649
v -0.00742861335338822 -0.01187689244280652 0.00212259380751344
v -0.00789951865734330 -0.01218236577044324 0.00129903786116334
v -0.00764951865734330 -0.01174935185442761 0.00129903786116334
v -0.00797568099560013 -0.01156104313860730 0.00128466360502930
v -0.00732418983043900 -0.01193717991839246 0.00284341232710572
v -0.00716469924511185 -0.01202926671038465 0.00326044933729859
v -0.00792243163646928 -0.01216913640032605 0.00289777748518678
v -0.00854903762401810 -0.01180736577044324 0.00259807579451295
v -0.00987071960033646 -0.01450840031634168 -0.00482962913579253
v -0.01141506354870072 -0.01477146946917371 -0.00433012707299499
v -0.01091506354870072 -0.01390544163714246 -0.00433012707299499
v -0.00904903762401810 -0.01267339360247449 -0.00259807617730407
v -0.01203335158886185 -0.01441449772845105 -0.00383022220200805
v -0.01256706969799271 -0.01410636174212293 -0.00321393807000426
v -0.01181186263622513 -0.01338768040667371 -0.00353553397721557
v -0.01299999969066849 -0.01385640751849011 -0.00250000007218627
v -0.01249999969066849 -0.01299037968645886 -0.00250000007218627
v -0.01293258063854447 -0.01274063145647840 -0.00129409511155395
v -0.01331898849071732 -0.01367224156390027 -0.00171010072297362
v -0.01351434295238724 -0.01355944859515027 -0.00086824090546874
v -0.00958711783947220 -0.01236273228655652 -0.00212132031983642
v -0.00999999969066849 -0.01212435185442761 -0.00150000007218627
v -0.00908711783947221 -0.01149670445452527 -0.00212132031983642
v -0.00949999969066849 -0.01125833165179090 -0.00150000007218627
v -0.00857912795604935 -0.01121263920794324 -0.00042516191071777
v -0.01025954787792435 -0.01197450291643933 -0.00077645738190917
v -0.00909391562999955 -0.01091542851458386 -0.00212039454049377
v -0.00919829337658158 -0.01085517155657605 -0.00187603099412231
v -0.00920083968700638 -0.01085369908343152 -0.00182107789582519
v -0.00965609901012650 -0.01059085881243543 -0.00177073199815063
v -0.00979295318187943 -0.01051184117327527 -0.00160153062409667
v -0.00991388289989701 -0.01044202458391980 -0.00202212698525695
v -0.00989989059032670 -0.01045010411272840 -0.00151718766755370
v -0.00975954787792435 -0.01110848271380261 -0.00077645738190917
v -0.00987071960033646 -0.01450840031634168 0.00482962887221070
v -0.01141506354870072 -0.01477146946917371 0.00433012669020387
v -0.01091506354870072 -0.01390544163714246 0.00433012669020387
v -0.00904903762401810 -0.01267339360247449 0.00259807579451295
v -0.01293258063854447 -0.01274063145647840 0.00129409496718140
v -0.01358012740673295 -0.01352146946917371 -0.00000000007218627
v -0.01351434295238724 -0.01355944859515027 0.00086824076109620
v -0.01308012740673295 -0.01265544163714246 -0.00000000007218627
v -0.01331898849071732 -0.01367224156390027 0.00171010057860108
v -0.01256706969799271 -0.01410636174212293 0.00321393768721314
v -0.01203335158886185 -0.01441449772845105 0.00383022205763551
v -0.01299999969066849 -0.01385640751849011 0.00249999992781373
v -0.01181186263622513 -0.01338768040667371 0.00353553383284303
v -0.01249999969066849 -0.01299037968645886 0.00249999992781373
v -0.00999999969066849 -0.01212435185442761 0.00149999992781373
v -0.00958711783947220 -0.01236273228655652 0.00212132065230103
v -0.00908711783947221 -0.01149670445452527 0.00212132065230103
v -0.00949999969066849 -0.01125833165179090 0.00149999992781373
v -0.01034807555736771 -0.01192339360247449 -0.00000000007218627
v -0.01025954787792435 -0.01197450291643933 0.00077645723753663
v -0.00984807555736771 -0.01105736577044324 -0.00000000007218627
v -0.00975954787792435 -0.01110848271380261 0.00077645723753663
v -0.00933921783031693 -0.01077380406390027 0.00101662104063722
v -0.00878907363476029 -0.01109143101702527 0.00195271389418336
v -0.00888908927501908 -0.01103368412981824 0.00201008598738404
v -0.00928359000744096 -0.01080592381487683 0.00202333538466187
v -0.00953423278393021 -0.01066121708880261 0.00181967728071900
v -0.00937179343761674 -0.01075499760638074 0.00198657457762452
v -0.01020506064953080 -0.01027391087542371 0.00164245169096681
v -0.01007754104198685 -0.01034753453265027 0.00213850872450562
v -0.01066376655163041 -0.01000907933245496 0.00228841869765015
v -0.01096124427379838 -0.00983732640276746 0.00225567238264771
v -0.01094818275036088 -0.00984487187395886 0.00228281204634400
v -0.01018734138073197 -0.01028414189349011 0.00352685253554078
v -0.01022361152233353 -0.01026319920550183 0.00348632042341920
f 6 12 2
f 7 1 3
f 3 19 10
f 2 12 1
f 1 11 3
f 12 11 1
f 3 21 19
f 11 21 3
f 16 13 4
f 16 4 38
f 4 13 41
f 8 1 7
f 7 3 9
f 9 3 10
f 9 10 54
f 10 19 54
f 8 7 48
f 7 9 48
f 9 54 48
f 8 2 1
f 8 48 2
f 2 48 67
f 54 19 132
f 15 12 6
f 15 222 12
f 12 205 11
f 11 207 21
f 12 222 205
f 11 205 207
f 207 284 21
f 14 15 5
f 13 14 5
f 5 15 6
f 16 14 13
f 16 18 14
f 17 18 16
f 5 6 88
f 13 5 88
f 14 215 15
f 15 215 222
f 17 64 18
f 18 216 14
f 6 2 67
f 6 67 88
f 19 21 20
f 21 30 20
f 20 30 22
f 30 31 22
f 22 31 23
f 23 31 28
f 114 24 25
f 19 20 132
f 133 20 22
f 133 22 23
f 114 23 24
f 133 23 114
f 24 28 25
f 114 25 26
f 24 23 28
f 25 29 26
f 25 28 29
f 121 26 27
f 121 27 33
f 26 29 27
f 29 33 27
f 21 284 30
f 30 285 31
f 30 284 285
f 285 288 31
f 31 32 28
f 288 32 31
f 132 20 133
f 157 121 33
f 288 301 32
f 28 32 29
f 32 34 29
f 29 34 33
f 157 33 35
f 160 35 36
f 33 34 35
f 34 37 35
f 35 37 36
f 301 34 32
f 301 320 34
f 34 320 37
f 37 182 36
f 39 16 38
f 38 4 41
f 39 38 59
f 40 39 59
f 38 41 59
f 41 42 43
f 41 43 44
f 59 41 60
f 41 44 45
f 41 46 47
f 41 47 62
f 41 45 46
f 41 62 61
f 60 41 61
f 48 54 49
f 49 54 50
f 50 54 51
f 51 54 52
f 52 54 53
f 57 54 55
f 54 56 58
f 53 54 58
f 57 56 54
f 55 54 132
f 57 55 69
f 48 49 67
f 49 50 68
f 50 51 72
f 51 52 73
f 52 53 74
f 57 70 56
f 53 58 76
f 58 56 71
f 39 17 16
f 40 17 39
f 40 59 63
f 40 63 17
f 17 63 64
f 63 65 64
f 65 363 64
f 63 89 65
f 65 89 66
f 65 66 363
f 66 99 364
f 13 88 41
f 63 59 89
f 49 68 67
f 50 72 68
f 51 73 72
f 52 74 73
f 53 76 75
f 53 75 74
f 57 69 70
f 55 132 69
f 58 71 76
f 56 70 71
f 41 88 42
f 42 92 43
f 43 93 44
f 44 94 45
f 46 45 95
f 61 62 90
f 47 46 96
f 62 47 98
f 59 60 89
f 60 61 91
f 42 88 92
f 43 92 93
f 92 67 68
f 60 91 89
f 44 93 94
f 45 94 95
f 46 95 97
f 46 97 96
f 47 96 98
f 61 90 91
f 62 98 90
f 77 78 79
f 77 79 80
f 77 80 81
f 77 81 82
f 77 82 83
f 77 83 84
f 77 84 85
f 77 85 86
f 77 86 87
f 99 78 77
f 78 100 79
f 79 101 80
f 80 102 81
f 81 103 82
f 82 105 83
f 83 106 84
f 84 107 85
f 85 108 86
f 99 100 78
f 79 100 101
f 80 101 102
f 81 102 103
f 82 103 104
f 82 104 105
f 87 86 109
f 66 89 99
f 88 67 92
f 92 68 93
f 93 68 72
f 94 72 73
f 95 73 74
f 97 74 75
f 93 72 94
f 94 73 95
f 95 74 97
f 96 97 103
f 97 75 104
f 91 90 100
f 89 91 99
f 91 100 99
f 90 98 101
f 98 96 102
f 90 101 100
f 98 102 101
f 96 103 102
f 97 104 103
f 104 75 169
f 104 169 105
f 105 168 106
f 106 170 107
f 109 108 176
f 107 175 108
f 105 169 168
f 106 168 170
f 107 170 171
f 107 171 175
f 108 175 176
f 364 99 77
f 87 109 370
f 83 105 106
f 84 106 107
f 85 107 108
f 86 108 109
f 110 77 111
f 111 87 112
f 110 111 367
f 110 367 364
f 110 364 77
f 111 112 367
f 112 113 368
f 111 77 87
f 112 87 113
f 113 87 370
f 115 114 121
f 116 115 121
f 116 121 117
f 117 121 118
f 118 121 119
f 133 114 115
f 134 115 116
f 135 116 117
f 150 117 118
f 119 121 120
f 120 121 122
f 122 121 123
f 123 121 124
f 114 26 121
f 126 130 149
f 125 126 149
f 130 129 149
f 134 133 115
f 134 116 135
f 150 135 117
f 151 118 119
f 153 119 120
f 157 124 121
f 154 120 122
f 155 122 123
f 156 123 124
f 150 118 151
f 151 119 152
f 152 119 153
f 69 132 134
f 70 69 135
f 69 134 135
f 132 133 134
f 76 71 150
f 71 70 135
f 71 135 150
f 153 120 154
f 154 122 155
f 155 123 156
f 156 124 157
f 159 160 130
f 161 158 125
f 158 159 126
f 162 161 127
f 163 162 128
f 164 163 128
f 164 145 165
f 165 146 166
f 166 147 167
f 167 148 179
f 157 35 160
f 160 181 129
f 159 130 126
f 158 126 125
f 160 129 130
f 161 125 127
f 162 127 128
f 164 128 145
f 165 145 146
f 166 146 147
f 167 147 148
f 179 148 149
f 137 138 186
f 186 136 139
f 186 138 136
f 186 139 140
f 186 140 141
f 186 141 142
f 186 142 143
f 186 143 144
f 168 139 136
f 170 136 138
f 171 138 137
f 172 140 139
f 173 141 140
f 174 142 141
f 177 143 142
f 178 144 143
f 175 137 185
f 176 185 186
f 145 128 149
f 125 149 127
f 128 127 149
f 145 149 146
f 146 149 147
f 147 149 148
f 129 191 149
f 75 76 151
f 76 150 151
f 75 151 152
f 75 152 169
f 152 153 163
f 153 154 162
f 154 155 161
f 155 156 158
f 154 161 162
f 155 158 161
f 153 162 163
f 156 157 159
f 157 160 159
f 156 159 158
f 169 152 163
f 169 163 172
f 172 163 164
f 173 164 165
f 172 164 173
f 174 165 166
f 177 166 167
f 173 165 174
f 178 167 179
f 174 166 177
f 177 167 178
f 171 170 138
f 170 168 136
f 171 137 175
f 169 172 139
f 172 173 140
f 168 169 139
f 173 174 141
f 174 177 142
f 177 178 143
f 175 185 176
f 178 400 144
f 179 149 390
f 178 179 398
f 131 181 183
f 129 131 180
f 129 180 191
f 149 192 390
f 129 181 131
f 131 183 180
f 191 180 184
f 160 36 181
f 36 182 181
f 181 182 183
f 183 182 389
f 179 390 399
f 183 184 180
f 183 389 184
f 192 184 390
f 137 186 185
f 186 144 188
f 176 186 394
f 144 400 190
f 186 188 187
f 144 189 188
f 186 187 394
f 144 190 189
f 149 191 192
f 192 191 184
f 196 195 194
f 199 198 200
f 197 210 193
f 199 200 235
f 196 194 201
f 202 203 204
f 196 201 209
f 202 204 209
f 205 206 207
f 222 211 205
f 211 206 205
f 207 208 284
f 196 209 239
f 208 286 284
f 206 208 207
f 206 233 208
f 208 302 286
f 197 238 210
f 211 232 206
f 197 237 238
f 197 234 237
f 238 212 210
f 238 223 212
f 196 239 213
f 239 209 204
f 239 214 213
f 208 233 302
f 239 204 240
f 239 236 214
f 14 216 215
f 18 64 219
f 18 219 216
f 64 221 219
f 218 217 215
f 216 218 215
f 216 220 218
f 216 219 220
f 219 246 220
f 219 221 246
f 217 211 222
f 215 217 222
f 217 231 211
f 211 231 232
f 217 228 231
f 218 228 217
f 238 224 223
f 238 225 224
f 218 229 228
f 218 241 229
f 220 241 218
f 228 227 226
f 228 230 227
f 229 248 228
f 229 249 248
f 228 248 230
f 229 250 249
f 229 251 250
f 241 252 229
f 206 232 233
f 232 237 233
f 233 239 302
f 237 234 236
f 231 238 232
f 231 226 238
f 238 237 232
f 238 226 225
f 237 239 233
f 237 236 239
f 239 240 302
f 240 306 302
f 228 226 231
f 220 258 241
f 256 243 242
f 221 247 246
f 256 257 243
f 229 252 251
f 241 253 252
f 220 246 258
f 246 263 258
f 259 245 244
f 259 244 255
f 259 256 245
f 259 257 256
f 241 258 259
f 241 254 253
f 241 255 254
f 241 259 255
f 258 263 262
f 259 260 257
f 259 258 262
f 259 261 260
f 259 262 261
f 263 265 262
f 263 266 265
f 246 247 263
f 247 269 263
f 377 270 269
f 266 267 264
f 272 382 268
f 263 269 272
f 272 266 263
f 269 270 273
f 272 267 266
f 269 273 272
f 272 268 267
f 270 274 273
f 272 273 383
f 270 271 274
f 271 336 277
f 271 276 274
f 271 277 276
f 336 342 277
f 274 278 379
f 274 379 275
f 274 276 278
f 281 282 292
f 308 279 281
f 281 280 282
f 298 294 283
f 298 300 295
f 284 286 285
f 285 287 288
f 286 287 285
f 286 302 287
f 303 289 287
f 288 289 301
f 287 289 288
f 289 296 301
f 308 291 279
f 308 290 291
f 308 281 293
f 281 292 293
f 302 303 287
f 308 307 290
f 308 293 294
f 309 294 298
f 298 295 297
f 304 296 289
f 309 298 310
f 310 298 297
f 298 299 300
f 301 296 320
f 302 307 303
f 303 308 304
f 303 304 289
f 302 306 307
f 303 307 308
f 308 309 304
f 308 294 309
f 304 309 305
f 309 310 305
f 305 310 316
f 310 313 311
f 310 311 316
f 304 305 296
f 305 316 322
f 296 322 320
f 305 322 296
f 316 323 322
f 310 297 312
f 310 312 313
f 316 311 314
f 316 314 315
f 316 315 318
f 316 318 317
f 317 318 328
f 317 328 330
f 317 330 329
f 317 329 331
f 317 331 319
f 316 317 323
f 317 325 323
f 317 319 325
f 319 350 325
f 37 320 321
f 320 322 321
f 321 324 182
f 37 321 182
f 322 323 321
f 321 323 324
f 324 323 325
f 324 325 326
f 325 361 326
f 392 326 361
f 319 331 332
f 319 332 333
f 338 356 340
f 338 340 341
f 339 338 349
f 336 337 346
f 336 344 343
f 336 346 344
f 336 343 342
f 337 348 346
f 346 345 344
f 346 347 345
f 339 349 348
f 338 341 349
f 349 341 358
f 337 339 348
f 319 333 334
f 319 334 350
f 350 334 335
f 351 350 335
f 351 356 350
f 351 355 354
f 351 352 356
f 351 354 353
f 351 353 352
f 356 352 357
f 356 357 340
f 356 361 350
f 350 361 325
f 351 335 360
f 351 360 355
f 339 405 338
f 338 362 356
f 356 362 361
f 349 358 413
f 348 349 416
f 412 413 358
f 360 359 355
f 392 361 362
f 64 363 221
f 363 66 365
f 66 364 365
f 364 367 365
f 363 365 366
f 363 366 221
f 221 366 247
f 365 375 366
f 365 369 375
f 369 371 376
f 109 176 374
f 369 376 375
f 365 367 369
f 112 368 367
f 367 368 369
f 113 370 368
f 369 368 371
f 368 370 371
f 109 373 370
f 109 374 373
f 374 176 394
f 370 373 371
f 371 373 372
f 371 372 380
f 372 396 407
f 373 374 372
f 374 394 396
f 372 374 396
f 366 375 377
f 366 377 247
f 247 377 269
f 375 376 378
f 377 378 270
f 375 378 377
f 376 388 378
f 378 271 270
f 273 274 385
f 378 388 271
f 388 336 271
f 376 380 388
f 388 409 336
f 380 409 388
f 371 380 376
f 372 407 380
f 380 407 409
f 382 381 268
f 272 383 382
f 273 386 383
f 273 384 386
f 273 385 384
f 274 275 385
f 385 275 387
f 403 402 404
f 324 389 182
f 326 391 389
f 179 399 398
f 391 184 389
f 399 390 391
f 390 184 391
f 324 326 389
f 392 391 326
f 392 401 391
f 404 401 392
f 404 402 401
f 178 398 400
f 189 395 188
f 187 188 395
f 394 187 395
f 190 400 397
f 189 190 397
f 189 397 395
f 396 393 408
f 393 397 402
f 397 400 402
f 403 393 402
f 394 395 396
f 396 395 393
f 395 397 393
f 398 399 401
f 401 399 391
f 402 398 401
f 400 398 402
f 336 410 337
f 337 406 339
f 337 410 406
f 336 409 410
f 407 410 409
f 408 406 410
f 404 392 362
f 338 405 362
f 404 362 405
f 408 403 406
f 403 404 405
f 339 406 405
f 349 413 414
f 403 405 406
f 407 396 408
f 408 393 403
f 407 408 410
f 346 348 418
f 346 419 347
f 419 411 347
f 349 414 416
f 348 416 415
f 348 415 418
f 346 418 419
f 412 422 413
f 417 411 419
f 417 419 421
f 417 421 420
f 413 422 423
f 199 235 198
f 197 193 234
f 198 235 200
f 194 195 201
f 196 213 195
f 201 195 209
f 202 209 203
f 204 203 240
f 327 193 210
f 327 195 213
f 327 209 195
f 327 203 209
f 327 234 193
f 327 240 203
f 327 210 212
f 327 213 214
f 227 230 226
f 327 212 223
f 327 223 224
f 327 214 236
f 327 236 234
f 327 306 240
f 327 224 225
f 242 243 257
f 327 225 226
f 327 226 230
f 327 230 248
f 327 248 249
f 327 249 250
f 327 250 251
f 327 251 252
f 327 252 253
f 327 253 254
f 327 254 255
f 255 244 245
f 242 327 256
f 242 257 327
f 327 245 256
f 327 255 245
f 266 262 265
f 327 381 382
f 327 257 260
f 327 260 261
f 327 261 262
f 327 262 266
f 327 266 264
f 327 264 267
f 327 267 268
f 327 268 381
f 327 382 383
f 327 387 275
f 327 275 379
f 327 276 277
f 327 277 342
f 327 278 276
f 327 379 278
f 281 279 280
f 280 279 282
f 283 299 298
f 283 294 299
f 290 307 291
f 327 282 279
f 292 282 293
f 327 279 291
f 327 293 282
f 327 299 294
f 327 300 299
f 327 295 300
f 327 291 307
f 327 294 293
f 327 307 306
f 327 297 295
f 327 313 312
f 327 312 297
f 327 311 313
f 315 314 318
f 327 314 311
f 327 318 314
f 327 328 318
f 327 330 328
f 327 329 330
f 327 331 329
f 327 332 331
f 327 333 332
f 327 334 333
f 327 335 334
f 327 352 353
f 327 357 352
f 327 353 354
f 327 340 357
f 327 341 340
f 327 358 341
f 327 342 343
f 327 343 344
f 327 344 345
f 327 345 347
f 327 347 411
f 327 412 358
f 327 359 335
f 327 354 355
f 327 355 359
f 327 414 413
f 360 335 359
f 327 383 384
f 386 384 383
f 327 384 385
f 327 385 387
f 327 415 414
f 327 423 412
f 327 413 423
f 327 411 417
f 327 418 415
f 327 419 418
f 327 417 420
f 327 420 419
f 416 414 415
f 420 421 419
f 423 422 412

