# https://github.com/mikedh/trimesh
v -0.02049999994529222 0.00405330899947728 -0.00257112081102392
v -0.02049999994529222 0.00363379911178197 -0.00313616569093725
v -0.02049999994529222 0.00313616422408666 -0.00363379485658667
v -0.01849999994529222 0.00321393827193822 -0.00383022220186254
v -0.01849999994529222 0.00383022550338353 -0.00321393806985876
v -0.01749999994529222 0.00353553251021947 -0.00353553397707006
v -0.01849999994529222 0.00469846585982885 -0.00171010072282812
v -0.01849999994529222 0.00433013395064916 -0.00250000007204077
v -0.01849999994529222 0.00492403653853978 -0.00086824090532324
v -0.01749999994529222 0.00482963041061010 -0.00129409511140844
v -0.01749999994529222 0.00433013395064916 -0.00250000007204077
v -0.02049999994529222 0.00257111600631322 -0.00405331201604864
v -0.02049999994529222 0.00118961576217260 -0.00091776330522558
v -0.02049999994529222 0.00113930753463353 -0.00089641768983862
v -0.02049999994529222 0.00108611539596166 -0.00088827569536230
v -0.02049999994529222 0.00103353360885228 -0.00089387662462255
v -0.02049999994529222 0.00091776517623510 -0.00118961246065161
v -0.02049999994529222 0.00089641813033666 -0.00113931376985571
v -0.02049999994529222 0.00094393399947728 -0.00094393546632788
v -0.02049999994529222 0.00088826993697728 -0.00108611304811499
v -0.02049999994529222 0.00089386991256322 -0.00103353793672583
v -0.02049999994529222 0.00091285184615697 -0.00098507459215185
v -0.02049999994529222 0.00098507169478978 -0.00091284902147314
v -0.01849999994529222 0.00249999479049291 -0.00433012707284948
v -0.01849999994529222 0.00171010831588353 -0.00469846315435430
v -0.01749999994529222 0.00249999479049291 -0.00433012707284948
v -0.01849999994529222 0.00086823514693822 -0.00492403883985540
v -0.01749999994529222 0.00129409269088353 -0.00482962913564703
v -0.01849999994529222 0.00037134793990697 -0.00064320237688086
v -0.01849999994529222 0.00064319852584447 -0.00037135274461767
v -0.01849999994529222 0.00059290555709447 -0.00035000760606787
v -0.01849999994529222 0.00053969815963353 -0.00034186561159155
v -0.01849999994529222 0.00048713163131322 -0.00034746606401464
v -0.01849999994529222 0.00036643460982885 -0.00043866403154394
v -0.01849999994529222 0.00039753202193822 -0.00039752538255712
v -0.01849999994529222 0.00043866971725072 -0.00036643893770239
v -0.01849999994529222 0.00035000089400853 -0.00059290368608496
v -0.01849999994529222 0.00034186795943822 -0.00053970296434423
v -0.01849999994529222 0.00034746793502416 -0.00048712785295507
v -0.02049999994529222 0.00479583219283666 0.00019999973722437
v -0.02049999994529222 0.00471503690475072 0.00089910166212061
v -0.02049999994529222 0.00453289273971166 0.00157887594648340
v -0.02049999994529222 0.00425330594771947 0.00222471039243677
v -0.01849999994529222 0.00499999479049291 -0.00000000007204077
v -0.01849999994529222 0.00492403653853978 0.00086824076124170
v -0.01849999994529222 0.00469846585982885 0.00171010057874659
v -0.01749999994529222 0.00499999479049291 -0.00000000007204077
v -0.01749999994529222 0.00482963041061010 0.00129409496732691
v -0.01849999994529222 0.00433013395064916 0.00249999992795923
v -0.01749999994529222 0.00433013395064916 0.00249999992795923
v -0.01849999994529222 0.00383022550338353 0.00321393768735865
v -0.01849999994529222 0.00321393827193822 0.00383022205778101
v -0.01749999994529222 0.00353553251021947 0.00353553383298853
v -0.02049999994529222 0.00148911527389135 0.00019999973722437
v -0.02049999994529222 0.00143488553756322 0.00020666353651026
v -0.02049999994529222 0.00138474515670385 0.00022621242948511
v -0.02049999994529222 0.00134200528853978 0.00025735084959009
v -0.02049999994529222 0.00134597257369603 0.00053846590467432
v -0.02049999994529222 0.00138961271041478 0.00057135288663843
v -0.02049999994529222 0.00130951932662572 0.00029801313825586
v -0.02049999994529222 0.00128943876021947 0.00034550421186426
v -0.02049999994529222 0.00128309110396947 0.00039667503782251
v -0.02049999994529222 0.00129088834518041 0.00044813196607569
v -0.02049999994529222 0.00131232694381322 0.00049646370359400
v -0.02049999994529222 0.00057136014693822 0.00138961212583521
v -0.02049999994529222 0.00053846219771947 0.00134597723432520
v -0.02049999994529222 0.00049647001021947 0.00131232588239649
v -0.02049999994529222 0.00044813016646947 0.00129088871427515
v -0.02049999994529222 0.00039667752975072 0.00128308765836695
v -0.02049999994529222 0.00034549955123510 0.00128943960615137
v -0.02049999994529222 0.00029801419967260 0.00130952398725489
v -0.02049999994529222 0.00025734952682103 0.00134200851865748
v -0.02049999994529222 0.00022620633834447 0.00138473932691553
v -0.02049999994529222 0.00020665982955541 0.00143488352247217
v -0.02049999994529222 0.00020000699752416 0.00148911611982325
v -0.02049999994529222 0.00222471097701635 0.00425331203886011
v -0.02049999994529222 0.00157888272994603 0.00453289692350367
v -0.02049999994529222 0.00089910367721166 0.00471504108854273
v -0.02049999994529222 0.00020000699752416 0.00479583160825708
v -0.01849999994529222 0.00074270108932103 -0.00000000007204077
v -0.01849999994529222 0.00068847135299291 0.00000666372724512
v -0.01849999994529222 0.00063833097213353 0.00002621262021998
v -0.01849999994529222 0.00059559110396947 0.00005735056348780
v -0.01849999994529222 0.00056312040084447 0.00009801332899073
v -0.01849999994529222 0.00054302457564916 0.00014550440259913
v -0.01849999994529222 0.00053667691939916 0.00019667475172022
v -0.01849999994529222 0.00056591275924291 0.00029646389432886
v -0.01849999994529222 0.00054447416061010 0.00024813215681055
v -0.01849999994529222 0.00064319852584447 0.00037135307737330
v -0.01849999994529222 0.00059957364791478 0.00033846561857203
v -0.01849999994529222 0.00033846524947728 0.00059956734128931
v -0.01849999994529222 0.00029645780318822 0.00056591551252344
v -0.01849999994529222 0.00024813321822728 0.00054447834440210
v -0.01849999994529222 0.00019668058150853 0.00053667728849390
v -0.01849999994529222 0.00014550260299291 0.00054302971311548
v -0.01849999994529222 0.00009801725143041 0.00056311361738184
v -0.01849999994529222 0.00005735257857885 0.00059559814878443
v -0.01849999994529222 0.00037134793990697 0.00064320223279932
v -0.01849999994529222 0.00249999479049291 0.00433012669034937
v -0.01849999994529222 0.00171010831588353 0.00469846336790064
v -0.01749999994529222 0.00249999479049291 0.00433012669034937
v -0.01849999994529222 0.00086823514693822 0.00492403881498316
v -0.01749999994529222 0.00129409269088353 0.00482962887235621
v -0.01399999994529222 0.00394234708541478 -0.00323540575555822
v -0.01399999994529222 0.00424048856490697 -0.00283340818933508
v -0.01399999994529222 0.00323540738814916 -0.00394235332063696
v -0.01399999994529222 0.00283341459029760 -0.00424049503854773
v -0.01399999994529222 0.00360624173873510 -0.00360624463609716
v -0.01399999994529222 0.00449779752486791 -0.00240412337831518
v -0.01399999994529222 0.00471178678268041 -0.00195168550066015
v -0.01399999994529222 0.00488039640182103 -0.00148045165590307
v -0.01399999994529222 0.00500200895064916 -0.00099496085695288
v -0.01399999994529222 0.00507544950240697 -0.00049988753847143
v -0.01549999994529222 0.00259807828658666 -0.00150000007204077
v -0.01549999994529222 0.00289777616256322 -0.00077645738176367
v -0.01449999994529222 0.00259807828658666 -0.00150000007204077
v -0.01449999994529222 0.00289777616256322 -0.00077645738176367
v -0.01549999994529222 0.00149999479049291 -0.00259807617715857
v -0.01399999994529222 0.00240412381881322 -0.00449779839567205
v -0.01399999994529222 0.00195168546432103 -0.00471178562692663
v -0.01399999994529222 0.00148044828170385 -0.00488039572290441
v -0.01449999994529222 0.00149999479049291 -0.00259807617715857
v -0.01549999994529222 0.00077645353072728 -0.00289777739099524
v -0.01399999994529222 0.00100297025436010 -0.00500000007204077
v -0.01449999994529222 0.00077645353072728 -0.00289777739099524
v -0.01549999994529222 0.00212131742232885 -0.00212132031969091
v -0.01449999994529222 0.00212131742232885 -0.00212132031969091
v -0.01449999994529222 0.00144889310592260 -0.00038822848848364
v -0.01399999994529222 0.00144889310592260 -0.00038822848848364
v -0.01449999994529222 0.00074999479049291 -0.00129903800539038
v -0.01399999994529222 0.00074999479049291 -0.00129903800539038
v -0.01449999994529222 0.00038822416061010 -0.00144888885072729
v -0.01399999994529222 0.00038822416061010 -0.00144888885072729
v -0.01449999994529222 0.00106066373580541 -0.00106066043428442
v -0.01449999994529222 0.00129903653853978 -0.00075000007204077
v -0.01399999994529222 0.00106066373580541 -0.00106066043428442
v -0.01399999994529222 0.00129903653853978 -0.00075000007204077
v -0.01399999994529222 0.00510000089400853 -0.00000000007204077
v -0.01399999994529222 0.00507544950240697 0.00049988739438990
v -0.01399999994529222 0.00500200895064916 0.00099496071287134
v -0.01399999994529222 0.00488039640182103 0.00148045198865870
v -0.01399999994529222 0.00471178678268041 0.00195168535657862
v -0.01399999994529222 0.00449779752486791 0.00240412323423365
v -0.01549999994529222 0.00299999479049291 -0.00000000007204077
v -0.01549999994529222 0.00289777616256322 0.00077645723768213
v -0.01549999994529222 0.00259807828658666 0.00149999992795923
v -0.01449999994529222 0.00299999479049291 -0.00000000007204077
v -0.01449999994529222 0.00289777616256322 0.00077645723768213
v -0.01449999994529222 0.00259807828658666 0.00149999992795923
v -0.01399999994529222 0.00424048856490697 0.00283340828367212
v -0.01399999994529222 0.00394234708541478 0.00323540584989527
v -0.01399999994529222 0.00360624173873510 0.00360624496885279
v -0.01399999994529222 0.00323540738814916 0.00394235317655542
v -0.01399999994529222 0.00283341459029760 0.00424049465604761
v -0.01549999994529222 0.00212131742232885 0.00212132065244654
v -0.01449999994529222 0.00149999479049291 -0.00000000007204077
v -0.01449999994529222 0.00144889310592260 0.00038822834440210
v -0.01399999994529222 0.00149999479049291 -0.00000000007204077
v -0.01399999994529222 0.00144889310592260 0.00038822834440210
v -0.01449999994529222 0.00212131742232885 0.00212132065244654
v -0.01449999994529222 0.00129903653853978 0.00074999992795923
v -0.01449999994529222 0.00106066373580541 0.00106066029020289
v -0.01399999994529222 0.00129903653853978 0.00074999992795923
v -0.01399999994529222 0.00106066373580541 0.00106066029020289
v -0.01449999994529222 0.00074999479049291 0.00129903786130884
v -0.01399999994529222 0.00074999479049291 0.00129903786130884
v -0.01449999994529222 0.00038822416061010 0.00144888870664576
v -0.01399999994529222 0.00038822416061010 0.00144888870664576
v -0.01549999994529222 0.00149999479049291 0.00259807579465845
v -0.01449999994529222 0.00149999479049291 0.00259807579465845
v -0.01399999994529222 0.00240412381881322 0.00449779884763697
v -0.01399999994529222 0.00195168546432103 0.00471178524442652
v -0.01399999994529222 0.00148044828170385 0.00488039581724146
v -0.01549999994529222 0.00077645353072728 0.00289777748533228
v -0.01449999994529222 0.00077645353072728 0.00289777748533228
v -0.01399999994529222 0.00100295499557103 0.00499999992795923
v -0.02049999994529222 -0.00020000215774928 -0.00479583151392004
v -0.02049999994529222 -0.00089909883743678 -0.00471504147104284
v -0.02049999994529222 -0.00157887789017115 -0.00453289647153875
v -0.02049999994529222 -0.00222470613724147 -0.00425331194452307
v -0.02049999994529222 -0.00020000215774928 -0.00148911626390478
v -0.02049999994529222 -0.00020667024856959 -0.00143488366655371
v -0.02049999994529222 -0.00022621675735865 -0.00138473947099707
v -0.02049999994529222 -0.00025734468704615 -0.00134200866273901
v -0.02049999994529222 -0.00029800935989772 -0.00130952413133642
v -0.02049999994529222 -0.00034550997024928 -0.00128943975023291
v -0.02049999994529222 -0.00039667268997584 -0.00128308780244848
v -0.02049999994529222 -0.00044812532669459 -0.00129088885835669
v -0.02049999994529222 -0.00049646517044459 -0.00131232602647802
v -0.02049999994529222 -0.00053847261673365 -0.00134597737840673
v -0.02049999994529222 -0.00057135530716334 -0.00138961226991674
v -0.02049999994529222 -0.00131232210403834 -0.00049646384767553
v -0.02049999994529222 -0.00134598299271022 -0.00053846604875586
v -0.02049999994529222 -0.00129088350540553 -0.00044813211015722
v -0.02049999994529222 -0.00128308626419459 -0.00039667470506689
v -0.02049999994529222 -0.00128943392044459 -0.00034550435594580
v -0.02049999994529222 -0.00138960787063990 -0.00057135303071997
v -0.02049999994529222 -0.00130952974563990 -0.00029801328233740
v -0.02049999994529222 -0.00134201570755397 -0.00025735051683447
v -0.02049999994529222 -0.00138474031692897 -0.00022621257356665
v -0.02049999994529222 -0.00143488069778834 -0.00020666368059179
v -0.02049999994529222 -0.00148911043411647 -0.00019999988130590
v -0.01849999994529222 -0.00000000520950709 -0.00500000007204077
v -0.01849999994529222 -0.00086824556595240 -0.00492403883985540
v -0.01749999994529222 -0.00000000520950709 -0.00500000007204077
v -0.01849999994529222 -0.00171010347610865 -0.00469846315435430
v -0.01749999994529222 -0.00129408785110865 -0.00482962913564703
v -0.01849999994529222 -0.00000000520950709 -0.00074270589403173
v -0.01849999994529222 -0.00000665804153834 -0.00068847329668066
v -0.01849999994529222 -0.00002621980911647 -0.00063832910112402
v -0.01849999994529222 -0.00037135835892115 -0.00064320237688086
v -0.01849999994529222 -0.00005734773880397 -0.00059559829286596
v -0.01849999994529222 -0.00009801241165553 -0.00056311376146337
v -0.01849999994529222 -0.00014549776321803 -0.00054302985719702
v -0.01849999994529222 -0.00019667574173365 -0.00053667743257544
v -0.01849999994529222 -0.00024812837845240 -0.00054447848848364
v -0.01849999994529222 -0.00029646822220240 -0.00056591565660498
v -0.01849999994529222 -0.00033846040970240 -0.00059956748537085
v -0.01849999994529222 -0.00056590791946803 -0.00029646403841040
v -0.01849999994529222 -0.00054448457962428 -0.00024813182405493
v -0.01849999994529222 -0.00053667207962428 -0.00019667489580175
v -0.01849999994529222 -0.00054303499466334 -0.00014550454668066
v -0.01849999994529222 -0.00056311556106959 -0.00009801347307226
v -0.01849999994529222 -0.00059956880813990 -0.00033846576265356
v -0.01849999994529222 -0.00064320894485865 -0.00037135274461767
v -0.01849999994529222 -0.00059560152298365 -0.00005735070756933
v -0.01849999994529222 -0.00063832613235865 -0.00002621276430151
v -0.01849999994529222 -0.00068846651321803 -0.00000666339448950
v -0.02049999994529222 -0.00425331636673365 -0.00222471077493689
v -0.02049999994529222 -0.00453290315872584 -0.00157887609056494
v -0.02049999994529222 -0.00471504732376490 -0.00089910180620214
v -0.02049999994529222 -0.00479582735306178 -0.00019999988130590
v -0.01849999994529222 -0.00250000520950709 -0.00433012707284948
v -0.01849999994529222 -0.00321393343216334 -0.00383022220186254
v -0.01749999994529222 -0.00250000520950709 -0.00433012707284948
v -0.01749999994529222 -0.00353552767044459 -0.00353553397707006
v -0.01849999994529222 -0.00383022066360865 -0.00321393806985876
v -0.01849999994529222 -0.00433012911087428 -0.00250000007204077
v -0.01849999994529222 -0.00469846102005397 -0.00171010072282812
v -0.01849999994529222 -0.00492403169876490 -0.00086824090532324
v -0.01749999994529222 -0.00433012911087428 -0.00250000007204077
v -0.01749999994529222 -0.00482962557083522 -0.00129409511140844
v -0.02049999994529222 -0.00089388033157740 0.00103353826948145
v -0.02049999994529222 -0.00088828035599147 0.00108611338087061
v -0.02049999994529222 -0.00089641329056178 0.00113931362577417
v -0.02049999994529222 -0.00098506685501490 0.00091284887739161
v -0.02049999994529222 -0.00103354402786647 0.00089387648054102
v -0.02049999994529222 -0.00108611055618678 0.00088827555128077
v -0.02049999994529222 -0.00113931795364772 0.00089641754575708
v -0.02049999994529222 -0.00118961092239772 0.00091776316114405
v -0.02049999994529222 -0.00091284700638209 0.00098507444807032
v -0.02049999994529222 -0.00094392915970240 0.00094393532224634
v -0.02049999994529222 -0.00091776033646022 0.00118961231657007
v -0.01849999994529222 -0.00036644502884303 0.00043866436429956
v -0.01849999994529222 -0.00039752718216334 0.00039752523847559
v -0.01849999994529222 -0.00034186311966334 0.00053970282026270
v -0.01849999994529222 -0.00034746309524928 0.00048712770887354
v -0.01849999994529222 -0.00035001131302272 0.00059290354200342
v -0.01849999994529222 -0.00043866487747584 0.00036643879362085
v -0.01849999994529222 -0.00048712679153834 0.00034746639677027
v -0.01849999994529222 -0.00053970857864772 0.00034186546751001
v -0.01849999994529222 0.00002620939010228 0.00063832943387964
v -0.01849999994529222 0.00000666288131322 0.00068847315259913
v -0.01849999994529222 -0.00000000520950709 0.00074270574995020
v -0.01849999994529222 -0.00037135835892115 0.00064320223279932
v -0.01849999994529222 -0.00074271150833522 -0.00000000007204077
v -0.01849999994529222 -0.00059290071731959 0.00035000746198633
v -0.01849999994529222 -0.00064320894485865 0.00037135307737330
v -0.01849999994529222 -0.00000000520950709 0.00499999992795923
v -0.01849999994529222 -0.00086824556595240 0.00492403881498316
v -0.01749999994529222 -0.00000000520950709 0.00499999992795923
v -0.01849999994529222 -0.00171010347610865 0.00469846336790064
v -0.01749999994529222 -0.00129408785110865 0.00482962887235621
v -0.02049999994529222 -0.00313615938431178 0.00363379471250513
v -0.02049999994529222 -0.00363379427200709 0.00313616554685572
v -0.02049999994529222 -0.00257112642532740 0.00405331222959497
v -0.02049999994529222 -0.00405331941849147 0.00257112114377955
v -0.01849999994529222 -0.00500000520950709 -0.00000000007204077
v -0.01849999994529222 -0.00492403169876490 0.00086824076124170
v -0.01849999994529222 -0.00469846102005397 0.00171010057874659
v -0.01749999994529222 -0.00500000520950709 -0.00000000007204077
v -0.01749999994529222 -0.00482962557083522 0.00129409496732691
v -0.01849999994529222 -0.00250000520950709 0.00433012669034937
v -0.01849999994529222 -0.00321393343216334 0.00383022205778101
v -0.01749999994529222 -0.00353552767044459 0.00353553383298853
v -0.01749999994529222 -0.00250000520950709 0.00433012669034937
v -0.01849999994529222 -0.00433012911087428 0.00249999992795923
v -0.01849999994529222 -0.00383022066360865 0.00321393768735865
v -0.01749999994529222 -0.00433012911087428 0.00249999992795923
v -0.01549999994529222 -0.00000000520950709 -0.00300000007204077
v -0.01549999994529222 -0.00077646394974147 -0.00289777739099524
v -0.01399999994529222 -0.00000000520950709 -0.00500000007204077
v -0.01449999994529222 -0.00000000520950709 -0.00300000007204077
v -0.01399999994529222 -0.00053516145950709 -0.00269043333581945
v -0.01449999994529222 -0.00077646394974147 -0.00289777739099524
v -0.01549999994529222 -0.00150000520950709 -0.00259807617715857
v -0.01399999994529222 -0.00129408785110865 -0.00482962913564703
v -0.01449999994529222 -0.00150000520950709 -0.00259807617715857
v -0.01449999994529222 -0.00000000520950709 -0.00150000007204077
v -0.01449999994529222 -0.00038823457962428 -0.00144888885072729
v -0.01399999994529222 -0.00015920015579615 -0.00161642797044775
v -0.01399999994529222 -0.00000000520950709 -0.00150000007204077
v -0.01399999994529222 -0.00038823457962428 -0.00144888885072729
v -0.01449999994529222 -0.00075000520950709 -0.00129903800539038
v -0.01399999994529222 -0.00075000520950709 -0.00129903800539038
v -0.01449999994529222 -0.00106065889603053 -0.00106066043428442
v -0.01399999994529222 -0.00106065889603053 -0.00106066043428442
v -0.01549999994529222 -0.00212132784134303 -0.00212132031969091
v -0.01449999994529222 -0.00212132784134303 -0.00212132031969091
v -0.01449999994529222 -0.00129903169876490 -0.00075000007204077
v -0.01449999994529222 -0.00144888826614772 -0.00038822848848364
v -0.01399999994529222 -0.00129903169876490 -0.00075000007204077
v -0.01399999994529222 -0.00144888826614772 -0.00038822848848364
v -0.01399999994529222 -0.00250000520950709 -0.00433012707284948
v -0.01399999994529222 -0.00353552767044459 -0.00353553397707006
v -0.01549999994529222 -0.00259807344681178 -0.00150000007204077
v -0.01549999994529222 -0.00289777132278834 -0.00077645738176367
v -0.01449999994529222 -0.00259807344681178 -0.00150000007204077
v -0.01449999994529222 -0.00289777132278834 -0.00077645738176367
v -0.01399999994529222 -0.00433012911087428 -0.00250000007204077
v -0.01399999994529222 -0.00482962557083522 -0.00129409511140844
v -0.01399999994529222 -0.00000000520950709 -0.00000000007204077
v -0.01449999994529222 -0.00106065889603053 0.00106066029020289
v -0.01399999994529222 -0.00106065889603053 0.00106066029020289
v -0.01449999994529222 -0.00000000520950709 0.00149999992795923
v -0.01449999994529222 -0.00038823457962428 0.00144888870664576
v -0.01399999994529222 -0.00000000520950709 0.00149999992795923
v -0.01399999994529222 -0.00038823457962428 0.00144888870664576
v -0.01449999994529222 -0.00075000520950709 0.00129903786130884
v -0.01399999994529222 -0.00075000520950709 0.00129903786130884
v -0.01549999994529222 -0.00212132784134303 0.00212132065244654
v -0.01449999994529222 -0.00150000520950709 -0.00000000007204077
v -0.01449999994529222 -0.00144888826614772 0.00038822834440210
v -0.01449999994529222 -0.00129903169876490 0.00074999992795923
v -0.01399999994529222 -0.00150000520950709 -0.00000000007204077
v -0.01399999994529222 -0.00144888826614772 0.00038822834440210
v -0.01399999994529222 -0.00129903169876490 0.00074999992795923
v -0.01449999994529222 -0.00212132784134303 0.00212132065244654
v -0.01549999994529222 -0.00000000520950709 0.00299999992795923
v -0.01549999994529222 -0.00077646394974147 0.00289777748533228
v -0.01449999994529222 -0.00000000520950709 0.00299999992795923
v -0.01449999994529222 -0.00077646394974147 0.00289777748533228
v -0.01399999994529222 -0.00000000520950709 0.00499999992795923
v -0.01549999994529222 -0.00150000520950709 0.00259807579465845
v -0.01449999994529222 -0.00150000520950709 0.00259807579465845
v -0.01399999994529222 -0.00129408785110865 0.00482962887235621
v -0.01549999994529222 -0.00300000520950709 -0.00000000007204077
v -0.01549999994529222 -0.00289777132278834 0.00077645723768213
v -0.01549999994529222 -0.00259807344681178 0.00149999992795923
v -0.01449999994529222 -0.00300000520950709 -0.00000000007204077
v -0.01449999994529222 -0.00289777132278834 0.00077645723768213
v -0.01449999994529222 -0.00259807344681178 0.00149999992795923
v -0.01399999994529222 -0.00500000520950709 -0.00000000007204077
v -0.01399999994529222 -0.00482962557083522 0.00129409496732691
v -0.01399999994529222 -0.00353552767044459 0.00353553383298853
v -0.01399999994529222 -0.00250000520950709 0.00433012669034937
v -0.01399999994529222 -0.00433012911087428 0.00249999992795923
f 5 2 1
f 5 1 8
f 12 3 4
f 4 3 2
f 3 13 2
f 12 4 24
f 4 2 5
f 1 2 13
f 1 13 8
f 5 8 11
f 5 11 6
f 24 4 26
f 4 5 6
f 26 4 6
f 7 9 10
f 8 7 11
f 9 44 47
f 11 7 10
f 10 9 47
f 8 30 7
f 7 30 9
f 9 80 44
f 12 17 3
f 12 24 17
f 3 17 13
f 8 13 30
f 17 14 13
f 17 15 14
f 17 16 15
f 17 18 20
f 17 20 21
f 17 22 19
f 17 23 16
f 17 19 23
f 17 21 22
f 17 29 18
f 18 37 20
f 13 14 30
f 14 15 31
f 16 32 15
f 20 38 21
f 22 34 19
f 21 39 22
f 16 23 33
f 19 36 23
f 24 29 17
f 14 31 30
f 15 32 31
f 16 33 32
f 18 29 37
f 20 37 38
f 21 38 39
f 22 39 34
f 23 36 33
f 19 34 35
f 19 35 36
f 25 24 26
f 25 29 24
f 25 26 28
f 25 28 27
f 27 205 203
f 25 27 208
f 27 203 208
f 27 28 205
f 9 30 80
f 25 208 29
f 209 37 29
f 208 209 29
f 209 210 37
f 30 31 80
f 31 32 81
f 33 83 32
f 31 81 80
f 32 82 81
f 32 83 82
f 33 84 83
f 33 36 84
f 35 85 36
f 36 85 84
f 210 38 37
f 212 39 38
f 213 34 39
f 210 212 38
f 212 213 39
f 214 35 34
f 35 222 85
f 40 41 45
f 41 42 45
f 42 43 46
f 40 45 44
f 45 42 46
f 46 43 49
f 40 54 41
f 41 59 42
f 40 44 54
f 59 43 42
f 59 49 43
f 44 45 47
f 45 46 48
f 46 49 50
f 47 45 48
f 48 46 50
f 89 51 49
f 49 51 50
f 50 51 53
f 51 52 53
f 52 99 101
f 53 52 101
f 41 54 59
f 54 55 56
f 54 56 57
f 54 57 60
f 54 60 61
f 54 58 59
f 54 61 62
f 54 62 63
f 54 63 64
f 54 64 58
f 44 80 54
f 59 89 49
f 54 80 55
f 55 81 56
f 56 82 57
f 57 83 60
f 60 84 61
f 64 90 58
f 61 86 62
f 62 88 63
f 63 87 64
f 58 89 59
f 91 67 66
f 92 68 67
f 98 66 65
f 93 69 68
f 94 70 69
f 96 71 70
f 97 72 71
f 262 73 72
f 263 74 73
f 264 75 74
f 65 75 77
f 67 65 66
f 65 68 69
f 67 68 65
f 65 69 70
f 65 70 71
f 65 71 72
f 65 72 73
f 65 73 74
f 65 74 75
f 55 80 81
f 56 81 82
f 57 82 83
f 60 83 84
f 61 84 85
f 61 85 86
f 62 86 88
f 58 90 89
f 63 88 87
f 64 87 90
f 92 67 91
f 91 66 98
f 93 68 92
f 94 69 93
f 94 95 70
f 95 96 70
f 96 97 71
f 97 262 72
f 262 263 73
f 263 264 74
f 98 65 99
f 264 269 75
f 65 77 76
f 65 76 99
f 76 77 100
f 77 78 100
f 76 100 99
f 75 78 77
f 75 79 78
f 75 269 79
f 78 79 102
f 78 102 100
f 79 269 102
f 89 98 51
f 85 95 86
f 90 91 89
f 88 93 87
f 87 92 90
f 86 94 88
f 89 91 98
f 90 92 91
f 87 93 92
f 88 94 93
f 86 95 94
f 85 255 95
f 98 52 51
f 98 99 52
f 99 100 101
f 101 100 103
f 100 102 103
f 102 269 271
f 103 102 271
f 6 11 114
f 26 6 126
f 11 10 115
f 10 47 144
f 11 115 114
f 6 114 126
f 10 144 115
f 131 104 108
f 158 113 112
f 158 138 113
f 114 117 116
f 114 115 117
f 115 144 147
f 115 147 117
f 129 109 105
f 158 110 109
f 136 105 104
f 158 111 110
f 158 112 111
f 28 26 118
f 26 126 118
f 205 28 123
f 28 118 123
f 205 123 290
f 131 106 107
f 131 107 119
f 131 108 106
f 131 119 120
f 131 120 121
f 123 118 122
f 123 122 125
f 290 123 125
f 290 125 293
f 292 131 124
f 131 121 124
f 292 133 131
f 292 302 133
f 126 116 127
f 126 114 116
f 118 126 127
f 118 127 122
f 127 116 135
f 137 129 105
f 136 137 105
f 122 127 134
f 127 135 134
f 131 136 104
f 116 117 128
f 117 147 156
f 117 156 128
f 129 158 109
f 116 128 135
f 135 129 137
f 135 128 129
f 128 156 158
f 128 158 129
f 125 122 130
f 122 134 130
f 293 125 132
f 125 130 132
f 293 132 299
f 132 130 131
f 132 131 133
f 299 132 133
f 299 133 302
f 134 135 137
f 134 137 136
f 130 134 136
f 130 136 131
f 47 48 145
f 48 50 146
f 47 145 144
f 145 48 146
f 146 50 155
f 155 50 53
f 158 139 138
f 158 140 139
f 144 145 148
f 144 148 147
f 145 149 148
f 145 146 149
f 158 141 140
f 158 142 141
f 159 143 142
f 164 150 143
f 166 151 150
f 166 152 151
f 169 53 101
f 174 101 103
f 155 53 169
f 169 101 174
f 339 103 271
f 174 103 339
f 146 160 149
f 146 155 160
f 155 169 170
f 155 170 160
f 147 148 156
f 156 148 157
f 157 148 149
f 158 159 142
f 159 163 143
f 157 149 161
f 156 157 159
f 156 159 158
f 157 163 159
f 157 161 163
f 161 149 160
f 163 164 143
f 164 166 150
f 161 160 162
f 162 160 170
f 161 162 164
f 161 164 163
f 162 165 166
f 162 166 164
f 162 170 165
f 165 170 175
f 165 175 167
f 167 175 341
f 167 341 325
f 165 167 168
f 165 168 166
f 167 325 327
f 167 327 168
f 166 153 152
f 166 154 153
f 166 171 154
f 166 172 171
f 166 173 172
f 169 174 175
f 169 175 170
f 174 341 175
f 174 339 341
f 166 176 173
f 166 168 343
f 168 327 343
f 166 343 176
f 177 181 203
f 177 204 178
f 177 178 181
f 178 179 181
f 177 203 204
f 178 204 206
f 178 206 179
f 179 206 180
f 179 180 191
f 180 233 191
f 206 233 180
f 181 191 182
f 182 191 183
f 183 191 184
f 191 185 184
f 191 186 185
f 191 187 186
f 191 188 187
f 191 189 188
f 191 190 189
f 179 191 181
f 181 182 208
f 182 183 209
f 183 184 210
f 184 185 212
f 185 186 213
f 186 187 215
f 188 216 187
f 189 217 188
f 191 211 190
f 190 218 189
f 220 194 195
f 221 195 196
f 197 193 225
f 224 193 192
f 219 192 194
f 223 196 198
f 226 198 199
f 199 200 227
f 200 201 228
f 203 181 208
f 233 211 191
f 182 209 208
f 183 210 209
f 184 212 210
f 185 213 212
f 186 214 213
f 186 215 214
f 187 216 215
f 188 217 216
f 190 211 218
f 189 218 217
f 219 194 220
f 224 225 193
f 224 192 219
f 220 195 221
f 221 196 222
f 222 196 223
f 223 198 226
f 226 199 227
f 200 228 227
f 201 266 228
f 192 202 194
f 194 202 195
f 195 202 196
f 197 202 193
f 193 202 192
f 196 202 198
f 198 202 199
f 199 202 200
f 200 202 201
f 201 202 266
f 238 197 225
f 202 278 266
f 203 205 204
f 205 207 204
f 204 207 206
f 206 235 233
f 233 234 211
f 234 237 211
f 206 207 235
f 213 214 34
f 214 222 35
f 217 219 216
f 218 224 217
f 214 215 221
f 215 216 220
f 211 225 218
f 217 224 219
f 216 219 220
f 215 220 221
f 218 225 224
f 214 221 222
f 237 225 211
f 229 230 197
f 229 197 238
f 231 202 197
f 230 231 197
f 231 232 202
f 229 239 230
f 202 232 278
f 230 240 231
f 231 240 232
f 229 238 239
f 230 239 240
f 240 278 232
f 233 235 234
f 234 236 237
f 235 236 234
f 237 241 238
f 236 241 237
f 237 238 225
f 238 241 239
f 239 242 240
f 240 281 278
f 241 242 239
f 242 281 240
f 246 253 252
f 252 253 251
f 251 253 243
f 247 253 246
f 247 248 253
f 248 249 253
f 243 253 244
f 244 253 245
f 249 250 253
f 257 251 243
f 256 243 244
f 259 246 252
f 260 247 246
f 261 248 247
f 254 252 251
f 258 244 245
f 265 245 253
f 267 249 248
f 268 250 249
f 255 252 254
f 257 243 256
f 254 251 257
f 256 244 258
f 258 245 265
f 260 246 259
f 259 252 255
f 260 261 247
f 261 267 248
f 267 268 249
f 250 274 253
f 265 253 283
f 268 287 250
f 253 274 276
f 253 276 283
f 222 255 85
f 254 96 95
f 257 97 96
f 256 262 97
f 255 254 95
f 254 257 96
f 257 256 97
f 256 258 262
f 222 223 259
f 223 226 260
f 222 259 255
f 223 260 259
f 226 261 260
f 258 263 262
f 263 265 264
f 258 265 263
f 226 227 261
f 227 228 261
f 228 266 267
f 228 267 261
f 267 266 268
f 265 272 264
f 266 279 268
f 264 270 269
f 264 272 270
f 269 270 271
f 271 270 273
f 265 283 272
f 272 273 270
f 283 286 272
f 286 273 272
f 250 277 275
f 250 287 277
f 250 275 274
f 275 284 274
f 274 284 276
f 275 288 284
f 276 284 283
f 277 288 275
f 277 287 288
f 266 278 279
f 268 279 280
f 268 280 287
f 278 281 279
f 279 282 280
f 280 289 287
f 281 282 279
f 282 289 280
f 288 285 284
f 284 286 283
f 285 286 284
f 287 289 288
f 289 285 288
f 205 290 207
f 207 290 291
f 207 291 235
f 235 291 296
f 236 296 308
f 290 293 291
f 293 295 291
f 291 295 296
f 297 303 294
f 295 298 296
f 297 314 303
f 314 315 303
f 293 299 295
f 295 299 300
f 303 301 294
f 299 302 300
f 302 303 300
f 303 302 301
f 300 303 304
f 295 300 304
f 295 304 298
f 298 304 306
f 303 305 304
f 304 305 306
f 306 307 310
f 305 307 306
f 296 298 308
f 298 309 308
f 308 309 316
f 309 318 316
f 298 306 309
f 309 306 310
f 315 305 303
f 309 310 318
f 320 307 305
f 320 312 307
f 318 310 311
f 310 312 311
f 307 312 310
f 311 313 332
f 312 313 311
f 313 335 332
f 318 311 319
f 319 311 332
f 319 332 350
f 235 296 236
f 236 308 241
f 241 308 316
f 316 317 242
f 317 347 281
f 241 316 242
f 242 317 281
f 316 318 317
f 318 319 317
f 317 319 347
f 319 350 347
f 315 320 305
f 320 321 312
f 321 313 312
f 313 353 335
f 321 353 313
f 340 271 273
f 339 271 340
f 344 340 273
f 344 273 286
f 331 344 286
f 324 330 329
f 323 324 329
f 337 324 323
f 326 325 341
f 326 341 342
f 326 328 325
f 328 327 325
f 326 330 328
f 323 329 345
f 326 342 329
f 329 342 345
f 326 329 330
f 338 345 344
f 349 352 331
f 331 338 344
f 352 338 331
f 333 334 352
f 332 335 333
f 333 336 334
f 335 336 333
f 334 337 323
f 336 337 334
f 332 333 351
f 332 351 350
f 333 352 351
f 334 323 338
f 323 345 338
f 328 330 355
f 334 338 352
f 324 357 330
f 337 357 324
f 339 342 341
f 339 340 342
f 345 342 340
f 328 346 327
f 344 345 340
f 328 356 346
f 328 355 356
f 347 348 282
f 349 331 285
f 348 349 289
f 281 347 282
f 348 289 282
f 331 286 285
f 349 285 289
f 347 350 348
f 350 351 348
f 348 351 349
f 351 352 349
f 335 353 336
f 336 354 337
f 330 357 355
f 337 354 357
f 353 354 336
f 322 104 105
f 322 105 109
f 322 109 110
f 322 111 112
f 322 112 113
f 322 113 138
f 322 110 111
f 322 106 108
f 322 107 106
f 322 119 107
f 322 120 119
f 302 292 124
f 322 121 120
f 322 124 121
f 322 108 104
f 322 302 124
f 322 138 139
f 322 139 140
f 322 140 141
f 322 141 142
f 322 142 143
f 322 143 150
f 322 150 151
f 322 151 152
f 322 176 327
f 322 152 153
f 322 153 154
f 322 154 171
f 322 171 172
f 322 172 173
f 322 173 176
f 343 327 176
f 322 297 294
f 322 314 297
f 322 315 314
f 322 294 301
f 322 301 302
f 322 320 315
f 322 321 320
f 322 353 321
f 322 327 356
f 346 356 327
f 322 356 355
f 322 354 353
f 322 357 354
f 322 355 357

