# https://github.com/mikedh/trimesh
v -0.00673973140971070 0.01978017522994130 -0.00257112081102392
v -0.00710303762959360 0.01957042028609364 -0.00313616569093725
v -0.00753400208414715 0.01932160284224599 -0.00363379485658667
v -0.00646664778295255 0.01762843905860289 -0.00383022220186254
v -0.00593292738449293 0.01793658267432555 -0.00321393806985876
v -0.00568813900289029 0.01692321077395908 -0.00353553397707006
v -0.00518100917922044 0.01837070285254820 -0.00171010072282812
v -0.00549999396959447 0.01818653689795836 -0.00250000007204077
v -0.00498565924110787 0.01848348819190368 -0.00086824090532324
v -0.00456741734616790 0.01757025972415439 -0.00129409511140844
v -0.00499999396959447 0.01732051149417392 -0.00250000007204077
v -0.00802334819510207 0.01903907873335927 -0.00405331201604864
v -0.00921976250186226 0.01834832861128896 -0.00091776330522558
v -0.00926333070493045 0.01832317449751943 -0.00089641768983862
v -0.00930939644830192 0.01829657842818349 -0.00088827569536230
v -0.00935493361171503 0.01827028753462880 -0.00089387662462255
v -0.00945519201531782 0.01821240331832021 -0.00118961246065161
v -0.00947367909936162 0.01820172979537099 -0.00113931376985571
v -0.00943252914960294 0.01822548772994130 -0.00094393546632788
v -0.00948073564180578 0.01819765569869130 -0.00108611304811499
v -0.00947588592068779 0.01820045568648427 -0.00103353793672583
v -0.00945944708398265 0.01820994665328115 -0.00098507459215185
v -0.00939690286040917 0.01824605657759755 -0.00091284902147314
v -0.00708494097475050 0.01727146731788024 -0.00433012707284948
v -0.00776900272786795 0.01687652408057555 -0.00469846315435430
v -0.00658494097475050 0.01640544191409580 -0.00433012707284948
v -0.00849808627893910 0.01645558749610289 -0.00492403883985540
v -0.00762928282748921 0.01580249086429111 -0.00482962913564703
v -0.00892840322304366 0.01620714389258727 -0.00064320237688086
v -0.00869297370958810 0.01634306918555602 -0.00037135274461767
v -0.00873652869815734 0.01631792270118102 -0.00035000760606787
v -0.00878260765602776 0.01629131900245055 -0.00034186561159155
v -0.00882813160494191 0.01626503573829039 -0.00034746606401464
v -0.00893265829170849 0.01620468722754820 -0.00043866403154394
v -0.00890572714282982 0.01622023593360289 -0.00039752538255712
v -0.00887010085363605 0.01624080478125915 -0.00036643893770239
v -0.00894689030708746 0.01619647036963805 -0.00059290368608496
v -0.00895393363503267 0.01619240390235289 -0.00053970296434423
v -0.00894908391391467 0.01619520389014586 -0.00048712785295507
v -0.00609668746136234 0.02015143682662099 0.00019999973722437
v -0.00616665823335084 0.02011103918257802 0.00089910166212061
v -0.00632439970742577 0.02001996710005849 0.00157887594648340
v -0.00656652897185360 0.01988017370406239 0.00222471039243677
v -0.00491987746528940 0.01852146731788024 -0.00000000007204077
v -0.00498565924110787 0.01848348819190368 0.00086824076124170
v -0.00518100917922044 0.01837070285254820 0.00171010057874659
v -0.00441987746528940 0.01765544191409580 -0.00000000007204077
v -0.00456741734616790 0.01757025972415439 0.00129409496732691
v -0.00549999396959447 0.01818653689795836 0.00249999992795923
v -0.00499999396959447 0.01732051149417392 0.00249999992795923
v -0.00593292738449293 0.01793658267432555 0.00321393768735865
v -0.00646664778295255 0.01762843905860289 0.00383022205778101
v -0.00568813900289029 0.01692321077395908 0.00353553383298853
v -0.00896038831629279 0.01849807836714833 0.00019999973722437
v -0.00900735264559347 0.01847096349898427 0.00020666353651026
v -0.00905077548917312 0.01844589330855458 0.00022621242948511
v -0.00908778930075760 0.01842452337447255 0.00025735084959009
v -0.00908435353102823 0.01842650701705068 0.00053846590467432
v -0.00904656006400516 0.01844832708541005 0.00057135288663843
v -0.00911592296904155 0.01840828039351552 0.00029801313825586
v -0.00913331324967174 0.01839824011031239 0.00034550421186426
v -0.00913881048123873 0.01839506628218739 0.00039667503782251
v -0.00913205787227062 0.01839896490279286 0.00044813196607569
v -0.00911349150123307 0.01840968420210927 0.00049646370359400
v -0.00975518757068760 0.01803920080367177 0.00138961212583521
v -0.00978367803044345 0.01802275182906240 0.00134597723432520
v -0.00982004433157893 0.01800175573531240 0.00131232588239649
v -0.00986190786428140 0.01797758581343740 0.00129088871427515
v -0.00990646715477153 0.01795185949507802 0.00128308765836695
v -0.00995078858428040 0.01792627050582021 0.00128943960615137
v -0.00999191210504116 0.01790252783003896 0.00130952398725489
v -0.01002712874476719 0.01788219549361318 0.00134200851865748
v -0.01005409953714274 0.01786662389937490 0.00138473932691553
v -0.01007102731030937 0.01785685064498036 0.00143488352247217
v -0.01007678883185554 0.01785352422896474 0.00148911611982325
v -0.00832334375047186 0.01886587621871083 0.00425331203886011
v -0.00888264741891632 0.01854296209517568 0.00453289692350367
v -0.00947135334754481 0.01820307256880849 0.00471504108854273
v -0.01007678883185554 0.01785352422896474 0.00479583160825708
v -0.00860680196187572 0.01639282046729430 -0.00000000007204077
v -0.00865376629117641 0.01636570559913024 0.00000666372724512
v -0.00869718913475606 0.01634063540870055 0.00002621262021998
v -0.00873420294634053 0.01631926547461852 0.00005735056348780
v -0.00876232340012552 0.01630303012305602 0.00009801332899073
v -0.00877972689525468 0.01629298221045836 0.00014550440259913
v -0.00878522412682167 0.01628980838233336 0.00019667475172022
v -0.00875990514681601 0.01630442630225524 0.00029646389432886
v -0.00877847151785356 0.01629370700293883 0.00024813215681055
v -0.00869297370958810 0.01634306918555602 0.00037135307737330
v -0.00873075396211220 0.01632125674659117 0.00033846561857203
v -0.00895688046830055 0.01619070254737243 0.00059956734128931
v -0.00899325998393499 0.01616969882422789 0.00056591551252344
v -0.00903511030213850 0.01614553653174743 0.00054447834440210
v -0.00907966959262863 0.01611981021338805 0.00053667728849390
v -0.00912399102213749 0.01609422122413024 0.00054302971311548
v -0.00916511454289825 0.01607047854834899 0.00056311361738184
v -0.00920033118262429 0.01605014621192321 0.00059559814878443
v -0.00892840322304366 0.01620714389258727 0.00064320223279932
v -0.00708494097475050 0.01727146731788024 0.00433012669034937
v -0.00776900272786795 0.01687652408057555 0.00469846336790064
v -0.00658494097475050 0.01640544191409580 0.00433012669034937
v -0.00849808627893910 0.01645558749610289 0.00492403881498316
v -0.00762928282748921 0.01580249086429111 0.00482962887235621
v -0.00358582724614137 0.01409552914831120 -0.00323540575555822
v -0.00332762915097926 0.01424459988805729 -0.00283340818933508
v -0.00419805498291708 0.01374205929967839 -0.00394235332063696
v -0.00454619095799492 0.01354106290075261 -0.00424049503854773
v -0.00387690301471376 0.01392747647497136 -0.00360624463609716
v -0.00310479305503173 0.01437325436803776 -0.00240412337831518
v -0.00291947292162913 0.01448024899694401 -0.00195168550066015
v -0.00277345270813093 0.01456455380651433 -0.00148045165590307
v -0.00266813315142680 0.01462536008092839 -0.00099496085695288
v -0.00260453176793659 0.01466208035680729 -0.00049988753847143
v -0.00549999817544132 0.01472243285457380 -0.00150000007204077
v -0.00524045220138538 0.01487228179256208 -0.00077645738176367
v -0.00499999817544132 0.01385640745078936 -0.00150000007204077
v -0.00474045220138538 0.01400625638877764 -0.00077645738176367
v -0.00645096637853494 0.01417339110652692 -0.00259807617715857
v -0.00491796767171061 0.01332641751501042 -0.00449779839567205
v -0.00530979078034727 0.01310019833776433 -0.00471178562692663
v -0.00571789415170156 0.01286457974645573 -0.00488039572290441
v -0.00595096637853494 0.01330736570274248 -0.00259807617715857
v -0.00707757149017816 0.01381162047664411 -0.00289777739099524
v -0.00613140225313013 0.01262584073278386 -0.00500000007204077
v -0.00657757149017816 0.01294559507285967 -0.00289777739099524
v -0.00591288519541881 0.01448405242244489 -0.00212132031969091
v -0.00541288519541881 0.01361802701866045 -0.00212132031969091
v -0.00599522173554901 0.01328181486045733 -0.00038822848848364
v -0.00574522173554901 0.01284880215856511 -0.00038822848848364
v -0.00660048543137327 0.01293236570274248 -0.00129903800539038
v -0.00635048543137327 0.01249935300085026 -0.00129903800539038
v -0.00691378798719488 0.01275148038780108 -0.00144888885072729
v -0.00666378798719488 0.01231846768590886 -0.00144888885072729
v -0.00633143823256572 0.01308770017539873 -0.00106066043428442
v -0.00612500132982646 0.01320688657676592 -0.00075000007204077
v -0.00608143823256572 0.01265468747350651 -0.00106066043428442
v -0.00587500132982646 0.01277387387487370 -0.00075000007204077
v -0.00258326963911137 0.01467435605260807 -0.00000000007204077
v -0.00260453176793659 0.01466208035680729 0.00049988739438990
v -0.00266813315142680 0.01462536008092839 0.00099496071287134
v -0.00277345270813093 0.01456455380651433 0.00148045198865870
v -0.00291947292162913 0.01448024899694401 0.00195168535657862
v -0.00310479305503173 0.01437325436803776 0.00240412323423365
v -0.00515192827285828 0.01492339110652692 -0.00000000007204077
v -0.00524045220138538 0.01487228179256208 0.00077645723768213
v -0.00549999817544132 0.01472243285457380 0.00149999992795923
v -0.00465192827285828 0.01405736570274248 -0.00000000007204077
v -0.00474045220138538 0.01400625638877764 0.00077645723768213
v -0.00499999817544132 0.01385640745078936 0.00149999992795923
v -0.00332762915097926 0.01424459988805729 0.00283340828367212
v -0.00358582724614137 0.01409552914831120 0.00323540584989527
v -0.00387690301471376 0.01392747647497136 0.00360624496885279
v -0.00419805498291708 0.01374205929967839 0.00394235317655542
v -0.00454619095799492 0.01354106290075261 0.00424049465604761
v -0.00591288519541881 0.01448405242244489 0.00212132065244654
v -0.00595096637853494 0.01330736570274248 -0.00000000007204077
v -0.00599522173554901 0.01328181486045733 0.00038822834440210
v -0.00570096637853494 0.01287435300085026 -0.00000000007204077
v -0.00574522173554901 0.01284880215856511 0.00038822834440210
v -0.00541288519541881 0.01361802701866045 0.00212132065244654
v -0.00612500132982646 0.01320688657676592 0.00074999992795923
v -0.00633143823256572 0.01308770017539873 0.00106066029020289
v -0.00587500132982646 0.01277387387487370 0.00074999992795923
v -0.00608143823256572 0.01265468747350651 0.00106066029020289
v -0.00660048543137327 0.01293236570274248 0.00129903786130884
v -0.00635048543137327 0.01249935300085026 0.00129903786130884
v -0.00691378798719488 0.01275148038780108 0.00144888870664576
v -0.00666378798719488 0.01231846768590886 0.00144888870664576
v -0.00645096637853494 0.01417339110652692 0.00259807579465845
v -0.00595096637853494 0.01330736570274248 0.00259807579465845
v -0.00491796767171061 0.01332641751501042 0.00449779884763697
v -0.00530979078034727 0.01310019833776433 0.00471178524442652
v -0.00571789415170156 0.01286457974645573 0.00488039581724146
v -0.00707757149017816 0.01381162047664411 0.00289777748533228
v -0.00657757149017816 0.01294559507285967 0.00289777748533228
v -0.00613141546762909 0.01262583310338933 0.00499999992795923
v -0.01042320692206869 0.01765351965132802 -0.00479583151392004
v -0.01102864240637942 0.01730397131148427 -0.00471504147104284
v -0.01161734833500791 0.01696408178511708 -0.00453289647153875
v -0.01217665200345237 0.01664116766158193 -0.00425331194452307
v -0.01042320692206869 0.01765351965132802 -0.00148911626390478
v -0.01042898165811382 0.01765018560591787 -0.00143488366655371
v -0.01044590943128045 0.01764041235152334 -0.00138473947099707
v -0.01047286700915704 0.01762484838667959 -0.00134200866273901
v -0.01050808364888308 0.01760451605025381 -0.00130952413133642
v -0.01054922038414279 0.01758076574507802 -0.00128943975023291
v -0.01059352859915270 0.01755518438521474 -0.00128308780244848
v -0.01063808788964283 0.01752945806685537 -0.00129088885835669
v -0.01067995142234530 0.01750528814498037 -0.00131232602647802
v -0.01071633093797974 0.01748428442183584 -0.00134597737840673
v -0.01074480818323663 0.01746784307662099 -0.00138961226991674
v -0.01138650425269116 0.01709735967818349 -0.00049646384767553
v -0.01141565543739497 0.01708052923384755 -0.00053846604875586
v -0.01136793788165361 0.01710807897749990 -0.00044813211015722
v -0.01136118527268550 0.01711197759810537 -0.00039667470506689
v -0.01136668250425249 0.01710880376998037 -0.00034550435594580
v -0.01145343568991907 0.01705871679488271 -0.00057135303071997
v -0.01138408599938165 0.01709875585738271 -0.00029801328233740
v -0.01141221966766560 0.01708251287642568 -0.00025735051683447
v -0.01144922026475111 0.01706115057173818 -0.00022621257356665
v -0.01149264310833076 0.01703608038130849 -0.00020666368059179
v -0.01153960743763145 0.01700896551314443 -0.00019999988130590
v -0.00925000448421160 0.01602146731788024 -0.00500000007204077
v -0.01000192268948409 0.01558734713965758 -0.00492403883985540
v -0.00875000448421160 0.01515544191409580 -0.00500000007204077
v -0.01073099302605628 0.01516641818457946 -0.00469846315435430
v -0.00987071292643502 0.01450840059329502 -0.00482962913564703
v -0.00925000448421160 0.01602146731788024 -0.00074270589403173
v -0.00925576600575777 0.01601814090186461 -0.00068847329668066
v -0.00927270699342335 0.01600836001807555 -0.00063832910112402
v -0.00957160574537953 0.01583579074317321 -0.00064320237688086
v -0.00929966457129994 0.01599279605323180 -0.00059559829286596
v -0.00933488121102598 0.01597246371680602 -0.00056311376146337
v -0.00937600473178674 0.01594872104102477 -0.00054302985719702
v -0.00942032616129560 0.01592313205176695 -0.00053667743257544
v -0.00946488545178573 0.01589740573340758 -0.00054447848848364
v -0.00950674898448821 0.01587323581153258 -0.00056591565660498
v -0.00954311528562368 0.01585223971778258 -0.00059956748537085
v -0.00974009060710822 0.01573851596289977 -0.00029646403841040
v -0.00972153745056963 0.01574922763282164 -0.00024813182405493
v -0.00971477162710256 0.01575313388282164 -0.00019667489580175
v -0.00972028207316851 0.01574995242530211 -0.00014550454668066
v -0.00973767235379871 0.01573991214209899 -0.00009801347307226
v -0.00976924179181203 0.01572168551856383 -0.00033846576265356
v -0.00980703525883509 0.01569986545020446 -0.00037135274461767
v -0.00976580602208266 0.01572366916114196 -0.00005735070756933
v -0.00980280661916818 0.01570230685645446 -0.00002621276430151
v -0.00984622946274782 0.01567723666602477 -0.00000666339448950
v -0.01393347999656959 0.01562686254683584 -0.00222471077493689
v -0.01417560926099742 0.01548706915083974 -0.00157887609056494
v -0.01433335073507235 0.01539599706832021 -0.00089910180620214
v -0.01440330829256190 0.01535560705367177 -0.00019999988130590
v -0.01141506799367269 0.01477146731788024 -0.00433012707284948
v -0.01203334797097168 0.01441450320655211 -0.00383022220186254
v -0.01091506799367269 0.01390544191409580 -0.00433012707284948
v -0.01181185675103395 0.01338768068362705 -0.00353553397707006
v -0.01256706836943130 0.01410635959082946 -0.00321393806985876
v -0.01300000178432976 0.01385640536719664 -0.00250000007204077
v -0.01331898657470379 0.01367223941260680 -0.00171010072282812
v -0.01351433651281636 0.01355945407325133 -0.00086824090532324
v -0.01250000178432976 0.01299037996341221 -0.00250000007204077
v -0.01293257840775633 0.01274063173343174 -0.00129409511140844
v -0.01102412304773540 0.01730658056441396 0.00103353826948145
v -0.01101927332661741 0.01730938055220693 0.00108611338087061
v -0.01102631665456262 0.01730531408492177 0.00113931362577417
v -0.01110309289351506 0.01726098730269521 0.00091284887739161
v -0.01114507535670816 0.01723674871626943 0.00089387648054102
v -0.01119059930562231 0.01721046545210927 0.00088827555128077
v -0.01123667826349274 0.01718386175337880 0.00089641754575708
v -0.01128023325206197 0.01715871526900380 0.00091776316114405
v -0.01104054866994158 0.01729709722701162 0.00098507444807032
v -0.01106746660432129 0.01728155615035146 0.00094393532224634
v -0.01104480373860641 0.01729464056197255 0.00118961231657007
v -0.00956735067671470 0.01583824740821227 0.00043866436429956
v -0.00959426861109441 0.01582270633155211 0.00039752523847559
v -0.00954606211889157 0.01585053836280211 0.00053970282026270
v -0.00955091184000956 0.01584773837500915 0.00048712770887354
v -0.00955311866133573 0.01584646426612242 0.00059290354200342
v -0.00962989490028818 0.01580213748389586 0.00036643879362085
v -0.00967186414898232 0.01577790652686461 0.00034746639677027
v -0.00971740131239543 0.01575161563330993 0.00034186546751001
v -0.00922730197499984 0.01603457461768492 0.00063832943387964
v -0.00924422974816646 0.01602480136329039 0.00068847315259913
v -0.00925000448421160 0.01602146731788024 0.00074270574995020
v -0.00957160574537953 0.01583579074317321 0.00064320223279932
v -0.00989320700654747 0.01565011416846617 -0.00000000007204077
v -0.00976346705576690 0.01572501956397399 0.00035000746198633
v -0.00980703525883509 0.01569986545020446 0.00037135307737330
v -0.00925000448421160 0.01602146731788024 0.00499999992795923
v -0.01000192268948409 0.01558734713965758 0.00492403881498316
v -0.00875000448421160 0.01515544191409580 0.00499999992795923
v -0.01073099302605628 0.01516641818457946 0.00469846336790064
v -0.00987071292643502 0.01450840059329502 0.00482962887235621
v -0.01296599366977708 0.01618544103804677 0.00363379471250513
v -0.01339695812433063 0.01593662359419912 0.00313616554685572
v -0.01247666077332112 0.01646795751753896 0.00405331222959497
v -0.01376027755871249 0.01572686102095693 0.00257112114377955
v -0.01358013150313379 0.01352146731788024 -0.00000000007204077
v -0.01351433651281636 0.01355945407325133 0.00086824076124170
v -0.01331898657470379 0.01367223941260680 0.00171010057874659
v -0.01308013150313379 0.01265544191409580 -0.00000000007204077
v -0.01293257840775633 0.01274063173343174 0.00129409496732691
v -0.01141506799367269 0.01477146731788024 0.00433012669034937
v -0.01203334797097168 0.01441450320655211 0.00383022205778101
v -0.01181185675103395 0.01338768068362705 0.00353553383298853
v -0.01091506799367269 0.01390544191409580 0.00433012669034937
v -0.01300000178432976 0.01385640536719664 0.00249999992795923
v -0.01256706836943130 0.01410635959082946 0.00321393768735865
v -0.01250000178432976 0.01299037996341221 0.00249999992795923
v -0.00775000448421159 0.01342339110652692 -0.00300000007204077
v -0.00842243747824503 0.01303516173640973 -0.00289777739099524
v -0.00700000448421160 0.01212435300085026 -0.00500000007204077
v -0.00725000448421160 0.01255736570274248 -0.00300000007204077
v -0.00746346339170561 0.01185677487585026 -0.00269043333581945
v -0.00792243747824503 0.01216913633262529 -0.00289777739099524
v -0.00904904258988825 0.01267339110652692 -0.00259807617715857
v -0.00812071292643502 0.01147731168004948 -0.00482962913564703
v -0.00854904258988825 0.01180736570274248 -0.00259807617715857
v -0.00725000448421160 0.01255736570274248 -0.00150000007204077
v -0.00758622098122831 0.01236325101768389 -0.00144888885072729
v -0.00713787135185202 0.01204475552770573 -0.00161642797044775
v -0.00700000448421160 0.01212435300085026 -0.00150000007204077
v -0.00733622098122831 0.01193023831579167 -0.00144888885072729
v -0.00789952353704992 0.01218236570274248 -0.00129903800539038
v -0.00764952353704992 0.01174935300085026 -0.00129903800539038
v -0.00816855752135851 0.01202703885948076 -0.00106066043428442
v -0.00791855752135851 0.01159402615758854 -0.00106066043428442
v -0.00958712377300438 0.01236272979060895 -0.00212132031969091
v -0.00908712377300438 0.01149670438682452 -0.00212132031969091
v -0.00837499442409777 0.01190785245811358 -0.00075000007204077
v -0.00850477401837522 0.01183292417442217 -0.00038822848848364
v -0.00812499442409777 0.01147483975622136 -0.00075000007204077
v -0.00825477401837522 0.01139991147252995 -0.00038822848848364
v -0.00916506799367269 0.01087435300085026 -0.00433012707284948
v -0.01006185675103394 0.01035659177038152 -0.00353553397707006
v -0.00999999757848291 0.01212435698787458 -0.00150000007204077
v -0.01025954355253885 0.01197450804988630 -0.00077645738176367
v -0.00949999757848291 0.01125833158409014 -0.00150000007204077
v -0.00975954355253885 0.01110848264610186 -0.00077645738176367
v -0.01075000178432976 0.00995929105016667 -0.00250000007204077
v -0.01118257840775633 0.00970954282018620 -0.00129409511140844
v -0.00700000448421160 0.01212435300085026 -0.00000000007204077
v -0.00816855752135851 0.01202703885948076 0.00106066029020289
v -0.00791855752135851 0.01159402615758854 0.00106066029020289
v -0.00725000448421160 0.01255736570274248 0.00149999992795923
v -0.00758622098122831 0.01236325101768389 0.00144888870664576
v -0.00700000448421160 0.01212435300085026 0.00149999992795923
v -0.00733622098122831 0.01193023831579167 0.00144888870664576
v -0.00789952353704992 0.01218236570274248 0.00129903786130884
v -0.00764952353704992 0.01174935300085026 0.00129903786130884
v -0.00958712377300438 0.01236272979060895 0.00212132065244654
v -0.00854904258988825 0.01180736570274248 -0.00000000007204077
v -0.00850477401837522 0.01183292417442217 0.00038822834440210
v -0.00837499442409777 0.01190785245811358 0.00074999992795923
v -0.00829904258988825 0.01137435300085026 -0.00000000007204077
v -0.00825477401837522 0.01139991147252995 0.00038822834440210
v -0.00812499442409777 0.01147483975622136 0.00074999992795923
v -0.00908712377300438 0.01149670438682452 0.00212132065244654
v -0.00775000448421159 0.01342339110652692 0.00299999992795923
v -0.00842243747824503 0.01303516173640973 0.00289777748533228
v -0.00725000448421160 0.01255736570274248 0.00299999992795923
v -0.00792243747824503 0.01216913633262529 0.00289777748533228
v -0.00700000448421160 0.01212435300085026 0.00499999992795923
v -0.00904904258988825 0.01267339110652692 0.00259807579465845
v -0.00854904258988825 0.01180736570274248 0.00259807579465845
v -0.00812071292643502 0.01147731168004948 0.00482962887235621
v -0.01034808069556491 0.01192339110652692 -0.00000000007204077
v -0.01025954355253885 0.01197450804988630 0.00077645723768213
v -0.00999999757848291 0.01212435698787458 0.00149999992795923
v -0.00984808069556491 0.01105736570274248 -0.00000000007204077
v -0.00975954355253885 0.01110848264610186 0.00077645723768213
v -0.00949999757848291 0.01125833158409014 0.00149999992795923
v -0.01133013150313379 0.00962435300085026 -0.00000000007204077
v -0.01118257840775633 0.00970954282018620 0.00129409496732691
v -0.01006185675103394 0.01035659177038152 0.00353553383298853
v -0.00916506799367269 0.01087435300085026 0.00433012669034937
v -0.01075000178432976 0.00995929105016667 0.00249999992795923
f 5 2 1
f 5 1 8
f 12 3 4
f 4 3 2
f 3 13 2
f 12 4 24
f 4 2 5
f 1 2 13
f 1 13 8
f 5 8 11
f 5 11 6
f 24 4 26
f 4 5 6
f 26 4 6
f 7 9 10
f 8 7 11
f 9 44 47
f 11 7 10
f 10 9 47
f 8 30 7
f 7 30 9
f 9 80 44
f 12 17 3
f 12 24 17
f 3 17 13
f 8 13 30
f 17 14 13
f 17 15 14
f 17 16 15
f 17 18 20
f 17 20 21
f 17 22 19
f 17 23 16
f 17 19 23
f 17 21 22
f 17 29 18
f 18 37 20
f 13 14 30
f 14 15 31
f 16 32 15
f 20 38 21
f 22 34 19
f 21 39 22
f 16 23 33
f 19 36 23
f 24 29 17
f 14 31 30
f 15 32 31
f 16 33 32
f 18 29 37
f 20 37 38
f 21 38 39
f 22 39 34
f 23 36 33
f 19 34 35
f 19 35 36
f 25 24 26
f 25 29 24
f 25 26 28
f 25 28 27
f 27 205 203
f 25 27 208
f 27 203 208
f 27 28 205
f 9 30 80
f 25 208 29
f 209 37 29
f 208 209 29
f 209 210 37
f 30 31 80
f 31 32 81
f 33 83 32
f 31 81 80
f 32 82 81
f 32 83 82
f 33 84 83
f 33 36 84
f 35 85 36
f 36 85 84
f 210 38 37
f 212 39 38
f 213 34 39
f 210 212 38
f 212 213 39
f 214 35 34
f 35 222 85
f 40 41 45
f 41 42 45
f 42 43 46
f 40 45 44
f 45 42 46
f 46 43 49
f 40 54 41
f 41 59 42
f 40 44 54
f 59 43 42
f 59 49 43
f 44 45 47
f 45 46 48
f 46 49 50
f 47 45 48
f 48 46 50
f 89 51 49
f 49 51 50
f 50 51 53
f 51 52 53
f 52 99 101
f 53 52 101
f 41 54 59
f 54 55 56
f 54 56 57
f 54 57 60
f 54 60 61
f 54 58 59
f 54 61 62
f 54 62 63
f 54 63 64
f 54 64 58
f 44 80 54
f 59 89 49
f 54 80 55
f 55 81 56
f 56 82 57
f 57 83 60
f 60 84 61
f 64 90 58
f 61 86 62
f 62 88 63
f 63 87 64
f 58 89 59
f 91 67 66
f 92 68 67
f 98 66 65
f 93 69 68
f 94 70 69
f 96 71 70
f 97 72 71
f 262 73 72
f 263 74 73
f 264 75 74
f 65 75 77
f 67 65 66
f 65 68 69
f 67 68 65
f 65 69 70
f 65 70 71
f 65 71 72
f 65 72 73
f 65 73 74
f 65 74 75
f 55 80 81
f 56 81 82
f 57 82 83
f 60 83 84
f 61 84 85
f 61 85 86
f 62 86 88
f 58 90 89
f 63 88 87
f 64 87 90
f 92 67 91
f 91 66 98
f 93 68 92
f 94 69 93
f 94 95 70
f 95 96 70
f 96 97 71
f 97 262 72
f 262 263 73
f 263 264 74
f 98 65 99
f 264 269 75
f 65 77 76
f 65 76 99
f 76 77 100
f 77 78 100
f 76 100 99
f 75 78 77
f 75 79 78
f 75 269 79
f 78 79 102
f 78 102 100
f 79 269 102
f 89 98 51
f 85 95 86
f 90 91 89
f 88 93 87
f 87 92 90
f 86 94 88
f 89 91 98
f 90 92 91
f 87 93 92
f 88 94 93
f 86 95 94
f 85 255 95
f 98 52 51
f 98 99 52
f 99 100 101
f 101 100 103
f 100 102 103
f 102 269 271
f 103 102 271
f 6 11 114
f 26 6 126
f 11 10 115
f 10 47 144
f 11 115 114
f 6 114 126
f 10 144 115
f 131 104 108
f 158 113 112
f 158 138 113
f 114 117 116
f 114 115 117
f 115 144 147
f 115 147 117
f 129 109 105
f 158 110 109
f 136 105 104
f 158 111 110
f 158 112 111
f 28 26 118
f 26 126 118
f 205 28 123
f 28 118 123
f 205 123 290
f 131 106 107
f 131 107 119
f 131 108 106
f 131 119 120
f 131 120 121
f 123 118 122
f 123 122 125
f 290 123 125
f 290 125 293
f 292 131 124
f 131 121 124
f 292 133 131
f 292 302 133
f 126 116 127
f 126 114 116
f 118 126 127
f 118 127 122
f 127 116 135
f 137 129 105
f 136 137 105
f 122 127 134
f 127 135 134
f 131 136 104
f 116 117 128
f 117 147 156
f 117 156 128
f 129 158 109
f 116 128 135
f 135 129 137
f 135 128 129
f 128 156 158
f 128 158 129
f 125 122 130
f 122 134 130
f 293 125 132
f 125 130 132
f 293 132 299
f 132 130 131
f 132 131 133
f 299 132 133
f 299 133 302
f 134 135 137
f 134 137 136
f 130 134 136
f 130 136 131
f 47 48 145
f 48 50 146
f 47 145 144
f 145 48 146
f 146 50 155
f 155 50 53
f 158 139 138
f 158 140 139
f 144 145 148
f 144 148 147
f 145 149 148
f 145 146 149
f 158 141 140
f 158 142 141
f 159 143 142
f 164 150 143
f 166 151 150
f 166 152 151
f 169 53 101
f 174 101 103
f 155 53 169
f 169 101 174
f 339 103 271
f 174 103 339
f 146 160 149
f 146 155 160
f 155 169 170
f 155 170 160
f 147 148 156
f 156 148 157
f 157 148 149
f 158 159 142
f 159 163 143
f 157 149 161
f 156 157 159
f 156 159 158
f 157 163 159
f 157 161 163
f 161 149 160
f 163 164 143
f 164 166 150
f 161 160 162
f 162 160 170
f 161 162 164
f 161 164 163
f 162 165 166
f 162 166 164
f 162 170 165
f 165 170 175
f 165 175 167
f 167 175 341
f 167 341 325
f 165 167 168
f 165 168 166
f 167 325 327
f 167 327 168
f 166 153 152
f 166 154 153
f 166 171 154
f 166 172 171
f 166 173 172
f 169 174 175
f 169 175 170
f 174 341 175
f 174 339 341
f 166 176 173
f 166 168 343
f 168 327 343
f 166 343 176
f 177 181 203
f 177 204 178
f 177 178 181
f 178 179 181
f 177 203 204
f 178 204 206
f 178 206 179
f 179 206 180
f 179 180 191
f 180 233 191
f 206 233 180
f 181 191 182
f 182 191 183
f 183 191 184
f 191 185 184
f 191 186 185
f 191 187 186
f 191 188 187
f 191 189 188
f 191 190 189
f 179 191 181
f 181 182 208
f 182 183 209
f 183 184 210
f 184 185 212
f 185 186 213
f 186 187 215
f 188 216 187
f 189 217 188
f 191 211 190
f 190 218 189
f 220 194 195
f 221 195 196
f 197 193 225
f 224 193 192
f 219 192 194
f 223 196 198
f 226 198 199
f 199 200 227
f 200 201 228
f 203 181 208
f 233 211 191
f 182 209 208
f 183 210 209
f 184 212 210
f 185 213 212
f 186 214 213
f 186 215 214
f 187 216 215
f 188 217 216
f 190 211 218
f 189 218 217
f 219 194 220
f 224 225 193
f 224 192 219
f 220 195 221
f 221 196 222
f 222 196 223
f 223 198 226
f 226 199 227
f 200 228 227
f 201 266 228
f 192 202 194
f 194 202 195
f 195 202 196
f 197 202 193
f 193 202 192
f 196 202 198
f 198 202 199
f 199 202 200
f 200 202 201
f 201 202 266
f 238 197 225
f 202 278 266
f 203 205 204
f 205 207 204
f 204 207 206
f 206 235 233
f 233 234 211
f 234 237 211
f 206 207 235
f 213 214 34
f 214 222 35
f 217 219 216
f 218 224 217
f 214 215 221
f 215 216 220
f 211 225 218
f 217 224 219
f 216 219 220
f 215 220 221
f 218 225 224
f 214 221 222
f 237 225 211
f 229 230 197
f 229 197 238
f 231 202 197
f 230 231 197
f 231 232 202
f 229 239 230
f 202 232 278
f 230 240 231
f 231 240 232
f 229 238 239
f 230 239 240
f 240 278 232
f 233 235 234
f 234 236 237
f 235 236 234
f 237 241 238
f 236 241 237
f 237 238 225
f 238 241 239
f 239 242 240
f 240 281 278
f 241 242 239
f 242 281 240
f 246 253 252
f 252 253 251
f 251 253 243
f 247 253 246
f 247 248 253
f 248 249 253
f 243 253 244
f 244 253 245
f 249 250 253
f 257 251 243
f 256 243 244
f 259 246 252
f 260 247 246
f 261 248 247
f 254 252 251
f 258 244 245
f 265 245 253
f 267 249 248
f 268 250 249
f 255 252 254
f 257 243 256
f 254 251 257
f 256 244 258
f 258 245 265
f 260 246 259
f 259 252 255
f 260 261 247
f 261 267 248
f 267 268 249
f 250 274 253
f 265 253 283
f 268 287 250
f 253 274 276
f 253 276 283
f 222 255 85
f 254 96 95
f 257 97 96
f 256 262 97
f 255 254 95
f 254 257 96
f 257 256 97
f 256 258 262
f 222 223 259
f 223 226 260
f 222 259 255
f 223 260 259
f 226 261 260
f 258 263 262
f 263 265 264
f 258 265 263
f 226 227 261
f 227 228 261
f 228 266 267
f 228 267 261
f 267 266 268
f 265 272 264
f 266 279 268
f 264 270 269
f 264 272 270
f 269 270 271
f 271 270 273
f 265 283 272
f 272 273 270
f 283 286 272
f 286 273 272
f 250 277 275
f 250 287 277
f 250 275 274
f 275 284 274
f 274 284 276
f 275 288 284
f 276 284 283
f 277 288 275
f 277 287 288
f 266 278 279
f 268 279 280
f 268 280 287
f 278 281 279
f 279 282 280
f 280 289 287
f 281 282 279
f 282 289 280
f 288 285 284
f 284 286 283
f 285 286 284
f 287 289 288
f 289 285 288
f 205 290 207
f 207 290 291
f 207 291 235
f 235 291 296
f 236 296 308
f 290 293 291
f 293 295 291
f 291 295 296
f 297 303 294
f 295 298 296
f 297 314 303
f 314 315 303
f 293 299 295
f 295 299 300
f 303 301 294
f 299 302 300
f 302 303 300
f 303 302 301
f 300 303 304
f 295 300 304
f 295 304 298
f 298 304 306
f 303 305 304
f 304 305 306
f 306 307 310
f 305 307 306
f 296 298 308
f 298 309 308
f 308 309 316
f 309 318 316
f 298 306 309
f 309 306 310
f 315 305 303
f 309 310 318
f 320 307 305
f 320 312 307
f 318 310 311
f 310 312 311
f 307 312 310
f 311 313 332
f 312 313 311
f 313 335 332
f 318 311 319
f 319 311 332
f 319 332 350
f 235 296 236
f 236 308 241
f 241 308 316
f 316 317 242
f 317 347 281
f 241 316 242
f 242 317 281
f 316 318 317
f 318 319 317
f 317 319 347
f 319 350 347
f 315 320 305
f 320 321 312
f 321 313 312
f 313 353 335
f 321 353 313
f 340 271 273
f 339 271 340
f 344 340 273
f 344 273 286
f 331 344 286
f 324 330 329
f 323 324 329
f 337 324 323
f 326 325 341
f 326 341 342
f 326 328 325
f 328 327 325
f 326 330 328
f 323 329 345
f 326 342 329
f 329 342 345
f 326 329 330
f 338 345 344
f 349 352 331
f 331 338 344
f 352 338 331
f 333 334 352
f 332 335 333
f 333 336 334
f 335 336 333
f 334 337 323
f 336 337 334
f 332 333 351
f 332 351 350
f 333 352 351
f 334 323 338
f 323 345 338
f 328 330 355
f 334 338 352
f 324 357 330
f 337 357 324
f 339 342 341
f 339 340 342
f 345 342 340
f 328 346 327
f 344 345 340
f 328 356 346
f 328 355 356
f 347 348 282
f 349 331 285
f 348 349 289
f 281 347 282
f 348 289 282
f 331 286 285
f 349 285 289
f 347 350 348
f 350 351 348
f 348 351 349
f 351 352 349
f 335 353 336
f 336 354 337
f 330 357 355
f 337 354 357
f 353 354 336
f 322 104 105
f 322 105 109
f 322 109 110
f 322 111 112
f 322 112 113
f 322 113 138
f 322 110 111
f 322 106 108
f 322 107 106
f 322 119 107
f 322 120 119
f 302 292 124
f 322 121 120
f 322 124 121
f 322 108 104
f 322 302 124
f 322 138 139
f 322 139 140
f 322 140 141
f 322 141 142
f 322 142 143
f 322 143 150
f 322 150 151
f 322 151 152
f 322 176 327
f 322 152 153
f 322 153 154
f 322 154 171
f 322 171 172
f 322 172 173
f 322 173 176
f 343 327 176
f 322 297 294
f 322 314 297
f 322 315 314
f 322 294 301
f 322 301 302
f 322 320 315
f 322 321 320
f 322 353 321
f 322 327 356
f 346 356 327
f 322 356 355
f 322 354 353
f 322 357 354
f 322 355 357

