# https://github.com/mikedh/trimesh
v -0.01850000266406663 -0.00469846545336037 -0.00171010072297362
v -0.01849999806165455 -0.00433012625700318 -0.00250000007218627
v -0.01850000040228795 -0.00492404004958689 -0.00086824090546874
v -0.02049999901555147 -0.00222471134415968 -0.00425331194466857
v -0.01850000181312830 -0.00321393933933816 -0.00383022220200805
v -0.01849999635054321 -0.00383022077346934 -0.00321393807000426
v -0.02049999746529717 -0.00453289579197420 -0.00157887609071044
v -0.02049999701917945 -0.00425330977268058 -0.00222471077508239
v -0.02049999742901921 -0.00471504001984854 -0.00089910180634765
v -0.02049999918006473 -0.00479583227503467 -0.00019999988145141
v -0.01750000040375590 -0.00482962906262102 -0.00129409511155395
v -0.01750000256598060 -0.00433012885757704 -0.00250000007218627
v -0.01849999923730990 -0.00250000031934119 -0.00433012707299499
v -0.01749999713438647 -0.00249999910521779 -0.00433012707299499
v -0.01749999857655437 -0.00353553432703628 -0.00353553397721557
v -0.01849999800075511 -0.00171010072771847 -0.00469846315449981
v -0.01849999911786941 -0.00086824088266351 -0.00492403884000091
v -0.01749999818219924 -0.00129409519074345 -0.00482962913579253
v -0.01849999906302433 -0.00500000062121265 -0.00000000007218627
v -0.01850000040228795 -0.00492404004958689 0.00086824076109620
v -0.01749999696010091 -0.00499999940708924 -0.00000000007218627
v -0.01850000266406663 -0.00469846545336037 0.00171010057860108
v -0.01849999806165455 -0.00433012625700318 0.00249999992781373
v -0.02049999801124943 -0.00405331110612277 0.00257112114363404
v -0.02050000078509705 -0.00363379641398246 0.00313616554671021
v -0.02049999840858931 -0.00313616564251929 0.00363379471235963
v -0.02049999717470609 -0.00257111956189428 0.00405331222944947
v -0.01849999635054321 -0.00383022077346934 0.00321393768721314
v -0.01850000181312830 -0.00321393933933816 0.00383022205763551
v -0.01750000040375590 -0.00482962906262102 0.00129409496718140
v -0.01750000256598060 -0.00433012885757704 0.00249999992781373
v -0.01749999857655437 -0.00353553432703628 0.00353553383284303
v -0.01849999923730990 -0.00250000031934119 0.00433012669020387
v -0.01749999713438647 -0.00249999910521779 0.00433012669020387
v -0.01849999800075511 -0.00171010072771847 0.00469846336775514
v -0.01849999911786941 -0.00086824088266351 0.00492403881483765
v -0.01749999818219924 -0.00129409519074345 0.00482962887221070
v -0.02050000263787221 -0.00157887682304581 -0.00453289647168426
v -0.02050000029764244 -0.00089910182370830 -0.00471504147118835
v -0.02050000262537233 -0.00020000111227436 -0.00479583151406554
v -0.02050000232211840 -0.00057135478693963 -0.00138961227006225
v -0.02049999735713306 -0.00053846543732775 -0.00134597737855224
v -0.02050000172945350 -0.00049646567674660 -0.00131232602662353
v -0.02049999834597581 -0.00044813169335188 -0.00129088885850219
v -0.02050000034745925 -0.00039667558996210 -0.00128308780259399
v -0.02049999730177220 -0.00034550288673119 -0.00128943975037841
v -0.02049999962067649 -0.00029801351870865 -0.00130952413148193
v -0.02049999936403384 -0.00138961247396894 -0.00057135303086547
v -0.02049999682607895 -0.00134597673311701 -0.00053846604890136
v -0.02049999998453122 -0.00131232563263440 -0.00049646384782104
v -0.02049999891113402 -0.00129088889318006 -0.00044813211030273
v -0.02050000052107868 -0.00128308886346318 -0.00039667470521239
v -0.02049999874013366 -0.00128943960440044 -0.00034550435609130
v -0.02049999918594912 -0.00148911534589730 -0.00019999988145141
v -0.02050000029766596 -0.00143488368401912 -0.00020666368073730
v -0.02049999746233244 -0.00134200834593741 -0.00025735051697997
v -0.02050000213271207 -0.00138474012476664 -0.00022621257371215
v -0.02049999732435745 -0.00130952262300302 -0.00029801328248290
v -0.02050000262537233 -0.00020000111227436 -0.00148911626405028
v -0.02049999756766397 -0.00020666270451346 -0.00143488366669921
v -0.02049999664101486 -0.00022621081830586 -0.00138473947114257
v -0.02049999898971728 -0.00025734993871049 -0.00134200866288451
v -0.01849999941159547 -0.00000000001746974 -0.00500000007218627
v -0.01749999730867204 0.00000000119665366 -0.00500000007218627
v -0.01849999970532152 0.00086824084772402 -0.00492403884000091
v -0.01850000082243582 0.00171010069277899 -0.00469846315449981
v -0.01849999993684666 -0.00064320284305954 -0.00037135274476318
v -0.01849999739889177 -0.00059956710220760 -0.00033846576279906
v -0.01850000087047878 -0.00068847405310972 -0.00000666339463500
v -0.01850000270552489 -0.00063833049385724 -0.00002621276444701
v -0.01849999898881957 -0.00059559706321563 -0.00005735070771484
v -0.01850000055734404 -0.00056591600172499 -0.00029646403855590
v -0.01849999948394684 -0.00054447926227066 -0.00024813182420043
v -0.01850000109389150 -0.00053667923255378 -0.00019667489594726
v -0.01849999931294648 -0.00054302997349104 -0.00014550454682616
v -0.01849999789717027 -0.00056311299209362 -0.00009801347321777
v -0.02050000014636212 0.00091776192793839 -0.00118961246079711
v -0.02050000163058373 0.00089641745278719 -0.00113931377000121
v -0.02049999756060858 0.00088827746881313 -0.00108611304826049
v -0.02049999789383621 0.00089387802156624 -0.00103353793687133
v -0.02050000003329464 0.00091284840202164 -0.00098507459229736
v -0.02050000217908085 0.00094393427195270 -0.00094393546647338
v -0.02050000271704012 0.00098507289903798 -0.00091284902161864
v -0.02049999708877610 0.00103354032345029 -0.00089387662476806
v -0.02050000027392596 0.00108611236861199 -0.00088827569550780
v -0.02049999775177785 0.00113931539758426 -0.00089641768998412
v -0.02050000027153132 0.00118961273067529 -0.00091776330537109
v -0.01849999910834154 -0.00037135369213500 -0.00064320237702636
v -0.01849999941159547 -0.00000000001746974 -0.00074270589417724
v -0.01850000003448747 -0.00002621353819850 -0.00063832910126952
v -0.01850000096113659 -0.00000666542440610 -0.00068847329682616
v -0.01850000170427999 -0.00033846650540803 -0.00059956748551635
v -0.01849999946935096 -0.00029646293012961 -0.00056591565675048
v -0.01850000173944842 -0.00024813441324452 -0.00054447848862914
v -0.01849999713368239 -0.00019667449515748 -0.00053667743272094
v -0.01849999640689963 -0.00009801242390403 -0.00056311376160888
v -0.01850000069524482 -0.00014550560662384 -0.00054302985734252
v -0.01850000238318990 -0.00005735265860314 -0.00059559829301147
v -0.01849999971484939 0.00037135365719552 -0.00064320237702636
v -0.01850000024539668 0.00035000753023195 -0.00059290368623046
v -0.01850000278267101 0.00034186373156062 -0.00053970296448974
v -0.01849999650864915 0.00034746809901100 -0.00048712785310058
v -0.01849999864810759 0.00036643847946640 -0.00043866403168945
v -0.01850000079389380 0.00039752434939746 -0.00039752538270263
v -0.01850000133185307 0.00043866297648275 -0.00036643893784789
v -0.01850000231083852 0.00048712658619778 -0.00034746606416015
v -0.01849999888873890 0.00053970244605675 -0.00034186561173705
v -0.01849999636659080 0.00059290547502903 -0.00035000760621337
v -0.01849999888634426 0.00064320280812005 -0.00037135274476318
v -0.02049999684567957 0.00257112229985571 -0.00405331201619414
v -0.02050000221904584 0.00313616456578345 -0.00363379485673217
v -0.02049999984253810 0.00363379533724662 -0.00313616569108276
v -0.02050000357006003 0.00405331168119930 -0.00257112081116943
v -0.02050000035610383 -0.00118961380741113 0.00091776316099854
v -0.02049999626860782 -0.00113931265962284 0.00089641754561158
v -0.02050000035370919 -0.00108611344534782 0.00088827555113526
v -0.02049999693160958 -0.00103353758548886 0.00089387648039552
v -0.02049999791059503 -0.00098507397577382 0.00091284887724610
v -0.02049999844855429 -0.00094393534868854 0.00094393532210084
v -0.02050000059434051 -0.00091284947875747 0.00098507444792481
v -0.02050000048127302 -0.00091776300467423 0.00118961231642457
v -0.02049999612654946 -0.00089387528360481 0.00103353826933595
v -0.02049999645977709 -0.00088827473085170 0.00108611338072511
v -0.02049999899705142 -0.00089641852952302 0.00113931362562867
v -0.02050000163791786 0.00025734886197466 0.00134200851851197
v -0.02049999737937081 0.00022621355626729 0.00138473932677003
v -0.02050000100695866 0.00029801244197281 0.00130952398710938
v -0.02049999671861347 0.00034550562469262 0.00128943960600587
v -0.02049999800226282 0.00020000003553852 0.00148911611967774
v -0.02049999645272170 0.00020666544247489 0.00143488352232667
v -0.02049999800226282 0.00020000003553852 0.00479583160811158
v -0.01849999975876193 -0.00074270571498790 -0.00000000007218627
v -0.01849999993684666 -0.00064320284305954 0.00037135307722779
v -0.01850000245660013 -0.00059290550996851 0.00035000746184083
v -0.01849999993445203 -0.00053970248099623 0.00034186546736451
v -0.02049999669602822 0.00130952536096445 0.00029801313811036
v -0.02049999849492308 0.00138473904803080 0.00022621242933961
v -0.02050000316530272 0.00134200726920157 0.00025735084944459
v -0.02050000188750149 0.00128943852766461 0.00034550421171876
v -0.02050000010655647 0.00128308778672735 0.00039667503767701
v -0.02050000171650113 0.00129088781644423 0.00044813196593018
v -0.02050000064310393 0.00131232455589856 0.00049646370344849
v -0.02049999719430672 0.00134597947107844 0.00053846590452882
v -0.02050000126360130 0.00138961139723310 0.00057135288649293
v -0.02050000028017590 0.00039667451322627 0.00128308765822144
v -0.02050000228165934 0.00044813061661604 0.00129088871412965
v -0.02049999889818165 0.00049646460001076 0.00131232588225098
v -0.02049999666325261 0.00053846817528918 0.00134597723417970
v -0.02049999830551675 0.00057135371020379 0.00138961212568971
v -0.01849999651235241 -0.00048712662113726 0.00034746639662476
v -0.01849999749133786 -0.00043866301142223 0.00036643879347535
v -0.01849999802929712 -0.00039752438433694 0.00039752523833009
v -0.01850000017508334 -0.00036643851440588 0.00043866436415406
v -0.01850000231454178 -0.00034746813395048 0.00048712770872804
v -0.01850000264776940 -0.00034186758119737 0.00053970282011720
v -0.01849999857779425 -0.00035000756517143 0.00059290354185792
v -0.01849999910834154 -0.00037135369213500 0.00064320223265382
v -0.01849999878870345 0.00002621350325902 0.00063832943373414
v -0.01849999786205434 0.00000666538946662 0.00068847315245362
v -0.01849999941159547 -0.00000000001746974 0.00074270574980470
v -0.01849999644000103 0.00005735262366366 0.00059559814863892
v -0.01850000241629130 0.00009801238896454 0.00056311361723634
v -0.01849999812794611 0.00014550557168436 0.00054302971296998
v -0.01850000168950854 0.00019667446021800 0.00053667728834840
v -0.01849999708374251 0.00024813437830504 0.00054447834425660
v -0.01849999935383997 0.00029646289519012 0.00056591551237794
v -0.01849999711891094 0.00033846647046855 0.00059956734114381
v -0.01850000092602066 0.00056311295715414 0.00009801332884522
v -0.01849999951024445 0.00054302993855156 0.00014550440245362
v -0.01849999983437136 0.00059559702827615 0.00005735056334229
v -0.01849999611766603 0.00063833045891776 0.00002621262007447
v -0.01849999772929943 0.00053667919761430 0.00019667475157472
v -0.01849999933924408 0.00054447922733118 0.00024813215666505
v -0.01849999826584689 0.00056591596678551 0.00029646389418336
v -0.01849999795271215 0.00068847401817024 0.00000666372709962
v -0.01849999906442899 0.00074270568004842 -0.00000000007218627
v -0.01850000142429915 0.00059956706726812 0.00033846561842652
v -0.01849999888634426 0.00064320280812005 0.00037135307722779
v -0.01849999971484939 0.00037135365719552 0.00064320223265382
v -0.02050000032999271 0.00089910074697246 0.00471504108839722
v -0.01849999941159547 -0.00000000001746974 0.00499999992781373
v -0.01749999730867204 0.00000000119665366 0.00499999992781373
v -0.01849999970532152 0.00086824084772402 0.00492403881483765
v -0.01850000082243582 0.00171010069277899 0.00469846336775514
v -0.02050000032996919 0.00143488260728328 0.00020666353636475
v -0.02050000144168604 0.00148911426916146 0.00019999973707887
v -0.02050000144757042 0.00479583119829883 0.00019999973707887
v -0.02049999754504078 0.00471504440962234 0.00089910166197511
v -0.02049999560141418 0.00453289687812326 0.00157887594633790
v -0.02049999700120622 0.00425331251064201 0.00222471039229127
v -0.02049999798976294 0.00157887574630997 0.00453289692335816
v -0.02050000161208368 0.00222471026742384 0.00425331203871461
v -0.01399999696357623 -0.00423005442482650 -0.00263041813439635
v -0.01399999869709907 -0.00482963027969874 -0.00129409511155395
v -0.01399999869709907 -0.00482963027969874 -0.00129409558839111
v -0.01399999965077339 -0.00482962862788637 -0.00129409511155395
v -0.01400000181299809 -0.00433012842284239 -0.00250000007218627
v -0.01400000085932378 -0.00433013007465476 -0.00250000007218627
v -0.01400000181299809 -0.00433012842284239 -0.00250000007218627
v -0.01400000122655961 -0.00440889530772426 -0.00230983836716918
v -0.01400000124138175 -0.00486115053107500 -0.00105466659135131
v -0.01399999722964174 -0.00495556360754220 -0.00033751876420287
v -0.01399999834940044 -0.00495722487607105 -0.00032491357392577
v -0.01399999709436730 -0.00395203906157097 -0.00011456925935058
v -0.01550000286445981 -0.00259807822233521 -0.00150000007218627
v -0.01450000076153638 -0.00259807700821181 -0.00150000007218627
v -0.01550000175785985 -0.00289777801499913 -0.00077645738190917
v -0.01449999965493642 -0.00289777680087572 -0.00077645738190917
v -0.01399999843401104 -0.00325443542288059 -0.00053730971879272
v -0.01400000276987977 -0.00253023052524033 -0.00189622027940063
v -0.01449999817714578 -0.00212132062024982 -0.00212132031983642
v -0.01399999920705758 -0.00234464404486220 -0.00179911000794677
v -0.01400000119116857 -0.00314053904578115 -0.00103379113740234
v -0.01399999802145085 -0.00207351267554173 -0.00078041513032226
v -0.01549999979623819 -0.00150000004055719 -0.00259807617730407
v -0.01550000023419099 -0.00077645802223506 -0.00289777739114074
v -0.01449999769331477 -0.00149999882643378 -0.00259807617730407
v -0.01449999813126757 -0.00077645680811165 -0.00289777739114074
v -0.01549999971007467 -0.00000000018979679 -0.00300000007218627
v -0.01449999760715124 0.00000000102432662 -0.00300000007218627
v -0.01549999918595834 0.00077645764264148 -0.00289777739114074
v -0.01550000028006920 -0.00212132183437323 -0.00212132031983642
v -0.01400000210158738 -0.00152618810365514 -0.00142943055695800
v -0.01399999911363230 -0.00123569645277327 -0.00140904243058471
v -0.01399999677352741 -0.00092593182919602 -0.00129213769501952
v -0.01399999537083574 -0.00079447979095583 -0.00126490552491454
v -0.01399999659877129 -0.00074999829399188 -0.00129903800553588
v -0.01449999765023300 -0.00074999890105358 -0.00129903800553588
v -0.01449999786920940 -0.00038822789189252 -0.00144888885087279
v -0.01399999516237368 -0.00061409074772584 -0.00135533244675903
v -0.01450000167261041 -0.00106066087940405 -0.00106066043442992
v -0.01449999918434381 -0.00129903799194260 -0.00075000007218627
v -0.01450000193466857 -0.00144888979562319 -0.00038822848862914
v -0.01399999585602788 -0.00148678546913308 -0.00077893359727172
v -0.01399999585602788 -0.00148678546913308 -0.00077893359727172
v -0.01399999648633187 -0.00145051423581299 -0.00071531493729858
v -0.01399999813288210 -0.00129903738488089 -0.00075000007218627
v -0.01400000062114870 -0.00106066027234235 -0.00106066043442992
v -0.01400000088320686 -0.00144888918856148 -0.00038822848862914
v -0.01399999769384692 -0.00149572393632775 -0.00003247840470580
v -0.01449999760715124 0.00000000102432662 -0.00150000007218627
v -0.01399999641393708 0.00131997819250650 -0.00492622168130187
v -0.01399999585144861 0.00136065714988851 -0.00491315169400481
v -0.01399999991650414 0.00021413403940405 -0.00304131777352599
v -0.01399999761567639 0.00044272197319880 -0.00268152697152404
v -0.01449999708303492 0.00077645885676489 -0.00289777739114074
v -0.01449999752098772 0.00150000087508701 -0.00259807617730407
v -0.01399999929141658 -0.00047905857159968 -0.00141126544541625
v -0.01399999681774769 -0.00038822728483082 -0.00144888885087279
v -0.01399999876023941 -0.00033933476018021 -0.00145532567567138
v -0.01399999999034335 -0.00019411473406988 -0.00147444446152953
v -0.01399999461319781 -0.00004889089326228 -0.00149356324738769
v -0.01399999655568953 0.00000000163138832 -0.00150000007218627
v -0.01399999716390963 0.00009747582938769 -0.00148716743058471
v -0.01399999596655414 0.00010464538636652 -0.00148622376984862
v -0.01399999490677182 0.00057069274510563 -0.00218386395043639
v -0.01399999827729169 0.00057803806055635 -0.00214760501450805
v -0.01449999734509308 0.00038822994054575 -0.00144888885087279
v -0.01400000290088085 0.00038822673291019 -0.00144888885087279
v -0.01399999703218823 0.00059497315983327 -0.00158080060548095
v -0.01399999655574203 0.00066011210511207 -0.00133856971329955
v -0.01399999929000841 0.00066348903338318 -0.00133487184113769
v -0.01449999756406948 0.00075000094970682 -0.00129903800553588
v -0.01399999579845523 0.00083145173583566 -0.00133708150452880
v -0.01399999651260777 0.00075000155676852 -0.00129903800553588
v -0.01399999697049959 0.00077582022095417 -0.00127922589844970
v -0.01399999943274915 0.00095978444663301 -0.00125081641740112
v -0.01399999692585398 0.00126526106159445 -0.00135090453690795
v -0.01450000014894156 0.00106065911336002 -0.00106066043442992
v -0.01450000263720815 0.00129903622589856 -0.00075000007218627
v -0.01449999988688339 0.00144888802957915 -0.00038822848862914
v -0.01399999909747984 0.00106065972042172 -0.00106066043442992
v -0.01400000158574644 0.00129903683296027 -0.00075000007218627
v -0.01399999883542168 0.00144888863664086 -0.00038822848862914
v -0.01400000089430949 0.00177813109434071 -0.00060359437531737
v -0.01399999631080292 0.00148126341426351 -0.00014233262604980
v -0.01399999809245384 0.00149356508415781 -0.00004889447755126
v -0.01399999786853794 0.00166736230374597 -0.00021951253480224
v -0.01399999956594383 -0.00401928026407329 0.00093716471129151
v -0.01399999965077339 -0.00482962862788637 0.00129409496718140
v -0.01399999965077339 -0.00482962862788637 0.00129409496718140
v -0.01399999879022572 -0.00470421813109397 0.00159686653547974
v -0.01399999778189645 -0.00450530630335275 0.00207707874708863
v -0.01549999988240171 -0.00299999989131759 -0.00000000007218627
v -0.01550000175785985 -0.00289777801499913 0.00077645723753663
v -0.01449999777947829 -0.00299999867719418 -0.00000000007218627
v -0.01449999965493642 -0.00289777680087572 0.00077645723753663
v -0.01550000286445981 -0.00259807822233521 0.00149999992781373
v -0.01450000076153638 -0.00259807700821181 0.00149999992781373
v -0.01400000166453957 -0.00306668568681603 0.00021136133604737
v -0.01400000176616239 -0.00282841951958921 0.00037236826353761
v -0.01399999660509543 -0.00189233226741314 0.00084143202238770
v -0.01399999634180103 -0.00180312984259305 0.00081698839598389
v -0.01399999763432485 -0.00179136307750893 0.00082587187224122
v -0.01400000077946451 -0.00228223287410787 0.00181302921705933
v -0.01449999817714578 -0.00212132062024982 0.00212132065230103
v -0.01400000187709046 -0.00172835218878427 0.00151572315626832
v -0.01400000181299809 -0.00433012842284239 0.00249999992781373
v -0.01400000181299809 -0.00433012842284239 0.00250000088148805
v -0.01400000043990365 -0.00403162311068204 0.00288901989393922
v -0.01550000028006920 -0.00212132183437323 0.00212132065230103
v -0.01449999769331477 -0.00149999882643378 -0.00000000007218627
v -0.01450000193466857 -0.00144888979562319 0.00038822834425660
v -0.01449999918434381 -0.00129903799194260 0.00074999992781373
v -0.01450000167261041 -0.00106066087940405 0.00106066029005738
v -0.01399999664185305 -0.00149999821937208 -0.00000000007218627
v -0.01400000015458332 -0.00148943305311354 0.00008026163511964
v -0.01400000088320686 -0.00144888918856148 0.00038822834425660
v -0.01399999813288210 -0.00129903738488089 0.00074999992781373
v -0.01400000062114870 -0.00106066027234235 0.00106066029005738
v -0.01399999792633684 -0.00085511379243247 0.00121838037901612
v -0.01399999807139437 -0.00136387208610733 0.00145619385176392
v -0.01399999896875034 -0.00101406279258338 0.00132155363493653
v -0.01399999651588024 -0.00078912197271965 0.00126901571684571
v -0.01399999659877129 -0.00074999829399188 0.00129903786116334
v -0.01449999765023300 -0.00074999890105358 0.00129903786116334
v -0.01449999786920940 -0.00038822789189252 0.00144888870650025
v -0.01399999507877672 -0.00065916535541065 0.00133666174345704
v -0.01449999760715124 0.00000000102432662 0.00149999992781373
v -0.01549999979623819 -0.00150000004055719 0.00259807579451295
v -0.01550000023419099 -0.00077645802223506 0.00289777748518678
v -0.01449999769331477 -0.00149999882643378 0.00259807579451295
v -0.01449999813126757 -0.00077645680811165 0.00289777748518678
v -0.01549999971007467 -0.00000000018979679 0.00299999992781373
v -0.01449999760715124 0.00000000102432662 0.00299999992781373
v -0.01549999918595834 0.00077645764264148 0.00289777748518678
v -0.01399999655568953 0.00000000163138832 -0.00000000007218627
v -0.01399999825414531 -0.00052413483109686 0.00139259426527711
v -0.01399999681774769 -0.00038822728483082 0.00144888870650025
v -0.01399999681774769 -0.00038822728483082 0.00144888870650025
v -0.01399999799412883 -0.00024238174141954 0.00146808950834962
v -0.01399999594746943 -0.00009747256661105 0.00148716728621217
v -0.01399999655568953 0.00000000163138832 0.00149999992781373
v -0.01399999849818125 0.00004889415603892 0.00149356310301514
v -0.01399999800872654 0.00008682665788787 0.00148856918745728
v -0.01449999752098772 0.00150000087508701 -0.00000000007218627
v -0.01449999988688339 0.00144888802957915 0.00038822834425660
v -0.01450000014894156 0.00106065911336002 0.00106066029005738
v -0.01450000263720815 0.00129903622589856 0.00074999992781373
v -0.01399999947061449 0.00086670589893644 0.00120948641234132
v -0.01399999980772457 0.00090503656095324 0.00118007414274903
v -0.01399999646952601 0.00150000148214872 -0.00000000007218627
v -0.01399999705977093 0.00148716986288135 0.00009747402601930
v -0.01399999608010492 0.00147419819534692 0.00019600431853028
v -0.01399999682919964 0.00168731899965297 0.00027857725554200
v -0.01399999883542168 0.00144888863664086 0.00038822834425660
v -0.01399999875616150 0.00160529108724882 0.00043013660841676
v -0.01400000158574644 0.00129903683296027 0.00074999992781373
v -0.01399999909747984 0.00106065972042172 0.00106066029005738
v -0.01449999734509308 0.00038822994054575 0.00144888870650025
v -0.01400000290088085 0.00038822673291019 0.00144888870650025
v -0.01399999633278362 0.00067706423358521 0.00132924930983277
v -0.01399999885916714 0.00065956677835514 0.00145569364958497
v -0.01399999754692873 0.00056405974474935 0.00166166250639649
v -0.01399999725017998 0.00049492165752324 0.00212259380751344
v -0.01449999756406948 0.00075000094970682 0.00129903786116334
v -0.01399999651260777 0.00075000155676852 0.00129903786116334
v -0.01399999755008177 0.00112662078536683 0.00128466360502930
v -0.01399999597409282 0.00037434449610358 0.00284341232710572
v -0.01400000018264750 0.00019017820154973 0.00326044933729859
v -0.01449999708303492 0.00077645885676489 0.00289777748518678
v -0.01449999752098772 0.00150000087508701 0.00259807579451295
v -0.01750000304239431 0.00129409376935352 -0.00482962913579253
v -0.01849999958588103 0.00250000028440171 -0.00433012707299499
v -0.01749999748295760 0.00250000149852512 -0.00433012707299499
v -0.01549999962391114 0.00149999966096361 -0.00259807617730407
v -0.01849999701006262 0.00321393930439867 -0.00383022220200805
v -0.01850000247264772 0.00383022073852986 -0.00321393807000426
v -0.01750000264803919 0.00353553290564634 -0.00353553397721557
v -0.01850000076153638 0.00433012622206370 -0.00250000007218627
v -0.01749999865861296 0.00433012743618711 -0.00250000007218627
v -0.01750000082083766 0.00482962764123109 -0.00129409511155395
v -0.01850000276637378 0.00469846160372362 -0.00171010072297362
v -0.01849999842090298 0.00492404001464741 -0.00086824090546874
v -0.01549999914008013 0.00212132145477965 -0.00212132031983642
v -0.01549999655568953 0.00259807784274164 -0.00150000007218627
v -0.01449999703715671 0.00212132266890306 -0.00212132031983642
v -0.01450000106001558 0.00259807524216778 -0.00150000007218627
v -0.01399999437557295 0.00182342314828439 -0.00042516191071777
v -0.01549999766228949 0.00289777763540555 -0.00077645738190917
v -0.01399999620182244 0.00241784769816004 -0.00212039454049377
v -0.01400000101872392 0.00253836995729376 -0.00187603099412231
v -0.01399999897478677 0.00254131136337983 -0.00182107789582519
v -0.01400000228452662 0.00306699763800961 -0.00177073199815063
v -0.01399999808754332 0.00322502564694160 -0.00160153062409667
v -0.01400000000656469 0.00336466214949505 -0.00202212698525695
v -0.01400000092897838 0.00334850468954524 -0.00151718766755370
v -0.01450000216661555 0.00289777503483169 -0.00077645738190917
v -0.01750000304239431 0.00129409376935352 0.00482962887221070
v -0.01849999958588103 0.00250000028440171 0.00433012669020387
v -0.01749999748295760 0.00250000149852512 0.00433012669020387
v -0.01549999962391114 0.00149999966096361 0.00259807579451295
v -0.01750000082083766 0.00482962764123109 0.00129409496718140
v -0.01849999976016660 0.00500000058627317 -0.00000000007218627
v -0.01849999842090298 0.00492404001464741 0.00086824076109620
v -0.01749999765724317 0.00500000180039657 -0.00000000007218627
v -0.01850000276637378 0.00469846160372362 0.00171010057860108
v -0.01850000247264772 0.00383022073852986 0.00321393768721314
v -0.01849999701006262 0.00321393930439867 0.00383022205763551
v -0.01850000076153638 0.00433012622206370 0.00249999992781373
v -0.01750000264803919 0.00353553290564634 0.00353553383284303
v -0.01749999865861296 0.00433012743618711 0.00249999992781373
v -0.01549999655568953 0.00259807784274164 0.00149999992781373
v -0.01549999914008013 0.00212132145477965 0.00212132065230103
v -0.01449999703715671 0.00212132266890306 0.00212132065230103
v -0.01450000106001558 0.00259807524216778 0.00149999992781373
v -0.01549999953774762 0.00299999951172401 -0.00000000007218627
v -0.01549999766228949 0.00289777763540555 0.00077645723753663
v -0.01449999743482419 0.00300000072584741 -0.00000000007218627
v -0.01450000216661555 0.00289777503483169 0.00077645723753663
v -0.01399999692989213 0.00270109786058091 0.00101662104063722
v -0.01399999784244670 0.00206584553492181 0.00195271389418336
v -0.01399999539126534 0.00218133506376520 0.00201008598738404
v -0.01399999953876307 0.00263686287732481 0.00202333538466187
v -0.01400000122612895 0.00292627925207669 0.00181967728071900
v -0.01399999786357492 0.00273871239280602 0.00198657457762452
v -0.01399999813909955 0.00370088633194274 0.00164245169096681
v -0.01399999829280530 0.00355363928371578 0.00213850872450562
v -0.01400000024621499 0.00423055306751123 0.00228841869765015
v -0.01399999670701520 0.00457405279681237 0.00225567238264771
v -0.01400000051503173 0.00455896845010767 0.00228281204634400
v -0.01399999882625222 0.00368042548599327 0.00352685253554078
v -0.01399999699723162 0.00372230769401322 0.00348632042341920
f 6 12 2
f 7 1 3
f 3 19 10
f 2 12 1
f 1 11 3
f 12 11 1
f 3 21 19
f 11 21 3
f 16 13 4
f 16 4 38
f 4 13 41
f 8 1 7
f 7 3 9
f 9 3 10
f 9 10 54
f 10 19 54
f 8 7 48
f 7 9 48
f 9 54 48
f 8 2 1
f 8 48 2
f 2 48 67
f 54 19 132
f 15 12 6
f 15 222 12
f 12 205 11
f 11 207 21
f 12 222 205
f 11 205 207
f 207 284 21
f 14 15 5
f 13 14 5
f 5 15 6
f 16 14 13
f 16 18 14
f 17 18 16
f 5 6 88
f 13 5 88
f 14 215 15
f 15 215 222
f 17 64 18
f 18 216 14
f 6 2 67
f 6 67 88
f 19 21 20
f 21 30 20
f 20 30 22
f 30 31 22
f 22 31 23
f 23 31 28
f 114 24 25
f 19 20 132
f 133 20 22
f 133 22 23
f 114 23 24
f 133 23 114
f 24 28 25
f 114 25 26
f 24 23 28
f 25 29 26
f 25 28 29
f 121 26 27
f 121 27 33
f 26 29 27
f 29 33 27
f 21 284 30
f 30 285 31
f 30 284 285
f 285 288 31
f 31 32 28
f 288 32 31
f 132 20 133
f 157 121 33
f 288 301 32
f 28 32 29
f 32 34 29
f 29 34 33
f 157 33 35
f 160 35 36
f 33 34 35
f 34 37 35
f 35 37 36
f 301 34 32
f 301 320 34
f 34 320 37
f 37 182 36
f 39 16 38
f 38 4 41
f 39 38 59
f 40 39 59
f 38 41 59
f 41 42 43
f 41 43 44
f 59 41 60
f 41 44 45
f 41 46 47
f 41 47 62
f 41 45 46
f 41 62 61
f 60 41 61
f 48 54 49
f 49 54 50
f 50 54 51
f 51 54 52
f 52 54 53
f 57 54 55
f 54 56 58
f 53 54 58
f 57 56 54
f 55 54 132
f 57 55 69
f 48 49 67
f 49 50 68
f 50 51 72
f 51 52 73
f 52 53 74
f 57 70 56
f 53 58 76
f 58 56 71
f 39 17 16
f 40 17 39
f 40 59 63
f 40 63 17
f 17 63 64
f 63 65 64
f 65 363 64
f 63 89 65
f 65 89 66
f 65 66 363
f 66 99 364
f 13 88 41
f 63 59 89
f 49 68 67
f 50 72 68
f 51 73 72
f 52 74 73
f 53 76 75
f 53 75 74
f 57 69 70
f 55 132 69
f 58 71 76
f 56 70 71
f 41 88 42
f 42 92 43
f 43 93 44
f 44 94 45
f 46 45 95
f 61 62 90
f 47 46 96
f 62 47 98
f 59 60 89
f 60 61 91
f 42 88 92
f 43 92 93
f 92 67 68
f 60 91 89
f 44 93 94
f 45 94 95
f 46 95 97
f 46 97 96
f 47 96 98
f 61 90 91
f 62 98 90
f 77 78 79
f 77 79 80
f 77 80 81
f 77 81 82
f 77 82 83
f 77 83 84
f 77 84 85
f 77 85 86
f 77 86 87
f 99 78 77
f 78 100 79
f 79 101 80
f 80 102 81
f 81 103 82
f 82 105 83
f 83 106 84
f 84 107 85
f 85 108 86
f 99 100 78
f 79 100 101
f 80 101 102
f 81 102 103
f 82 103 104
f 82 104 105
f 87 86 109
f 66 89 99
f 88 67 92
f 92 68 93
f 93 68 72
f 94 72 73
f 95 73 74
f 97 74 75
f 93 72 94
f 94 73 95
f 95 74 97
f 96 97 103
f 97 75 104
f 91 90 100
f 89 91 99
f 91 100 99
f 90 98 101
f 98 96 102
f 90 101 100
f 98 102 101
f 96 103 102
f 97 104 103
f 104 75 169
f 104 169 105
f 105 168 106
f 106 170 107
f 109 108 176
f 107 175 108
f 105 169 168
f 106 168 170
f 107 170 171
f 107 171 175
f 108 175 176
f 364 99 77
f 87 109 370
f 83 105 106
f 84 106 107
f 85 107 108
f 86 108 109
f 110 77 111
f 111 87 112
f 110 111 367
f 110 367 364
f 110 364 77
f 111 112 367
f 112 113 368
f 111 77 87
f 112 87 113
f 113 87 370
f 115 114 121
f 116 115 121
f 116 121 117
f 117 121 118
f 118 121 119
f 133 114 115
f 134 115 116
f 135 116 117
f 150 117 118
f 119 121 120
f 120 121 122
f 122 121 123
f 123 121 124
f 114 26 121
f 126 130 149
f 125 126 149
f 130 129 149
f 134 133 115
f 134 116 135
f 150 135 117
f 151 118 119
f 153 119 120
f 157 124 121
f 154 120 122
f 155 122 123
f 156 123 124
f 150 118 151
f 151 119 152
f 152 119 153
f 69 132 134
f 70 69 135
f 69 134 135
f 132 133 134
f 76 71 150
f 71 70 135
f 71 135 150
f 153 120 154
f 154 122 155
f 155 123 156
f 156 124 157
f 159 160 130
f 161 158 125
f 158 159 126
f 162 161 127
f 163 162 128
f 164 163 128
f 164 145 165
f 165 146 166
f 166 147 167
f 167 148 179
f 157 35 160
f 160 181 129
f 159 130 126
f 158 126 125
f 160 129 130
f 161 125 127
f 162 127 128
f 164 128 145
f 165 145 146
f 166 146 147
f 167 147 148
f 179 148 149
f 137 138 186
f 186 136 139
f 186 138 136
f 186 139 140
f 186 140 141
f 186 141 142
f 186 142 143
f 186 143 144
f 168 139 136
f 170 136 138
f 171 138 137
f 172 140 139
f 173 141 140
f 174 142 141
f 177 143 142
f 178 144 143
f 175 137 185
f 176 185 186
f 145 128 149
f 125 149 127
f 128 127 149
f 145 149 146
f 146 149 147
f 147 149 148
f 129 191 149
f 75 76 151
f 76 150 151
f 75 151 152
f 75 152 169
f 152 153 163
f 153 154 162
f 154 155 161
f 155 156 158
f 154 161 162
f 155 158 161
f 153 162 163
f 156 157 159
f 157 160 159
f 156 159 158
f 169 152 163
f 169 163 172
f 172 163 164
f 173 164 165
f 172 164 173
f 174 165 166
f 177 166 167
f 173 165 174
f 178 167 179
f 174 166 177
f 177 167 178
f 171 170 138
f 170 168 136
f 171 137 175
f 169 172 139
f 172 173 140
f 168 169 139
f 173 174 141
f 174 177 142
f 177 178 143
f 175 185 176
f 178 400 144
f 179 149 390
f 178 179 398
f 131 181 183
f 129 131 180
f 129 180 191
f 149 192 390
f 129 181 131
f 131 183 180
f 191 180 184
f 160 36 181
f 36 182 181
f 181 182 183
f 183 182 389
f 179 390 399
f 183 184 180
f 183 389 184
f 192 184 390
f 137 186 185
f 186 144 188
f 176 186 394
f 144 400 190
f 186 188 187
f 144 189 188
f 186 187 394
f 144 190 189
f 149 191 192
f 192 191 184
f 196 195 194
f 199 198 200
f 197 210 193
f 199 200 235
f 196 194 201
f 202 203 204
f 196 201 209
f 202 204 209
f 205 206 207
f 222 211 205
f 211 206 205
f 207 208 284
f 196 209 239
f 208 286 284
f 206 208 207
f 206 233 208
f 208 302 286
f 197 238 210
f 211 232 206
f 197 237 238
f 197 234 237
f 238 212 210
f 238 223 212
f 196 239 213
f 239 209 204
f 239 214 213
f 208 233 302
f 239 204 240
f 239 236 214
f 14 216 215
f 18 64 219
f 18 219 216
f 64 221 219
f 218 217 215
f 216 218 215
f 216 220 218
f 216 219 220
f 219 246 220
f 219 221 246
f 217 211 222
f 215 217 222
f 217 231 211
f 211 231 232
f 217 228 231
f 218 228 217
f 238 224 223
f 238 225 224
f 218 229 228
f 218 241 229
f 220 241 218
f 228 227 226
f 228 230 227
f 229 248 228
f 229 249 248
f 228 248 230
f 229 250 249
f 229 251 250
f 241 252 229
f 206 232 233
f 232 237 233
f 233 239 302
f 237 234 236
f 231 238 232
f 231 226 238
f 238 237 232
f 238 226 225
f 237 239 233
f 237 236 239
f 239 240 302
f 240 306 302
f 228 226 231
f 220 258 241
f 256 243 242
f 221 247 246
f 256 257 243
f 229 252 251
f 241 253 252
f 220 246 258
f 246 263 258
f 259 245 244
f 259 244 255
f 259 256 245
f 259 257 256
f 241 258 259
f 241 254 253
f 241 255 254
f 241 259 255
f 258 263 262
f 259 260 257
f 259 258 262
f 259 261 260
f 259 262 261
f 263 265 262
f 263 266 265
f 246 247 263
f 247 269 263
f 377 270 269
f 266 267 264
f 272 382 268
f 263 269 272
f 272 266 263
f 269 270 273
f 272 267 266
f 269 273 272
f 272 268 267
f 270 274 273
f 272 273 383
f 270 271 274
f 271 336 277
f 271 276 274
f 271 277 276
f 336 342 277
f 274 278 379
f 274 379 275
f 274 276 278
f 281 282 292
f 308 279 281
f 281 280 282
f 298 294 283
f 298 300 295
f 284 286 285
f 285 287 288
f 286 287 285
f 286 302 287
f 303 289 287
f 288 289 301
f 287 289 288
f 289 296 301
f 308 291 279
f 308 290 291
f 308 281 293
f 281 292 293
f 302 303 287
f 308 307 290
f 308 293 294
f 309 294 298
f 298 295 297
f 304 296 289
f 309 298 310
f 310 298 297
f 298 299 300
f 301 296 320
f 302 307 303
f 303 308 304
f 303 304 289
f 302 306 307
f 303 307 308
f 308 309 304
f 308 294 309
f 304 309 305
f 309 310 305
f 305 310 316
f 310 313 311
f 310 311 316
f 304 305 296
f 305 316 322
f 296 322 320
f 305 322 296
f 316 323 322
f 310 297 312
f 310 312 313
f 316 311 314
f 316 314 315
f 316 315 318
f 316 318 317
f 317 318 328
f 317 328 330
f 317 330 329
f 317 329 331
f 317 331 319
f 316 317 323
f 317 325 323
f 317 319 325
f 319 350 325
f 37 320 321
f 320 322 321
f 321 324 182
f 37 321 182
f 322 323 321
f 321 323 324
f 324 323 325
f 324 325 326
f 325 361 326
f 392 326 361
f 319 331 332
f 319 332 333
f 338 356 340
f 338 340 341
f 339 338 349
f 336 337 346
f 336 344 343
f 336 346 344
f 336 343 342
f 337 348 346
f 346 345 344
f 346 347 345
f 339 349 348
f 338 341 349
f 349 341 358
f 337 339 348
f 319 333 334
f 319 334 350
f 350 334 335
f 351 350 335
f 351 356 350
f 351 355 354
f 351 352 356
f 351 354 353
f 351 353 352
f 356 352 357
f 356 357 340
f 356 361 350
f 350 361 325
f 351 335 360
f 351 360 355
f 339 405 338
f 338 362 356
f 356 362 361
f 349 358 413
f 348 349 416
f 412 413 358
f 360 359 355
f 392 361 362
f 64 363 221
f 363 66 365
f 66 364 365
f 364 367 365
f 363 365 366
f 363 366 221
f 221 366 247
f 365 375 366
f 365 369 375
f 369 371 376
f 109 176 374
f 369 376 375
f 365 367 369
f 112 368 367
f 367 368 369
f 113 370 368
f 369 368 371
f 368 370 371
f 109 373 370
f 109 374 373
f 374 176 394
f 370 373 371
f 371 373 372
f 371 372 380
f 372 396 407
f 373 374 372
f 374 394 396
f 372 374 396
f 366 375 377
f 366 377 247
f 247 377 269
f 375 376 378
f 377 378 270
f 375 378 377
f 376 388 378
f 378 271 270
f 273 274 385
f 378 388 271
f 388 336 271
f 376 380 388
f 388 409 336
f 380 409 388
f 371 380 376
f 372 407 380
f 380 407 409
f 382 381 268
f 272 383 382
f 273 386 383
f 273 384 386
f 273 385 384
f 274 275 385
f 385 275 387
f 403 402 404
f 324 389 182
f 326 391 389
f 179 399 398
f 391 184 389
f 399 390 391
f 390 184 391
f 324 326 389
f 392 391 326
f 392 401 391
f 404 401 392
f 404 402 401
f 178 398 400
f 189 395 188
f 187 188 395
f 394 187 395
f 190 400 397
f 189 190 397
f 189 397 395
f 396 393 408
f 393 397 402
f 397 400 402
f 403 393 402
f 394 395 396
f 396 395 393
f 395 397 393
f 398 399 401
f 401 399 391
f 402 398 401
f 400 398 402
f 336 410 337
f 337 406 339
f 337 410 406
f 336 409 410
f 407 410 409
f 408 406 410
f 404 392 362
f 338 405 362
f 404 362 405
f 408 403 406
f 403 404 405
f 339 406 405
f 349 413 414
f 403 405 406
f 407 396 408
f 408 393 403
f 407 408 410
f 346 348 418
f 346 419 347
f 419 411 347
f 349 414 416
f 348 416 415
f 348 415 418
f 346 418 419
f 412 422 413
f 417 411 419
f 417 419 421
f 417 421 420
f 413 422 423
f 199 235 198
f 197 193 234
f 198 235 200
f 194 195 201
f 196 213 195
f 201 195 209
f 202 209 203
f 204 203 240
f 327 193 210
f 327 195 213
f 327 209 195
f 327 203 209
f 327 234 193
f 327 240 203
f 327 210 212
f 327 213 214
f 227 230 226
f 327 212 223
f 327 223 224
f 327 214 236
f 327 236 234
f 327 306 240
f 327 224 225
f 242 243 257
f 327 225 226
f 327 226 230
f 327 230 248
f 327 248 249
f 327 249 250
f 327 250 251
f 327 251 252
f 327 252 253
f 327 253 254
f 327 254 255
f 255 244 245
f 242 327 256
f 242 257 327
f 327 245 256
f 327 255 245
f 266 262 265
f 327 381 382
f 327 257 260
f 327 260 261
f 327 261 262
f 327 262 266
f 327 266 264
f 327 264 267
f 327 267 268
f 327 268 381
f 327 382 383
f 327 387 275
f 327 275 379
f 327 276 277
f 327 277 342
f 327 278 276
f 327 379 278
f 281 279 280
f 280 279 282
f 283 299 298
f 283 294 299
f 290 307 291
f 327 282 279
f 292 282 293
f 327 279 291
f 327 293 282
f 327 299 294
f 327 300 299
f 327 295 300
f 327 291 307
f 327 294 293
f 327 307 306
f 327 297 295
f 327 313 312
f 327 312 297
f 327 311 313
f 315 314 318
f 327 314 311
f 327 318 314
f 327 328 318
f 327 330 328
f 327 329 330
f 327 331 329
f 327 332 331
f 327 333 332
f 327 334 333
f 327 335 334
f 327 352 353
f 327 357 352
f 327 353 354
f 327 340 357
f 327 341 340
f 327 358 341
f 327 342 343
f 327 343 344
f 327 344 345
f 327 345 347
f 327 347 411
f 327 412 358
f 327 359 335
f 327 354 355
f 327 355 359
f 327 414 413
f 360 335 359
f 327 383 384
f 386 384 383
f 327 384 385
f 327 385 387
f 327 415 414
f 327 423 412
f 327 413 423
f 327 411 417
f 327 418 415
f 327 419 418
f 327 417 420
f 327 420 419
f 416 414 415
f 420 421 419
f 423 422 412

