# https://github.com/mikedh/trimesh
v 0.01400000320132512 -0.00436133019204867 -0.00263592703323989
v 0.01400000320132512 -0.00436133019204867 -0.00263592703323989
v 0.01399999909487110 -0.00441672774254761 -0.00255000002365737
v 0.01399999909487110 -0.00441672774254761 -0.00254999978523880
v 0.01399999909487110 -0.00441672774254761 -0.00255000002365737
v 0.01399999707710121 -0.00414551453087076 -0.00297063620072036
v 0.01400000038072595 -0.00414551262352213 -0.00297063596230178
v 0.01400000065846601 -0.00413686137118359 -0.00298153955917984
v 0.01400000612916717 -0.00424435375687220 -0.00281735117417007
v 0.01400000162789461 -0.00348631983739256 -0.00372230679970413
v 0.01399999955545619 -0.00310468630397626 -0.00404610199909835
v 0.01400000181152338 -0.00289043392497817 -0.00419438607674270
v 0.01400000439464246 -0.00291832383608337 -0.00255929191094070
v 0.01399999717503519 -0.00179646990069271 -0.00477312023621231
v 0.01400000047865993 -0.00179646799334407 -0.00477312011700302
v 0.01399999717503519 -0.00179646990069271 -0.00477312023621231
v 0.01400000006610968 -0.00213227507907905 -0.00462754626255661
v 0.01450000158787713 -0.00150000447362250 -0.00259807617645889
v 0.01400000030952120 -0.00455535594501611 -0.00228011543732315
v 0.01400000428989922 -0.00446783842517057 -0.00245050723534256
v 0.01400000428989922 -0.00446783842517057 -0.00245050723534256
v 0.01400000146216682 -0.00464540768510922 -0.00210480577927261
v 0.01400000146216682 -0.00464540768510922 -0.00210480577927261
v 0.01399999762282722 -0.00482933810793188 -0.00163934142571121
v 0.01400000092645196 -0.00482933620058325 -0.00163934094887405
v 0.01399999870773335 -0.00496676827073582 -0.00115808875542312
v 0.01400000201135809 -0.00496676636338718 -0.00115808827858596
v 0.01399999640998080 -0.00505636390028666 -0.00066568381767898
v 0.01399999971360553 -0.00505636199293802 -0.00066568334084182
v 0.01400000113185241 -0.00509727326289023 -0.00016686732750564
v 0.01400000113185241 -0.00509727326289023 -0.00016686732750564
v 0.01400000271670490 -0.00254347351770090 -0.00115243251305252
v 0.01400000271670490 -0.00254347351770090 -0.00115243251305252
v 0.01400000271670490 -0.00254347351770090 -0.00115243251305252
v 0.01550000172917890 -0.00289778123394104 -0.00077645738106399
v 0.01449999991593163 -0.00259807744442716 -0.00150000007134109
v 0.01449999963929928 -0.00212131610102806 -0.00212132031899124
v 0.01400000151803715 -0.00212728796986776 -0.00126008136253982
v 0.01550000201885505 -0.00259807623030375 -0.00150000007134109
v 0.01450000292988022 -0.00289778054071581 -0.00077645738106399
v 0.01400000280898536 -0.00214638658036737 -0.00123921353798538
v 0.01400000280898536 -0.00214638658036737 -0.00123921353798538
v 0.01749999959660659 -0.00353553180428098 -0.00353553397637039
v 0.01850000107695204 -0.00321394290293416 -0.00383022220116287
v 0.01849999751386650 -0.00383021633353976 -0.00321393806915908
v 0.01750000253777665 -0.00482963479892758 -0.00129409511070877
v 0.01750000081815374 -0.00433012773109786 -0.00250000007134109
v 0.01849999961745242 -0.00433012842432308 -0.00250000007134109
v 0.01849999971494119 -0.00469846050235827 -0.00171010072212844
v 0.01850000058044375 -0.00492404030955816 -0.00086824090462356
v 0.01550000369080056 -0.00150000325949910 -0.00259807617645889
v 0.01750000250352133 -0.00250000674887298 -0.00433012707214981
v 0.01850000460644476 -0.00250000553474957 -0.00433012707214981
v 0.01749999808361309 -0.00129408936436342 -0.00482962913494735
v 0.01549999843859796 -0.00212131679425329 -0.00212132031899124
v 0.01400000155636590 -0.00508908002844260 0.00033355610389084
v 0.01400000155636590 -0.00508908002844260 0.00033355610389084
v 0.01400000155636590 -0.00508908002844260 0.00033355610389084
v 0.01399999983036634 -0.00507179646031039 0.00048378651160569
v 0.01400000223640886 -0.00492622415064750 0.00131997721213669
v 0.01400000223640886 -0.00492622415064750 0.00131997721213669
v 0.01399999663558543 -0.00477311538967816 0.00179647533912034
v 0.01399999993921017 -0.00477311348232953 0.00179647581595749
v 0.01400000121650640 -0.00457404953256212 0.00225567238349289
v 0.01400000121650640 -0.00457404953256212 0.00225567238349289
v 0.01400000172089819 -0.00455896709320605 0.00228281013984055
v 0.01400000054476500 -0.00309587606682580 0.00051113216895432
v 0.01400000054476500 -0.00309587606682580 0.00051113216895432
v 0.01400000465669068 -0.00337521058146811 0.00170411961097092
v 0.01400000174302730 -0.00284897567645667 0.00140496151465744
v 0.01550000551198567 -0.00300000641388424 -0.00000000007134109
v 0.01550000172917890 -0.00289778123394104 0.00077645723838181
v 0.01450000340906224 -0.00300000762800764 -0.00000000007134109
v 0.01450000292988022 -0.00289778054071581 0.00077645723838181
v 0.01450000158787713 -0.00150000447362250 -0.00000000007134109
v 0.01449999991593163 -0.00259807744442716 0.00149999992865891
v 0.01449999963929928 -0.00212131610102806 0.00212132065314621
v 0.01550000201885505 -0.00259807623030375 0.00149999992865891
v 0.01400000156713994 -0.00404610366770926 0.00310468285102219
v 0.01400000156713994 -0.00404610366770926 0.00310468285102219
v 0.01400000492278517 -0.00384559373278698 0.00283684341925950
v 0.01400000130293691 -0.00379781219447119 0.00339732830542893
v 0.01400000018801817 -0.00367535848114871 0.00250339691657395
v 0.01400000134695264 -0.00342674903828680 0.00320949738044114
v 0.01400000038323189 -0.00336266808440551 0.00383438293952317
v 0.01399999980854034 -0.00297063828041681 0.00414551823157639
v 0.01399999980854034 -0.00297063828041681 0.00414551823157639
v 0.01399999768990421 -0.00254999557274546 0.00441672985572190
v 0.01400000099352895 -0.00254999366539682 0.00441672985572190
v 0.01450000158787713 -0.00150000447362250 0.00259807579535813
v 0.01399999888909866 -0.00210480722012367 0.00464540569800705
v 0.01400000219272340 -0.00210480531277504 0.00464540569800705
v 0.01749999790943532 -0.00499999879168258 -0.00000000007134109
v 0.01850000001235874 -0.00499999757755917 -0.00000000007134109
v 0.01750000253777665 -0.00482963479892758 0.00129409496802659
v 0.01850000058044375 -0.00492404030955816 0.00086824076194138
v 0.01849999971494119 -0.00469846050235827 0.00171010057944626
v 0.01750000081815374 -0.00433012773109786 0.00249999992865891
v 0.01749999959660659 -0.00353553180428098 0.00353553383368821
v 0.01849999961745242 -0.00433012842432308 0.00249999992865891
v 0.01849999751386650 -0.00383021633353976 0.00321393768805832
v 0.01850000107695204 -0.00321394290293416 0.00383022205848069
v 0.01549999843859796 -0.00212131679425329 0.00212132065314621
v 0.01550000369080056 -0.00150000325949910 0.00259807579535813
v 0.01750000250352133 -0.00250000674887298 0.00433012669104905
v 0.01850000460644476 -0.00250000553474957 0.00433012669104905
v 0.01749999808361309 -0.00129408936436342 0.00482962887305588
v 0.01399999571245492 -0.00131997353198014 -0.00492622168045669
v 0.01399999901607966 -0.00131997162463151 -0.00492622156124740
v 0.01400000443840114 -0.00097838250562564 -0.00500000007134109
v 0.01400000113477640 -0.00097838441297427 -0.00500000007134109
v 0.01400000155643912 -0.00032771986011240 -0.00500000007134109
v 0.01449999873150317 -0.00077645063707752 -0.00289777739029556
v 0.01399999938814004 -0.00023053287696917 -0.00289126141052871
v 0.01400000201885505 -0.00000000001895044 -0.00500000007134109
v 0.01400000215113213 0.00016297887791550 -0.00497854275684982
v 0.01400000127261292 -0.00100657526450709 -0.00204112465363174
v 0.01400000127261292 -0.00100657526450709 -0.00204112465363174
v 0.01400000098875956 -0.00106676306631568 -0.00171549708824783
v 0.01450000067728458 -0.00075000289642993 -0.00129903800469070
v 0.01400000034612580 -0.00039056871593667 -0.00236562426071792
v 0.01400000292944760 -0.00075000159614300 -0.00129903800469070
v 0.01400000411746255 -0.00068470366605229 -0.00138843114357620
v 0.01400000305316607 -0.00065917386853514 -0.00133666093331008
v 0.01400000757190699 -0.00069865618252869 -0.00132030827980667
v 0.01400000304874151 -0.00060125912698486 -0.00136065013390213
v 0.01399999752092650 -0.00040396103934481 -0.00150762708168655
v 0.01400000476673631 -0.00044798756650633 -0.00142413670998245
v 0.01399999984944825 -0.00038822563154483 -0.00144888885002761
v 0.01400000344143870 -0.00024238834719541 -0.00146808965187698
v 0.01400000385710307 -0.00011836562964721 -0.00148441750984817
v 0.01400000190252686 -0.00126631909236644 -0.00079264171105056
v 0.01400000044166248 -0.00129903903521965 -0.00075000007134109
v 0.01400000221385974 -0.00135533177760691 -0.00061409337502151
v 0.01400000132955121 -0.00138350559994350 -0.00054607255440383
v 0.01400000194863678 -0.00144889058336398 -0.00038822848778396
v 0.01400000411804357 -0.00106066497076958 -0.00106066043358474
v 0.01450000149312419 -0.00129903842815795 -0.00075000007134109
v 0.01450000186588055 -0.00106066627105651 -0.00106066043358474
v 0.01450000300009849 -0.00144888997630227 -0.00038822848778396
v 0.01400000201885505 -0.00000000001895044 -0.00150000007134109
v 0.01449999976669202 -0.00000000131923737 -0.00300000007134109
v 0.01549999753080186 -0.00077645133030275 -0.00289777739029556
v 0.01550000186961545 -0.00000000010511396 -0.00300000007134109
v 0.01400000340345478 0.00129408785384857 -0.00482962913494735
v 0.01400000196931334 0.00120100409517863 -0.00459012920838027
v 0.01400000423562788 0.00159685893445513 -0.00470421702843338
v 0.01400000794292029 0.00066759988872462 -0.00286320884209304
v 0.01399999913328567 0.00138197061620936 -0.00305006248932510
v 0.01400000365278318 0.00125365163098350 -0.00262964613419204
v 0.01450000410550561 0.00077644990595143 -0.00289777739029556
v 0.01449999794550691 0.00150000183514777 -0.00259807617645889
v 0.01550000290480430 0.00077644921272620 -0.00289777739029556
v 0.01550000004843034 0.00150000304927118 -0.00259807617645889
v 0.01449999759728523 -0.00038822693183176 -0.00144888885002761
v 0.01449999976669202 -0.00000000131923737 -0.00150000007134109
v 0.01400000262353206 0.00024161422912842 -0.00212166984062820
v 0.01400000344376907 0.00025333155843623 -0.00192428119164138
v 0.01400000418826184 0.00038822559364396 -0.00144888885002761
v 0.01400000355185632 0.00064085120764941 -0.00134424788933425
v 0.01400000110826250 0.00075000155824213 -0.00129903800469070
v 0.01450000193609882 0.00038822429335703 -0.00144888885002761
v 0.01400000511373534 0.00142993389057919 -0.00247673542481094
v 0.01400000573255756 0.00093386195693126 -0.00161750657539993
v 0.01399999968218643 0.00124859259029005 -0.00174239976387649
v 0.01400000496658362 0.00147481024408626 -0.00154217870216995
v 0.01449999885609947 0.00075000025795520 -0.00129903800469070
v 0.01400000381271535 0.00155455467428536 -0.00194501836281448
v 0.01399999954653188 0.00086671111138343 -0.00120948750954299
v 0.01399999898991688 0.00098266361355484 -0.00112051160317092
v 0.01399999991966653 0.00106066493286871 -0.00106066043358474
v 0.01399999919473630 0.00109068785596515 -0.00102153594475418
v 0.01400000392074197 0.00117984440416995 -0.00090533072930007
v 0.01400000101735310 0.00126901416687370 -0.00078912456017166
v 0.01400000029242288 0.00129903708997014 -0.00075000007134109
v 0.01400000501231525 0.00133665708870488 -0.00065916831474929
v 0.01400000055764584 0.00139259589572721 -0.00052413470726638
v 0.01399999878544858 0.00144888863811447 -0.00038822848778396
v 0.01399999796887954 0.00146809323848869 -0.00024238259773880
v 0.01399999770007638 0.00148717481979208 -0.00009747416954666
v 0.01449999766750350 0.00106066363258178 -0.00106066043358474
v 0.01450000134388459 0.00129903769703185 -0.00075000007134109
v 0.01449999983691030 0.00144888924517617 -0.00038822848778396
v 0.01550000199700819 0.00212131467667674 -0.00212132031899124
v 0.01400000381004014 0.00248415062618457 -0.00346663625221878
v 0.01400000031228224 0.00327553852041647 -0.00373503382187515
v 0.01400000189046128 0.00353553029376613 -0.00353553397637039
v 0.01399999727161071 0.00363560543252186 -0.00340511305313736
v 0.01399999962787533 0.00393282730350025 -0.00301776607018142
v 0.01400000198413996 0.00423004917447864 -0.00263041527252822
v 0.01400000263937230 0.00161294446292277 -0.00183920867424636
v 0.01400000117370507 0.00168255759723601 -0.00157588632088333
v 0.01399999970312005 0.00232960909455931 -0.00178757197838455
v 0.01400000130292866 0.00281955078161732 -0.00183499009590774
v 0.01399999821320235 0.00186153306189120 -0.00115757520180374
v 0.01400000136900658 0.00213881031072170 -0.00123484475594192
v 0.01399999499848061 0.00203971550983541 -0.00076769168358474
v 0.01399999831724333 0.00226254911703850 -0.00089848573189407
v 0.01400000084974015 0.00233158312173863 -0.00038494546394973
v 0.01450000319770951 0.00212131536990196 -0.00212132031899124
v 0.01449999961745242 0.00259807480595243 -0.00150000007134109
v 0.01550000172037585 0.00259807602007583 -0.00150000007134109
v 0.01449999990712857 0.00289777980958971 -0.00077645738106399
v 0.01400000066891413 0.00433012622058301 -0.00250000007134109
v 0.01399999604694944 0.00464198572752552 -0.00174711663704544
v 0.01399999894929122 0.00482963328841273 -0.00129409511070877
v 0.01399999894929122 0.00482963328841273 -0.00129409511070877
v 0.01399999894929122 0.00482963328841273 -0.00129409511070877
v 0.01399999894929122 0.00482963328841273 -0.00129409511070877
v 0.01400000261914726 0.00367999161709421 -0.00014431054573684
v 0.01399999944890732 0.00432838120234914 -0.00115978629570632
v 0.01399999944890732 0.00432838120234914 -0.00115978534203201
v 0.01399999944890732 0.00432838120234914 -0.00115978534203201
v 0.01399999979267098 0.00489362718896426 -0.00080794150810867
v 0.01399999979267098 0.00489362718896426 -0.00080794150810867
v 0.01400000131356060 0.00495630003078038 -0.00033196551781326
v 0.01400000384004016 -0.00150000317333557 -0.00000000007134109
v 0.01400000194741412 -0.00145919789325799 0.00030996172446579
v 0.01400000149853523 -0.00152997500884335 0.00040995447654099
v 0.01400000106959717 -0.00148025350174069 0.00040965502280564
v 0.01400000194863678 -0.00144889058336398 0.00038822834510178
v 0.01400000502156352 -0.00144182345709875 0.00040529959220261
v 0.01400000254024283 -0.00136507507973540 0.00059058229941697
v 0.01399999902539485 -0.00133665712660575 0.00065916912574143
v 0.01400000044166248 -0.00129903903521965 0.00074999992865891
v 0.01399999971673226 -0.00126901611212320 0.00078912489432663
v 0.01400000437866641 -0.00119631605694720 0.00088387959021897
v 0.01450000300009849 -0.00144888997630227 0.00038822834510178
v 0.01400000411804357 -0.00106066497076958 0.00106066029090256
v 0.01450000149312419 -0.00129903842815795 0.00074999992865891
v 0.01450000186588055 -0.00106066627105651 0.00106066029090256
v 0.01450000067728458 -0.00075000289642993 0.00129903786200852
v 0.01400000292944760 -0.00075000159614300 0.00129903786200852
v 0.01400000535336394 -0.00054896361919628 0.00138231079596848
v 0.01399999991220933 -0.00052563876515254 0.00154848234671921
v 0.01399999972572979 -0.00047905335915269 0.00141126482505173
v 0.01399999984944825 -0.00038822563154483 0.00144888870734543
v 0.01400000121058127 -0.00033933119954560 0.00145532553214402
v 0.01399999786931745 -0.00022817276338111 0.00146995966452927
v 0.01400000151682079 -0.00013803015526097 0.00148182814139695
v 0.01399999959965379 -0.00044693338980609 0.00191682474631638
v 0.01399999550344711 -0.00032072848002661 0.00206623833197922
v 0.01400000201885505 -0.00000000001895044 -0.00000000007134109
v 0.01400000065772203 -0.00004889445094967 0.00149356262702317
v 0.01400000201885505 -0.00000000001895044 0.00149999992865891
v 0.01400000351133300 0.00001358534766208 0.00149821131247849
v 0.01400000358067344 0.00002685274465075 0.00156910364646286
v 0.01449999873150317 -0.00077645063707752 0.00289777748603196
v 0.01400000559195175 -0.00025147868087999 0.00269976990241379
v 0.01399999968974597 -0.00163933924653393 0.00482934372443528
v 0.01400000299337071 -0.00163933733918530 0.00482934372443528
v 0.01399999975247989 -0.00115808477755553 0.00496677296180100
v 0.01399999975247989 -0.00115808477755553 0.00496677296180100
v 0.01400000426932934 -0.00097547541346828 0.00499999992865891
v 0.01400000096570460 -0.00097547732081692 0.00499999992865891
v 0.01400000367947265 -0.00018760970674793 0.00407422440070481
v 0.01399999945599448 -0.00065825974010196 0.00499999992865891
v 0.01400000414104421 0.00008538448890386 0.00498875801581711
v 0.01449999759728523 -0.00038822693183176 0.00144888870734543
v 0.01449999976669202 -0.00000000131923737 0.00149999992865891
v 0.01400000019766994 0.00150000313543470 -0.00000000007134109
v 0.01399999666739347 0.00149357004106853 0.00004889433402390
v 0.01400000330625653 0.00147443927952511 0.00019411413688035
v 0.01400000182385036 0.00135533173970603 0.00061409275550217
v 0.01400000208907332 0.00144889054546310 0.00038822834510178
v 0.01400000231572505 0.00145532173248064 0.00033933489341111
v 0.01399999736918096 0.00141127054672837 0.00047905914801926
v 0.01399999886215214 0.00090533229188110 0.00117985003012986
v 0.01400000381725485 0.00102153464689146 0.00109068338889451
v 0.01399999991966653 0.00106066493286871 0.00106066029090256
v 0.01399999980252743 0.00112051773585723 0.00098266165274949
v 0.01400000029242288 0.00129903708997014 0.00074999992865891
v 0.01400000586125444 0.00120948124085765 0.00086670677680344
v 0.01449999983691030 0.00144888924517617 0.00038822834510178
v 0.01449999794550691 0.00150000183514777 -0.00000000007134109
v 0.01450000134388459 0.00129903769703185 0.00074999992865891
v 0.01449999766750350 0.00106066363258178 0.00106066029090256
v 0.01400000418826184 0.00038822559364396 0.00144888870734543
v 0.01400000257599675 0.00074542137933308 0.00130093424338669
v 0.01400000110826250 0.00075000155824213 0.00129903786200852
v 0.01450000193609882 0.00038822429335703 0.00144888870734543
v 0.01399999721067417 0.00078913184421939 0.00126901667136521
v 0.01400000302411906 0.00090503516615075 0.00145541374701828
v 0.01399999976017327 0.00147757347327928 0.00192560808677048
v 0.01449999885609947 0.00075000025795520 0.00129903786200852
v 0.01550000199700819 0.00212131467667674 0.00212132065314621
v 0.01449999976669202 -0.00000000131923737 0.00299999992865891
v 0.01549999753080186 -0.00077645133030275 0.00289777748603196
v 0.01550000186961545 -0.00000000010511396 0.00299999992865891
v 0.01400000259913949 0.00079769795057680 0.00297706692237229
v 0.01400000259913949 0.00079769795057680 0.00297704308051438
v 0.01400000305084200 0.00084467135033402 0.00367330639380784
v 0.01450000410550561 0.00077644990595143 0.00289777748603196
v 0.01449999794550691 0.00150000183514777 0.00259807579535813
v 0.01399999651747247 0.00032491490523152 0.00495722477454514
v 0.01399999575592309 0.00080794845083623 0.00489363186377854
v 0.01400000833381380 0.00139212466333735 0.00478901855964035
v 0.01550000290480430 0.00077644921272620 0.00289777748603196
v 0.01550000004843034 0.00150000304927118 0.00259807579535813
v 0.01400000214380248 0.00210070014305224 0.00027656214255661
v 0.01400000155312858 0.00221517260167632 0.00030445330161423
v 0.01399999873508967 0.00197649950414726 0.00067093031424851
v 0.01399999851548339 0.00221989282885244 0.00089191191214890
v 0.01400000265043686 0.00246794017129746 0.00008079187888474
v 0.01400000235697779 0.00261241852382176 -0.00000000007134109
v 0.01400000529069695 0.00173157695565472 0.00162831203955979
v 0.01400000123137278 0.00183545819315339 0.00160965387839646
v 0.01399999951730931 0.00214379551258435 0.00176658766288132
v 0.01449999612432180 0.00300000498953291 -0.00000000007134109
v 0.01449999990712857 0.00289777980958971 0.00077645723838181
v 0.01449999961745242 0.00259807480595243 0.00149999992865891
v 0.01450000319770951 0.00212131536990196 0.00212132065314621
v 0.01550000172037585 0.00259807602007583 0.00149999992865891
v 0.01400000027400781 0.00499999537381910 -0.00000000007134109
v 0.01400000357763255 0.00499999728116773 -0.00000000007134109
v 0.01400000308377862 0.00497853664973143 0.00016298048514695
v 0.01399999927607976 0.00415680404808198 0.00119040672797532
v 0.01399999579695225 0.00491482093836539 0.00064704697150559
v 0.01399999646700491 0.00332719618160874 0.00150753109473557
v 0.01399999669246744 0.00470421758064696 0.00159686558265061
v 0.01400000026763117 0.00451777187412158 0.00204697792548508
v 0.01399999763822661 0.00444110864273935 0.00223208134192795
v 0.01399999857390768 0.00228395675353750 0.00367288963813157
v 0.01400000393055671 0.00264320040523673 0.00344469063300461
v 0.01399999722829094 0.00241347568577656 0.00421206848639817
v 0.01399999471529605 0.00174712872005202 0.00464197723883957
v 0.01399999815137343 0.00219723415775156 0.00445553772467942
v 0.01399999911882279 0.00292630505288090 0.00313161747474045
v 0.01400000303673025 0.00296325505397551 0.00315611832160325
v 0.01399999853990941 0.00304470662931876 0.00314145081061692
v 0.01399999853990941 0.00304470662931876 0.00314145081061692
v 0.01400000004749819 0.00389979129837184 0.00306082623023362
v 0.01400000359980968 0.00347308836824410 0.00358344738501877
v 0.01400000189046128 0.00353553029376613 0.00353553383368821
v 0.01400000189046128 0.00353553029376613 0.00353553383368821
v 0.01400000073950440 0.00373503332487958 0.00327553455848069
v 0.02050000051862744 -0.00405331057983394 -0.00257112081032424
v 0.02050000104840456 -0.00363379398034500 -0.00313616569023757
v 0.02050000298231051 -0.00313617007166757 -0.00363379485588699
v 0.02050000135517078 -0.00257111903560545 -0.00405331201534896
v 0.01849999777100322 -0.00171009959141363 -0.00469846315365463
v 0.01749999946821282 -0.00000000149156441 -0.00500000007134109
v 0.01850000377221094 -0.00086824444625951 -0.00492403883915573
v 0.01850000157113624 -0.00000000027744101 -0.00500000007134109
v 0.01849999805969290 -0.00037134734485679 -0.00064320237618118
v 0.01849999723118778 -0.00064319649578132 -0.00037135274391799
v 0.01850000373710495 -0.00059290716621588 -0.00035000760536819
v 0.01849999914093104 -0.00053969943734276 -0.00034186561089187
v 0.01849999830573161 -0.00048712383302005 -0.00034746606331497
v 0.01850000240493746 -0.00035000782514270 -0.00059290368538528
v 0.01850000259226136 -0.00034186758563238 -0.00053970296364456
v 0.01850000387916330 -0.00034746979019786 -0.00048712785225540
v 0.01850000060348416 -0.00039752820346921 -0.00039752538185745
v 0.01850000462234563 -0.00036644538162663 -0.00043866403084426
v 0.01850000209511775 -0.00043866848236687 -0.00036643893700271
v 0.01850000157113624 -0.00000000027744101 -0.00074270589333206
v 0.01850000172440126 0.00000665991852198 -0.00068847329598098
v 0.01850000028667962 0.00002621654691249 -0.00063832910042434
v 0.01850000123910594 0.00005735045634376 -0.00059559829216629
v 0.01850000091639083 0.00009801568815428 -0.00056311376076370
v 0.01850000145850950 0.00014550010073971 -0.00054302985649734
v 0.01850000310792043 0.00019666759299725 -0.00053667743187576
v 0.01850000059536446 0.00024813221098514 -0.00054447848778396
v 0.01850000162889174 0.00029646263521886 -0.00056591565590530
v 0.02049999861637483 -0.00118960641833656 -0.00091776330452590
v 0.02050000181866726 -0.00113931899611975 -0.00089641768913894
v 0.02049999722249336 -0.00108611126724663 -0.00088827569466262
v 0.02049999969091866 -0.00103353375557529 -0.00089387662392288
v 0.02049999614125522 -0.00091775917476066 -0.00118961245995193
v 0.02050000048649977 -0.00089641965504657 -0.00113931376915603
v 0.02050000067382368 -0.00088827941553625 -0.00108611304741531
v 0.02050000196072562 -0.00089388162010173 -0.00103353793602615
v 0.02050000198867121 -0.00094393812602445 -0.00094393546562820
v 0.02050000600753269 -0.00091285530418187 -0.00098507459145217
v 0.02050000348030480 -0.00098507840492211 -0.00091284902077346
v 0.01850000508257959 0.00037134678997477 -0.00064320237618118
v 0.01849999960652171 0.00033846595496101 -0.00059956748467117
v 0.01849999955843255 0.00059956680729685 -0.00033846576195388
v 0.01850000591108471 0.00064319594089931 -0.00037135274391799
v 0.01850000450451058 0.00054447401192280 -0.00024813182335525
v 0.01849999941326008 0.00056591379946561 -0.00029646403771072
v 0.01849999708878459 0.00053668198573151 -0.00019667489510208
v 0.01850000242616158 0.00054302802676792 -0.00014550454598098
v 0.01850000005671105 0.00056311269718287 -0.00009801347237258
v 0.01849999828733740 0.00059560172374199 -0.00005735070686965
v 0.01850000060776662 0.00063832994341022 -0.00002621276360183
v 0.01849999877272050 0.00068847350266270 -0.00000666339378982
v 0.02050000243496268 0.00019999725820261 -0.00479583151322036
v 0.02050000436453185 0.00089909822517281 -0.00471504147034317
v 0.02050000435481120 0.00157886966534931 -0.00453289647083908
v 0.02050000243496268 0.00019999725820261 -0.00148911626320510
v 0.02050000258822770 0.00020665745416560 -0.00143488366585403
v 0.02050000115050606 0.00022621408255611 -0.00138473947029739
v 0.02050000210293238 0.00025734799198737 -0.00134200866203933
v 0.02050000178021727 0.00029801322379790 -0.00130952413063674
v 0.02050000232233594 0.00034549763638333 -0.00128943974953323
v 0.02049999634235234 0.00039667834313983 -0.00128308780174881
v 0.02050000145919090 0.00044812974662876 -0.00129088885765701
v 0.02050000249271818 0.00049646017086248 -0.00131232602577835
v 0.02050000047034816 0.00053846349060463 -0.00134597737770706
v 0.02049999831701150 0.00057135754011735 -0.00138961226921707
v 0.02050000309774632 0.00131232368591128 -0.00049646384697586
v 0.02049999746964609 0.00128308996482854 -0.00039667470436721
v 0.02050000488537207 0.00129088199101984 -0.00044813210945755
v 0.02050000280702307 0.00128943600586495 -0.00034550435524612
v 0.02049999866255168 0.00138961713449530 -0.00057135303002029
v 0.02049999993929405 0.00134597478639389 -0.00053846604805618
v 0.02050000043757255 0.00130952067627991 -0.00029801328163772
v 0.02049999866819889 0.00134200970283903 -0.00025735051613479
v 0.02050000098862811 0.00138473792250726 -0.00022621257286697
v 0.02050000245720674 0.00143488338910837 -0.00020666367989212
v 0.02050000134548990 0.00148911505098655 -0.00019999988060623
v 0.02049999648878919 -0.00479582679330873 0.00019999973792405
v 0.02050000110085767 -0.00471503949355971 0.00089910166282029
v 0.02049999915723107 -0.00453289196206064 0.00157887594718308
v 0.02049999725339837 -0.00425330950192801 0.00222471039313645
v 0.02050000029760208 -0.00148911647142085 0.00019999973792405
v 0.02049999918588523 -0.00143488480954266 0.00020666353720994
v 0.02049999760697677 -0.00222470751424611 0.00425331203955979
v 0.02049999728828077 -0.00157887108578361 0.00453289692420334
v 0.01850000217764409 -0.00074270762677154 -0.00000000007134109
v 0.01850000106592725 -0.00068847596489335 0.00000666372794480
v 0.01850000253450587 -0.00063833049829224 0.00002621262091965
v 0.01850000485493509 -0.00059560227862401 0.00005735056418747
v 0.01849999978193670 -0.00056311515941352 0.00009801332969040
v 0.01850000071611091 -0.00054302858164994 0.00014550440329880
v 0.01850000042538767 -0.00056591626169626 0.00029646389502854
v 0.01850000274986316 -0.00053668444796216 0.00019667475241990
v 0.01849999863776192 -0.00054447456680482 0.00024813215751023
v 0.01849999723118778 -0.00064319649578132 0.00037135307807297
v 0.01850000028021519 -0.00059956926952751 0.00033846561927170
v 0.01850000023212603 -0.00033846841719167 0.00059956734198899
v 0.01850000254690803 -0.00024813276586716 0.00054447834510178
v 0.01850000151338075 -0.00029646319010087 0.00056591551322312
v 0.01849999673072731 -0.00019667005522790 0.00053667728919358
v 0.01849999838013825 -0.00014550256297036 0.00054302971381516
v 0.01850000222588166 -0.00009801624303630 0.00056311361808152
v 0.01850000190316655 -0.00005735101122577 0.00059559814948410
v 0.01849999805969290 -0.00037134734485679 0.00064320223349900
v 0.01850000285559287 -0.00002621710179451 0.00063832943457932
v 0.01849999811424649 -0.00000666238075263 0.00068847315329880
v 0.01850000157113624 -0.00000000027744101 0.00074270575064988
v 0.02050000065446386 -0.00138473934294155 0.00022621243018479
v 0.02050000297489308 -0.00134201112327332 0.00025735085028977
v 0.02050000120551942 -0.00130952209671420 0.00029801313895554
v 0.02049999883606890 -0.00128943742629925 0.00034550421256394
v 0.02050000417344588 -0.00128309138526283 0.00039667503852219
v 0.02049999675771990 -0.00129088341145413 0.00044813196677536
v 0.02050000170379792 -0.00134597620682818 0.00053846590537400
v 0.02050000298054029 -0.00138961855492959 0.00057135288733811
v 0.02049999854534566 -0.00131232510634557 0.00049646370429368
v 0.02050000332608047 -0.00057135896055165 0.00138961212653489
v 0.02049999915037379 -0.00049646159129677 0.00131232588309617
v 0.02050000117274382 -0.00053846491103893 0.00134597723502488
v 0.01849999923516359 0.00039752574123856 0.00039752523917527
v 0.01849999851992686 0.00036644482674461 0.00043866436499924
v 0.01850000055001113 0.00034186703075036 0.00053970282096238
v 0.01849999926310919 0.00034746923531584 0.00048712770957322
v 0.01850000073733503 0.00035000727026068 0.00059290354270310
v 0.01850000096462840 0.00074270707188952 -0.00000000007134109
v 0.01849999774353001 0.00043866602013622 0.00036643879432053
v 0.01850000483654088 0.00048712327813804 0.00034746639746994
v 0.01850000400134144 0.00053969888246074 0.00034186546820969
v 0.01849999940516754 0.00059290661133386 0.00035000746268601
v 0.01850000591108471 0.00064319594089931 0.00037135307807297
v 0.01850000508257959 0.00037134678997477 0.00064320223349900
v 0.01849999777100322 -0.00171009959141363 0.00469846336860032
v 0.01749999946821282 -0.00000000149156441 0.00499999992865891
v 0.01850000377221094 -0.00086824444625951 0.00492403881568284
v 0.01850000157113624 -0.00000000027744101 0.00499999992865891
v 0.02049999727856012 -0.00089909964560710 0.00471504108924241
v 0.02050000018390107 -0.00044813116706305 0.00129088871497483
v 0.02050000530073962 -0.00039667976357412 0.00128308765906662
v 0.02049999932075604 -0.00034549905681763 0.00128943960685105
v 0.02049999986287470 -0.00029801464423219 0.00130952398795456
v 0.02049999954015959 -0.00025734941242167 0.00134200851935715
v 0.02050000049258591 -0.00022621550299041 0.00138473932761521
v 0.02049999905486427 -0.00020665887459989 0.00143488352317185
v 0.02049999920812929 -0.00019999867863690 0.00148911612052292
v 0.02049999816278717 0.00098507698448781 0.00091284887809128
v 0.02050000195217331 0.00103353233514100 0.00089387648124070
v 0.02050000442059861 0.00108610984681234 0.00088827555198044
v 0.02049999563555928 0.00091285388374757 0.00098507444876999
v 0.02049999968236635 0.00089388019966743 0.00103353827018113
v 0.02050000096926829 0.00088827799510195 0.00108611338157029
v 0.02050000115659220 0.00089641823461227 0.00113931362647385
v 0.02050000550183675 0.00091775775432637 0.00118961231726975
v 0.02049999965442076 0.00094393670559016 0.00094393532294602
v 0.02049999982442471 0.00113931757568546 0.00089641754645676
v 0.02050000302671714 0.00118960499790227 0.00091776316184372
v 0.02049999920812929 -0.00019999867863690 0.00479583160895676
v 0.01750000415643729 0.00129408828858322 -0.00482962913494735
v 0.01849999937006156 0.00086824389137750 -0.00492403883915573
v 0.01850000206764453 0.00171009712918298 -0.00469846315365463
v 0.01849999853582773 0.00250000497986755 -0.00433012707214981
v 0.01749999643290430 0.00250000376574415 -0.00433012707214981
v 0.01750000264344378 0.00353553072850079 -0.00353553397637039
v 0.01549999870642725 0.00289777911636449 -0.00077645738106399
v 0.01750000142189664 0.00433012665531766 -0.00250000007134109
v 0.01849999876169571 0.00321394044070351 -0.00383022220116287
v 0.01850000562840599 0.00383021577865774 -0.00321393806915908
v 0.02050000403611520 0.00222470609381182 -0.00425331194382339
v 0.02050000438969360 0.00425330808149372 -0.00222471077423721
v 0.02050000248586090 0.00453289054162634 -0.00157887608986526
v 0.02050000054223430 0.00471503807312542 -0.00089910180550247
v 0.02050000515430278 0.00479582537287444 -0.00019999988060623
v 0.01749999970227373 0.00482963372314738 -0.00129409511070877
v 0.01850000022119533 0.00433012596209243 -0.00250000007134109
v 0.01850000342733130 0.00469845994747625 -0.00171010072212844
v 0.01849999925820399 0.00492403784732751 -0.00086824090462356
v 0.01750000415643729 0.00129408828858322 0.00482962887305588
v 0.01849999937006156 0.00086824389137750 0.00492403881568284
v 0.01849999853582773 0.00250000497986755 0.00433012669104905
v 0.01850000206764453 0.00171009712918298 0.00469846336860032
v 0.01750000264344378 0.00353553072850079 0.00353553383368821
v 0.01749999643290430 0.00250000376574415 0.00433012669104905
v 0.01549999822724523 0.00300000620365632 -0.00000000007134109
v 0.01549999870642725 0.00289777911636449 0.00077645723838181
v 0.01750000142189664 0.00433012665531766 0.00249999992865891
v 0.01850000562840599 0.00383021577865774 0.00321393768805832
v 0.01849999876169571 0.00321394044070351 0.00383022205848069
v 0.02049999866078146 0.00313616865123328 0.00363379471320481
v 0.02050000059468740 0.00363379255991070 0.00313616554755539
v 0.02050000028792119 0.00257111761517116 0.00405331223029465
v 0.02050000112446453 0.00405330915939965 0.00257112114447922
v 0.01750000102699032 0.00499999580855375 -0.00000000007134109
v 0.01850000312991375 0.00499999702267716 -0.00000000007134109
v 0.01849999925820399 0.00492403784732751 0.00086824076194138
v 0.01749999970227373 0.00482963372314738 0.00129409496802659
v 0.01850000342733130 0.00469845994747625 0.00171010057944626
v 0.01850000022119533 0.00433012596209243 0.00249999992865891
f 13 10 11
f 13 11 12
f 13 12 119
f 4 5 33
f 20 4 33
f 9 38 1
f 2 32 3
f 136 19 21
f 217 22 19
f 217 23 22
f 27 26 68
f 27 68 28
f 29 28 68
f 29 68 30
f 25 68 26
f 217 25 24
f 217 24 23
f 137 6 8
f 137 7 6
f 137 9 7
f 2 42 32
f 1 38 41
f 136 21 34
f 122 8 13
f 137 38 9
f 217 68 25
f 136 217 19
f 46 71 35
f 39 35 40
f 35 71 73
f 36 39 40
f 122 137 8
f 37 36 138
f 37 55 36
f 55 39 36
f 18 37 139
f 51 55 37
f 18 51 37
f 37 138 139
f 40 35 73
f 40 73 75
f 36 40 140
f 136 34 135
f 36 140 138
f 40 75 140
f 43 45 47
f 45 337 48
f 52 44 43
f 45 48 47
f 44 45 43
f 44 338 45
f 47 48 49
f 49 50 46
f 46 50 93
f 50 94 93
f 47 46 35
f 47 49 46
f 46 93 71
f 48 346 49
f 49 346 50
f 50 421 94
f 43 47 39
f 52 43 55
f 143 51 18
f 52 55 51
f 54 51 143
f 341 53 52
f 52 53 44
f 341 52 54
f 54 52 51
f 342 54 143
f 47 35 39
f 43 39 55
f 30 68 31
f 31 68 56
f 57 58 67
f 57 67 59
f 60 61 68
f 60 68 62
f 63 62 68
f 63 68 64
f 65 64 68
f 66 65 68
f 217 66 68
f 220 70 69
f 217 69 66
f 233 81 83
f 233 84 81
f 93 72 71
f 71 72 74
f 73 71 74
f 73 74 75
f 74 72 76
f 220 69 219
f 217 218 69
f 218 219 69
f 220 223 70
f 228 74 76
f 75 74 228
f 228 76 230
f 229 83 227
f 229 233 83
f 230 76 77
f 72 78 76
f 76 78 77
f 78 103 77
f 230 77 231
f 77 103 90
f 231 77 90
f 81 79 80
f 81 84 79
f 84 82 79
f 233 85 84
f 233 86 85
f 233 87 86
f 233 88 87
f 233 89 88
f 233 91 89
f 93 94 96
f 93 96 95
f 96 97 95
f 97 100 98
f 93 95 72
f 95 98 78
f 95 97 98
f 413 96 94
f 413 414 96
f 414 415 96
f 96 415 97
f 97 416 100
f 430 101 100
f 98 101 99
f 98 100 101
f 101 102 99
f 99 102 105
f 72 95 78
f 78 98 103
f 103 104 90
f 103 99 104
f 103 98 99
f 104 99 105
f 104 105 288
f 439 102 101
f 102 106 105
f 105 106 467
f 105 467 107
f 288 107 289
f 288 105 107
f 289 107 468
f 17 15 118
f 15 16 118
f 109 117 14
f 109 108 117
f 110 117 108
f 110 111 112
f 117 110 112
f 115 117 112
f 115 119 117
f 115 122 119
f 115 114 122
f 115 116 157
f 115 141 114
f 115 157 141
f 122 13 119
f 113 18 120
f 18 139 120
f 122 114 121
f 141 131 114
f 122 121 123
f 128 123 127
f 122 123 125
f 126 123 128
f 123 121 127
f 155 126 128
f 155 122 125
f 155 125 124
f 155 124 126
f 155 120 122
f 155 128 129
f 155 129 130
f 156 130 131
f 137 132 38
f 136 140 217
f 138 134 133
f 138 133 132
f 138 135 134
f 139 138 132
f 137 139 132
f 122 120 137
f 120 139 137
f 138 140 136
f 138 136 135
f 140 75 217
f 141 157 158
f 113 143 18
f 113 144 143
f 113 142 144
f 142 153 144
f 145 148 146
f 145 147 149
f 145 149 150
f 145 159 148
f 145 150 159
f 142 151 153
f 151 152 154
f 342 144 492
f 342 143 144
f 144 153 492
f 151 154 153
f 153 154 496
f 113 155 142
f 113 120 155
f 142 155 156
f 155 130 156
f 141 156 131
f 159 158 148
f 142 156 151
f 151 156 162
f 151 162 167
f 141 158 159
f 141 162 156
f 141 159 162
f 159 164 160
f 159 167 162
f 159 160 167
f 167 160 161
f 167 161 169
f 159 150 163
f 151 167 152
f 152 181 200
f 152 167 181
f 200 181 182
f 167 169 181
f 181 169 170
f 181 170 171
f 181 171 172
f 182 172 173
f 181 172 182
f 182 173 174
f 182 174 175
f 182 175 176
f 201 182 183
f 182 176 183
f 183 176 177
f 183 177 178
f 183 178 179
f 275 179 180
f 275 180 261
f 183 179 275
f 152 200 184
f 152 184 154
f 200 202 184
f 187 163 185
f 187 185 186
f 187 188 168
f 168 188 189
f 168 189 190
f 187 159 163
f 187 164 159
f 187 165 164
f 187 168 165
f 166 193 192
f 194 196 195
f 204 191 168
f 204 166 191
f 204 193 166
f 203 183 275
f 200 182 201
f 200 201 202
f 204 194 193
f 204 196 194
f 201 498 202
f 201 183 203
f 203 275 309
f 198 211 197
f 201 203 498
f 203 517 498
f 203 309 517
f 190 204 168
f 206 198 205
f 209 207 208
f 206 211 198
f 213 216 199
f 315 305 210
f 209 214 212
f 215 216 213
f 209 208 214
f 217 75 218
f 220 222 223
f 228 221 218
f 228 222 221
f 75 228 218
f 228 223 222
f 228 224 223
f 228 230 224
f 230 225 224
f 230 226 225
f 230 227 226
f 230 229 227
f 230 231 229
f 229 231 233
f 231 232 233
f 231 90 232
f 232 90 248
f 233 234 235
f 233 235 241
f 233 232 234
f 232 236 234
f 232 259 236
f 259 237 236
f 259 238 237
f 259 239 238
f 259 240 239
f 259 244 240
f 242 239 240
f 242 240 249
f 242 249 241
f 233 241 256
f 278 247 246
f 233 92 91
f 233 250 92
f 233 251 250
f 90 104 248
f 249 256 241
f 233 256 251
f 256 252 251
f 256 253 252
f 256 254 253
f 254 257 255
f 256 257 254
f 259 260 244
f 260 245 244
f 246 245 260
f 232 248 259
f 259 248 287
f 259 287 260
f 281 260 287
f 285 268 282
f 285 269 268
f 277 270 269
f 277 273 271
f 277 271 270
f 277 269 285
f 274 262 263
f 274 263 266
f 275 261 262
f 275 262 274
f 274 266 265
f 274 265 267
f 276 267 264
f 274 267 276
f 276 272 273
f 276 273 277
f 276 264 272
f 274 276 311
f 278 246 260
f 278 260 281
f 278 281 279
f 278 279 283
f 285 280 279
f 285 282 280
f 285 279 281
f 278 290 247
f 278 291 290
f 281 287 293
f 285 281 293
f 278 283 284
f 285 293 294
f 277 285 294
f 276 277 312
f 278 284 328
f 277 294 312
f 312 294 299
f 312 299 286
f 104 288 248
f 248 288 287
f 288 289 287
f 293 287 289
f 293 289 298
f 290 292 247
f 247 292 258
f 278 325 291
f 294 293 298
f 292 295 258
f 292 296 295
f 325 297 291
f 289 468 298
f 294 298 299
f 299 298 511
f 275 274 310
f 301 300 304
f 317 303 302
f 306 307 308
f 330 306 308
f 275 310 309
f 274 311 310
f 315 301 304
f 317 319 303
f 309 310 518
f 309 518 517
f 310 313 518
f 276 312 311
f 310 311 313
f 311 312 286
f 311 286 313
f 315 304 305
f 315 316 301
f 316 318 301
f 315 314 316
f 317 322 319
f 320 321 317
f 317 321 322
f 278 328 324
f 278 324 323
f 278 323 325
f 325 326 297
f 325 327 326
f 330 308 332
f 335 329 331
f 335 333 329
f 330 332 336
f 335 334 333
f 45 338 337
f 53 340 44
f 44 340 339
f 44 339 338
f 53 369 340
f 339 365 338
f 340 369 339
f 337 365 48
f 338 365 337
f 339 369 365
f 341 54 343
f 341 345 53
f 342 343 54
f 342 344 343
f 342 493 344
f 341 343 356
f 343 344 356
f 344 493 388
f 493 389 388
f 344 388 391
f 493 494 389
f 48 365 346
f 53 345 369
f 50 346 421
f 341 356 345
f 345 357 350
f 356 357 345
f 357 358 350
f 347 422 421
f 346 347 421
f 347 348 422
f 349 424 348
f 355 425 349
f 353 426 355
f 348 423 422
f 348 424 423
f 349 425 424
f 355 426 425
f 358 351 350
f 359 352 351
f 360 354 352
f 358 359 351
f 359 360 352
f 360 361 354
f 361 353 354
f 353 383 426
f 361 383 353
f 361 362 382
f 365 366 346
f 370 345 350
f 371 350 351
f 374 352 354
f 372 351 352
f 369 345 370
f 370 350 371
f 374 354 373
f 366 367 347
f 368 348 367
f 375 349 368
f 373 355 375
f 371 351 372
f 372 352 374
f 366 347 346
f 367 348 347
f 368 349 348
f 373 353 355
f 375 355 349
f 373 354 353
f 369 366 365
f 369 367 366
f 369 368 367
f 369 370 371
f 369 371 372
f 369 372 374
f 369 374 373
f 369 375 368
f 369 373 375
f 344 391 356
f 495 376 401
f 392 357 356
f 393 358 357
f 394 359 358
f 395 360 359
f 396 361 360
f 396 362 361
f 397 363 362
f 398 364 363
f 400 376 377
f 399 377 364
f 364 381 363
f 362 363 380
f 376 379 377
f 377 378 364
f 364 378 381
f 363 381 380
f 362 380 382
f 377 379 378
f 361 382 383
f 391 392 356
f 392 393 357
f 393 394 358
f 394 395 359
f 395 396 360
f 396 397 362
f 401 376 400
f 398 363 397
f 398 399 364
f 400 377 399
f 404 380 381
f 379 407 378
f 378 402 381
f 403 382 380
f 405 383 382
f 405 384 383
f 384 408 385
f 385 409 386
f 386 410 387
f 387 411 460
f 494 390 389
f 388 389 391
f 389 390 391
f 390 502 401
f 390 401 391
f 391 401 392
f 392 401 393
f 393 401 394
f 394 401 395
f 401 396 395
f 401 397 396
f 401 398 397
f 401 399 398
f 401 400 399
f 379 406 407
f 402 404 381
f 404 403 380
f 403 405 382
f 378 407 402
f 405 408 384
f 385 408 409
f 386 409 410
f 387 410 411
f 411 412 460
f 407 412 402
f 407 406 412
f 402 412 404
f 404 412 403
f 403 412 405
f 405 412 408
f 408 412 409
f 409 412 410
f 410 412 411
f 413 94 417
f 413 417 414
f 414 450 415
f 97 415 416
f 450 416 415
f 94 421 417
f 450 100 416
f 414 417 450
f 417 418 443
f 452 420 419
f 467 419 420
f 450 430 100
f 418 421 422
f 443 422 423
f 444 423 424
f 449 431 430
f 430 439 101
f 439 452 106
f 431 432 430
f 429 433 427
f 427 434 431
f 430 432 439
f 426 436 428
f 428 435 429
f 431 434 432
f 427 433 434
f 428 436 435
f 429 435 433
f 426 455 436
f 383 455 426
f 456 437 436
f 437 458 438
f 438 457 440
f 455 456 436
f 456 458 437
f 438 458 457
f 457 459 440
f 459 441 440
f 441 466 442
f 459 466 441
f 417 421 418
f 418 422 443
f 443 423 444
f 444 424 445
f 445 425 446
f 451 431 449
f 448 427 451
f 446 428 447
f 447 429 448
f 449 430 450
f 445 424 425
f 446 425 426
f 446 426 428
f 447 428 429
f 451 427 431
f 448 429 427
f 417 443 444
f 417 444 445
f 417 445 446
f 417 448 451
f 417 446 447
f 417 447 448
f 417 449 450
f 417 451 449
f 432 453 454
f 434 472 453
f 433 473 472
f 439 454 452
f 435 474 473
f 437 475 474
f 438 476 475
f 440 477 476
f 441 478 477
f 442 479 478
f 452 479 420
f 453 452 454
f 453 472 452
f 432 454 439
f 433 472 434
f 434 453 432
f 433 435 473
f 435 436 474
f 436 437 474
f 437 438 475
f 438 440 476
f 440 441 477
f 441 442 478
f 383 384 461
f 384 385 462
f 385 386 463
f 383 461 455
f 384 462 461
f 385 463 462
f 387 464 463
f 386 387 463
f 387 460 464
f 460 465 464
f 455 488 456
f 462 480 461
f 461 488 455
f 462 463 481
f 463 464 482
f 464 465 489
f 456 483 458
f 458 484 457
f 457 485 459
f 459 486 466
f 442 470 479
f 442 466 514
f 439 106 102
f 467 469 107
f 106 419 467
f 467 471 469
f 442 512 470
f 107 469 468
f 468 469 470
f 468 470 512
f 452 419 106
f 479 471 420
f 467 420 471
f 479 470 491
f 471 491 469
f 469 491 470
f 452 472 473
f 452 473 474
f 452 474 475
f 452 475 476
f 452 476 477
f 452 477 478
f 452 478 479
f 456 488 483
f 458 483 484
f 457 484 485
f 459 485 486
f 466 486 487
f 461 480 488
f 462 481 480
f 463 482 481
f 464 489 482
f 465 490 489
f 483 487 484
f 484 487 485
f 485 487 486
f 480 487 488
f 481 487 480
f 488 487 483
f 481 482 487
f 482 489 487
f 489 490 487
f 490 522 487
f 479 491 471
f 153 496 492
f 342 492 493
f 154 184 497
f 154 497 496
f 493 492 494
f 492 496 494
f 494 496 495
f 495 500 376
f 500 501 376
f 496 500 495
f 496 497 500
f 500 497 501
f 501 379 376
f 501 508 379
f 497 184 499
f 497 499 501
f 184 202 499
f 202 498 507
f 498 517 526
f 202 507 499
f 498 526 507
f 494 502 390
f 494 495 502
f 495 401 502
f 508 406 379
f 412 527 460
f 508 509 503
f 503 504 406
f 505 412 406
f 504 505 406
f 505 506 412
f 508 503 406
f 503 509 504
f 412 506 527
f 504 510 505
f 510 506 505
f 501 499 508
f 499 509 508
f 499 507 509
f 509 507 510
f 507 526 510
f 510 526 527
f 509 510 504
f 510 527 506
f 313 286 515
f 460 528 465
f 466 487 513
f 298 468 511
f 468 512 511
f 286 299 516
f 286 516 515
f 299 511 516
f 442 514 512
f 466 513 514
f 511 512 514
f 516 511 514
f 516 514 513
f 520 515 521
f 521 516 513
f 515 516 521
f 517 518 529
f 518 313 519
f 517 529 526
f 518 519 529
f 313 515 519
f 519 515 520
f 465 531 490
f 490 531 525
f 460 527 528
f 465 528 530
f 465 530 531
f 490 525 523
f 487 524 513
f 524 521 513
f 522 521 524
f 520 521 523
f 531 520 525
f 487 522 524
f 490 523 522
f 525 520 523
f 523 521 522
f 526 529 528
f 526 528 527
f 529 519 530
f 528 529 530
f 530 519 531
f 519 520 531
f 5 4 20
f 6 7 9
f 6 13 8
f 16 15 17
f 11 119 12
f 11 10 243
f 22 23 24
f 24 25 26
f 5 20 33
f 21 19 34
f 19 22 34
f 22 24 34
f 41 9 1
f 6 9 41
f 2 3 42
f 26 27 28
f 28 29 30
f 30 31 56
f 3 32 42
f 6 41 38
f 6 38 132
f 24 26 243
f 24 135 34
f 26 28 243
f 28 30 243
f 10 13 243
f 6 243 13
f 6 132 243
f 24 243 135
f 58 57 59
f 58 59 67
f 61 62 219
f 61 60 62
f 62 63 64
f 64 65 66
f 62 64 70
f 64 66 69
f 64 69 70
f 30 56 243
f 56 68 243
f 61 219 68
f 62 220 219
f 62 222 220
f 62 70 223
f 227 83 81
f 80 227 81
f 80 84 243
f 218 68 219
f 62 243 222
f 62 223 243
f 85 243 84
f 80 79 82
f 80 82 84
f 86 87 88
f 85 86 243
f 86 88 243
f 88 89 91
f 91 92 250
f 14 108 109
f 16 17 118
f 110 108 111
f 108 121 111
f 114 112 111
f 14 127 108
f 14 117 126
f 114 111 121
f 131 112 114
f 108 127 121
f 14 128 127
f 115 112 116
f 243 116 112
f 11 243 119
f 14 126 243
f 14 243 128
f 243 112 131
f 119 123 117
f 126 117 123
f 125 123 119
f 132 133 134
f 243 125 119
f 243 129 128
f 243 130 129
f 243 131 130
f 243 124 125
f 243 126 124
f 243 132 134
f 243 134 135
f 243 157 116
f 243 158 157
f 145 146 147
f 146 148 147
f 243 147 148
f 243 149 147
f 243 148 158
f 243 160 149
f 150 149 160
f 150 164 163
f 163 164 165
f 150 160 164
f 166 192 191
f 243 161 160
f 243 169 161
f 243 170 169
f 243 171 170
f 243 172 171
f 243 173 172
f 243 174 173
f 243 175 174
f 243 176 175
f 243 177 176
f 243 178 177
f 243 179 178
f 243 180 179
f 243 261 180
f 163 165 185
f 185 191 186
f 187 186 191
f 187 191 188
f 188 193 189
f 168 185 165
f 168 191 185
f 191 192 188
f 188 192 193
f 196 190 195
f 194 189 193
f 194 195 190
f 198 197 205
f 210 305 304
f 194 190 189
f 204 190 196
f 205 211 206
f 205 197 211
f 213 199 215
f 216 215 199
f 207 212 208
f 207 209 212
f 208 212 214
f 210 314 315
f 243 68 218
f 243 218 221
f 243 221 222
f 243 223 224
f 243 224 225
f 243 225 226
f 243 226 227
f 243 234 236
f 243 236 237
f 243 237 238
f 243 238 239
f 80 243 227
f 91 234 243
f 243 239 257
f 243 257 240
f 243 240 244
f 243 244 245
f 243 245 246
f 243 246 247
f 243 247 295
f 88 91 243
f 91 250 235
f 91 235 234
f 250 241 235
f 252 242 241
f 242 257 239
f 249 240 257
f 250 251 252
f 250 252 241
f 252 253 255
f 254 255 253
f 252 255 242
f 242 255 257
f 249 257 256
f 247 258 295
f 243 280 282
f 243 279 280
f 243 268 269
f 243 269 271
f 243 282 268
f 243 271 273
f 243 266 263
f 243 267 266
f 243 262 261
f 243 263 262
f 243 264 267
f 243 273 264
f 265 266 267
f 270 271 269
f 272 264 273
f 243 290 291
f 243 292 290
f 243 327 279
f 279 323 283
f 283 323 284
f 243 296 292
f 243 295 296
f 243 291 326
f 243 326 327
f 297 326 291
f 303 319 302
f 330 307 306
f 308 307 336
f 301 318 300
f 304 300 318
f 210 304 316
f 304 318 316
f 317 302 320
f 210 316 314
f 302 319 320
f 322 321 319
f 320 319 321
f 279 325 323
f 323 324 284
f 328 284 324
f 279 327 325
f 330 336 307
f 308 336 332
f 331 329 333
f 331 333 334
f 331 334 335

